<?xml version="1.0" encoding="utf-8"?>
<!-- Generator: Adobe Illustrator 27.2.0, SVG Export Plug-In . SVG Version: 6.00 Build 0)  -->
<svg version="1.1" id="Layer_1" xmlns="http://www.w3.org/2000/svg" xmlns:xlink="http://www.w3.org/1999/xlink" x="0px" y="0px"
	 viewBox="0 0 1140.24 792" style="enable-background:new 0 0 1140.24 792;" xml:space="preserve">
<style type="text/css">
	.st0{fill:none;stroke:#000000;stroke-miterlimit:10;}
	.st1{font-family:'MyriadPro-Regular';}
	.st2{font-size:16px;}
	.st3{stroke:#000000;stroke-width:0.3;stroke-miterlimit:10;}
	.st4{fill:none;}
	.st5{fill:none;stroke:#000000;stroke-miterlimit:10;stroke-dasharray:11.8833,11.8833;}
	.st6{fill:none;stroke:#000000;stroke-miterlimit:10;stroke-dasharray:12;}
	.st7{fill:none;stroke:#000000;stroke-width:0.25;stroke-miterlimit:10;stroke-dasharray:2;}
	.st8{font-size:13.453px;}
	.st9{font-size:14.0314px;}
	.st10{fill:none;stroke:#ED1C24;stroke-miterlimit:10;}
	.st11{fill:#ED1C24;}
	.st12{fill:#ED1C24;stroke:#ED1C24;stroke-width:0.3;stroke-miterlimit:10;}
	.st13{fill:#ED1C24;stroke:#ED1C24;stroke-miterlimit:10;}
	.st14{stroke:#000000;stroke-miterlimit:10;}
	.st15{font-size:12px;}
	.st16{fill:#ED1C24;stroke:#000000;stroke-width:0.25;stroke-miterlimit:10;stroke-dasharray:2;}
</style>
<g>
	<g>
		<line class="st0" x1="327.89" y1="514.16" x2="327.89" y2="186.01"/>
		<g>
			<path d="M327.89,179.97c1.05,2.84,2.85,6.36,4.76,8.55l-4.76-1.72l-4.75,1.72C325.04,186.34,326.83,182.81,327.89,179.97z"/>
		</g>
	</g>
</g>
<g>
	<g>
		<line class="st0" x1="327.99" y1="514.26" x2="813.87" y2="514.01"/>
		<g>
			<path d="M819.9,514.01c-2.84,1.06-6.36,2.85-8.54,4.76l1.72-4.76l-1.72-4.75C813.54,511.16,817.06,512.96,819.9,514.01z"/>
		</g>
	</g>
</g>
<polygon class="st0" points="548.18,242.9 405.52,346.55 460.01,514.26 636.35,514.26 690.84,346.55 "/>
<text transform="matrix(0.8705 0 0 1 493.3392 540.692)" class="st1 st2">DISPLACEMENT (S)</text>
<g>
	<g>
		<line class="st0" x1="606.41" y1="534.82" x2="630.37" y2="534.82"/>
		<g>
			<path d="M636.41,534.82c-2.84,1.05-6.36,2.85-8.55,4.76l1.72-4.76l-1.72-4.75C630.04,531.97,633.57,533.77,636.41,534.82z"/>
		</g>
	</g>
</g>
<g>
	<g>
		<line class="st0" x1="490.15" y1="534.82" x2="466.18" y2="534.82"/>
		<g>
			<path d="M460.15,534.82c2.84-1.05,6.36-2.85,8.55-4.76l-1.72,4.76l1.72,4.75C466.51,537.68,462.99,535.88,460.15,534.82z"/>
		</g>
	</g>
</g>
<text transform="matrix(0.8192 -0.5736 0.5736 0.8192 404.8239 293.4215)" class="st1 st2">ARM_LENGTH (L)</text>
<g>
	<g>
		<line class="st0" x1="500.93" y1="220.87" x2="516.54" y2="209.94"/>
		<g>
			<path d="M521.48,206.48c-1.72,2.49-3.58,5.99-4.27,8.8l-1.32-4.88l-4.14-2.91C514.63,207.79,518.55,207.25,521.48,206.48z"/>
		</g>
	</g>
</g>
<g>
	<g>
		<line class="st0" x1="398.7" y1="292.45" x2="383.82" y2="302.87"/>
		<g>
			<path d="M378.88,306.33c1.72-2.49,3.58-5.99,4.27-8.8l1.32,4.88l4.14,2.91C385.73,305.01,381.81,305.56,378.88,306.33z"/>
		</g>
	</g>
</g>
<line class="st0" x1="473.64" y1="289.18" x2="481.25" y2="299.66"/>
<line class="st0" x1="622.98" y1="289.18" x2="615.38" y2="299.66"/>
<line class="st0" x1="670.32" y1="430.22" x2="659.26" y2="426.63"/>
<line class="st0" x1="426.57" y1="430.22" x2="437.63" y2="426.63"/>
<text transform="matrix(1 0 0 1 418.3889 504.963)" class="st3 st1 st2">(0, 0)</text>
<path class="st4" d="M489.39,514.16c0-16.93-17.61-30.64-39.37-30.64"/>
<path class="st4" d="M672.36,514.08c0-14.15-12.36-25.6-27.63-25.6"/>
<path class="st0" d="M672.36,514.08c0-14.15-12.36-25.6-27.63-25.6"/>
<path class="st0" d="M483.18,514.08c0-14.15-14.09-25.6-31.5-25.6"/>
<g>
	<g>
		<line class="st0" x1="548.18" y1="242.9" x2="550.03" y2="248.61"/>
		<line class="st5" x1="553.71" y1="259.91" x2="632.66" y2="502.9"/>
		<line class="st0" x1="634.49" y1="508.55" x2="636.35" y2="514.26"/>
	</g>
</g>
<line class="st6" x1="460.01" y1="514.26" x2="548.18" y2="242.9"/>
<text transform="matrix(1 0 0 1 548.1807 237.5349)" class="st1 st2">P (x, y)</text>
<line class="st7" x1="547.59" y1="243.32" x2="518.86" y2="201.63"/>
<line class="st7" x1="406.21" y1="346.08" x2="373.4" y2="299.86"/>
<text transform="matrix(1 0 0 1 788.9673 533.4131)" class="st1 st2">x</text>
<text transform="matrix(1 0 0 1 311.4922 203.4734)" class="st1 st2">y</text>
<text transform="matrix(1.1589 0 0 1 474.5553 488.4825)" class="st1 st8">θ</text>
<text transform="matrix(1.0315 0 0 1 664.7905 487.9746)" class="st1 st9">φ</text>
<text transform="matrix(1 0 0 1 459.9458 375.9656)" class="st1 st2">diag1</text>
<line class="st7" x1="459.89" y1="541.53" x2="460.01" y2="512.76"/>
<line class="st7" x1="636.47" y1="540.85" x2="636.35" y2="514.26"/>
<text transform="matrix(1 0 0 1 600.1991 375.9656)" class="st1 st2">diag2</text>
<text transform="matrix(1 0 0 1 410.7522 437.5571)" class="st1 st2">A</text>
<text transform="matrix(1 0 0 1 625.5203 282.8726)" class="st1 st2">C</text>
<text transform="matrix(1 0 0 1 462.5202 283.9039)" class="st1 st2">B</text>
<text transform="matrix(1 0 0 1 676.1682 437.5568)" class="st1 st2">D</text>
<g>
	<g>
		<line class="st10" x1="327.89" y1="405.88" x2="327.89" y2="351.91"/>
		<g>
			<path class="st11" d="M327.89,345.88c1.05,2.84,2.85,6.36,4.76,8.55l-4.76-1.72l-4.75,1.72
				C325.04,352.24,326.83,348.72,327.89,345.88z"/>
		</g>
	</g>
</g>
<g>
	<g>
		<line class="st10" x1="327.89" y1="406.06" x2="381.85" y2="406.04"/>
		<g>
			<path class="st11" d="M387.89,406.04c-2.84,1.05-6.36,2.85-8.55,4.76l1.72-4.76l-1.72-4.75
				C381.52,403.19,385.05,404.99,387.89,406.04z"/>
		</g>
	</g>
</g>
<text transform="matrix(1 0 0 1 289.2342 395.9999)" class="st12 st1 st2">(0, 0)</text>
<text transform="matrix(1 0 0 1 314.3688 364.6052)" class="st11 st1 st2">x</text>
<text transform="matrix(0.999 -0.0447 0.0447 0.999 370.0238 421.0359)" class="st11 st1 st2">y</text>
<rect x="648.38" y="207.42" class="st13" width="10" height="10"/>
<rect x="648.38" y="227.54" class="st14" width="10" height="10"/>
<text transform="matrix(1 0 0 1 668.4523 217.4221)" class="st1 st15">OpenCV Coordinate Frame</text>
<text transform="matrix(1 0 0 1 668.8841 237.5352)"><tspan x="0" y="0" class="st1 st15">Inverse Kinematics </tspan><tspan x="0" y="14.4" class="st1 st15">Coordinate Frame</tspan></text>
<line class="st16" x1="327.84" y1="540.69" x2="327.96" y2="512.43"/>
<text transform="matrix(0.8705 0 0 1 363.0126 539.5345)" class="st11 st1 st2">Y_OFFSET</text>
<g>
	<line class="st11" x1="431.64" y1="534.82" x2="459.13" y2="534.82"/>
	<g>
		<line class="st0" x1="431.64" y1="534.82" x2="453.1" y2="534.82"/>
		<g>
			<path d="M459.13,534.82c-2.84,1.05-6.36,2.85-8.55,4.76l1.72-4.76l-1.72-4.75C452.77,531.97,456.29,533.77,459.13,534.82z"/>
		</g>
	</g>
</g>
<g>
	<line class="st11" x1="353.88" y1="534.82" x2="327.35" y2="534.82"/>
	<g>
		<line class="st0" x1="353.88" y1="534.82" x2="333.39" y2="534.82"/>
		<g>
			<path d="M327.35,534.82c2.84-1.05,6.36-2.85,8.55-4.76l-1.72,4.76l1.72,4.75C333.72,537.67,330.19,535.88,327.35,534.82z"/>
		</g>
	</g>
</g>
<line class="st7" x1="305.38" y1="514.27" x2="326.31" y2="514.36"/>
<line class="st7" x1="305.38" y1="406.03" x2="326.31" y2="406.11"/>
<text transform="matrix(0 -0.8705 1 0 316.2978 487.9746)" class="st11 st1 st2">X_OFFSET</text>
<g>
	<g>
		<line class="st0" x1="312.7" y1="424.16" x2="312.7" y2="413.34"/>
		<g>
			<path d="M312.7,407.31c1.05,2.84,2.85,6.36,4.76,8.55l-4.76-1.72l-4.75,1.72C309.85,413.67,311.64,410.15,312.7,407.31z"/>
		</g>
	</g>
</g>
<g>
	<g>
		<line class="st0" x1="312.7" y1="495.61" x2="312.7" y2="508.28"/>
		<g>
			<path d="M312.7,514.32c-1.05-2.84-2.85-6.36-4.76-8.55l4.76,1.72l4.75-1.72C315.55,507.95,313.75,511.48,312.7,514.32z"/>
		</g>
	</g>
</g>
</svg>
