<?xml version="1.0" encoding="utf-8"?>
<!-- Generator: Adobe Illustrator 27.2.0, SVG Export Plug-In . SVG Version: 6.00 Build 0)  -->
<svg version="1.1" id="Layer_1" xmlns="http://www.w3.org/2000/svg" xmlns:xlink="http://www.w3.org/1999/xlink" x="0px" y="0px"
	 viewBox="0 0 1140.24 792" style="enable-background:new 0 0 1140.24 792;" xml:space="preserve">
<style type="text/css">
	.st0{fill:none;stroke:#000000;stroke-miterlimit:10;}
	.st1{stroke:#000000;stroke-width:0.3;stroke-miterlimit:10;}
	.st2{fill:none;}
	.st3{fill:none;stroke:#000000;stroke-miterlimit:10;stroke-dasharray:11.8833,11.8833;}
	.st4{fill:none;stroke:#000000;stroke-miterlimit:10;stroke-dasharray:12;}
	.st5{fill:none;stroke:#000000;stroke-width:0.25;stroke-miterlimit:10;stroke-dasharray:2;}
	.st6{fill:none;stroke:#ED1C24;stroke-miterlimit:10;}
	.st7{fill:#ED1C24;}
	.st8{fill:#ED1C24;stroke:#ED1C24;stroke-width:0.3;stroke-miterlimit:10;}
	.st9{fill:#ED1C24;stroke:#ED1C24;stroke-miterlimit:10;}
	.st10{stroke:#000000;stroke-miterlimit:10;}
</style>
<g>
	<line class="st0" x1="327.89" y1="514.16" x2="327.89" y2="186.01"/>
	<g>
		<path d="M327.89,179.97c1.05,2.84,2.85,6.36,4.76,8.55l-4.76-1.72l-4.75,1.72C325.04,186.34,326.83,182.81,327.89,179.97z"/>
	</g>
</g>
<g>
	<line class="st0" x1="327.99" y1="514.26" x2="813.87" y2="514.01"/>
	<g>
		<path d="M819.9,514.01c-2.84,1.06-6.36,2.85-8.54,4.76l1.72-4.76l-1.72-4.75C813.54,511.16,817.06,512.96,819.9,514.01z"/>
	</g>
</g>
<polygon class="st0" points="548.18,242.9 405.52,346.55 460.01,514.26 636.35,514.26 690.84,346.55 "/>
<g>
	<path d="M494.4,530.05c0.74-0.13,1.62-0.22,2.58-0.22c1.74,0,2.98,0.46,3.8,1.34c0.84,0.88,1.32,2.13,1.32,3.87
		c0,1.76-0.47,3.2-1.35,4.19c-0.88,1.01-2.33,1.55-4.15,1.55c-0.86,0-1.59-0.05-2.2-0.13V530.05z M495.61,539.59
		c0.31,0.06,0.75,0.08,1.23,0.08c2.59,0,4-1.67,4-4.58c0.01-2.54-1.24-4.16-3.8-4.16c-0.63,0-1.1,0.06-1.42,0.14V539.59z"/>
	<path d="M504.89,529.9v10.79h-1.21V529.9H504.89z"/>
	<path d="M506.84,539c0.54,0.38,1.34,0.7,2.17,0.7c1.24,0,1.96-0.75,1.96-1.84c0-1.01-0.5-1.58-1.77-2.14
		c-1.53-0.62-2.48-1.54-2.48-3.06c0-1.68,1.21-2.93,3.04-2.93c0.96,0,1.66,0.26,2.08,0.53l-0.33,1.14
		c-0.31-0.19-0.93-0.51-1.78-0.51c-1.28,0-1.77,0.88-1.77,1.62c0,1.01,0.57,1.5,1.87,2.08c1.59,0.7,2.4,1.58,2.4,3.17
		c0,1.67-1.07,3.11-3.29,3.11c-0.91,0-1.9-0.3-2.4-0.69L506.84,539z"/>
	<path d="M513.87,530.03c0.59-0.11,1.35-0.21,2.33-0.21c1.2,0,2.08,0.32,2.63,0.9c0.52,0.51,0.82,1.3,0.82,2.26
		c0,0.98-0.25,1.74-0.72,2.3c-0.64,0.78-1.69,1.18-2.87,1.18c-0.36,0-0.7-0.02-0.98-0.1v4.32h-1.21V530.03z M515.08,535.23
		c0.26,0.08,0.6,0.11,1,0.11c1.46,0,2.35-0.82,2.35-2.31c0-1.42-0.88-2.11-2.22-2.11c-0.53,0-0.93,0.05-1.14,0.11V535.23z"/>
	<path d="M521.28,529.9h1.21v9.62h4.01v1.17h-5.22V529.9z"/>
	<path d="M529.37,537.3l-0.98,3.39h-1.25l3.19-10.79h1.46l3.2,10.79h-1.3l-1-3.39H529.37z M532.45,536.21l-0.92-3.11
		c-0.21-0.7-0.35-1.34-0.49-1.97h-0.03c-0.14,0.64-0.29,1.3-0.47,1.95l-0.92,3.12H532.45z"/>
	<path d="M542.73,540.34c-0.45,0.26-1.34,0.51-2.48,0.51c-2.65,0-4.64-1.92-4.64-5.46c0-3.38,1.99-5.67,4.9-5.67
		c1.17,0,1.91,0.29,2.23,0.48l-0.29,1.14c-0.46-0.26-1.11-0.45-1.89-0.45c-2.2,0-3.66,1.62-3.66,4.45c0,2.64,1.32,4.34,3.61,4.34
		c0.74,0,1.49-0.18,1.98-0.45L542.73,540.34z"/>
	<path d="M549.11,535.63h-3.65v3.89h4.07v1.17h-5.28V529.9h5.07v1.17h-3.86v3.41h3.65V535.63z"/>
	<path d="M559.01,535.95c-0.07-1.5-0.15-3.31-0.14-4.66h-0.04c-0.32,1.26-0.71,2.61-1.18,4.1l-1.66,5.23h-0.92l-1.52-5.14
		c-0.45-1.52-0.82-2.91-1.09-4.19h-0.03c-0.03,1.34-0.1,3.15-0.18,4.77l-0.25,4.63h-1.16l0.66-10.79h1.55l1.6,5.22
		c0.39,1.33,0.71,2.51,0.95,3.63h0.04c0.24-1.09,0.57-2.27,0.99-3.63l1.67-5.22h1.55l0.58,10.79h-1.18L559.01,535.95z"/>
	<path d="M567.16,535.63h-3.65v3.89h4.07v1.17h-5.28V529.9h5.07v1.17h-3.86v3.41h3.65V535.63z"/>
	<path d="M569.15,540.69V529.9h1.32l3.01,5.46c0.7,1.26,1.24,2.4,1.69,3.5l0.03-0.02c-0.11-1.44-0.14-2.75-0.14-4.43v-4.51h1.14
		v10.79h-1.23l-2.98-5.47c-0.65-1.2-1.28-2.43-1.75-3.6l-0.04,0.02c0.07,1.36,0.1,2.66,0.1,4.45v4.61H569.15z"/>
	<path d="M580.09,531.09h-2.86v-1.18h6.95v1.18h-2.87v9.6h-1.23V531.09z"/>
	<path d="M590.8,529.58c-1.02,1.57-1.75,3.65-1.75,6.55c0,2.85,0.77,4.9,1.75,6.5h-0.96c-0.88-1.33-1.83-3.38-1.83-6.5
		c0.01-3.15,0.95-5.2,1.83-6.55H590.8z"/>
	<path d="M591.93,539.25c0.36,0.27,1,0.56,1.62,0.56c0.89,0,1.31-0.51,1.31-1.15c0-0.67-0.35-1.04-1.25-1.42
		c-1.21-0.5-1.78-1.26-1.78-2.19c0-1.25,0.88-2.27,2.33-2.27c0.68,0,1.28,0.22,1.66,0.48l-0.31,1.02c-0.26-0.19-0.75-0.45-1.38-0.45
		c-0.72,0-1.13,0.48-1.13,1.06c0,0.64,0.4,0.93,1.28,1.31c1.17,0.51,1.77,1.18,1.77,2.34c0,1.36-0.92,2.32-2.52,2.32
		c-0.74,0-1.42-0.21-1.89-0.53L591.93,539.25z"/>
	<path d="M596.88,542.63c0.99-1.58,1.76-3.67,1.76-6.55c0-2.87-0.75-4.91-1.76-6.5h0.95c0.89,1.31,1.83,3.36,1.83,6.51
		c0,3.14-0.93,5.17-1.83,6.53H596.88z"/>
</g>
<g>
	<line class="st0" x1="606.41" y1="534.82" x2="630.37" y2="534.82"/>
	<g>
		<path d="M636.41,534.82c-2.84,1.05-6.36,2.85-8.55,4.76l1.72-4.76l-1.72-4.75C630.04,531.97,633.57,533.77,636.41,534.82z"/>
	</g>
</g>
<g>
	<line class="st0" x1="490.15" y1="534.82" x2="466.18" y2="534.82"/>
	<g>
		<path d="M460.15,534.82c2.84-1.05,6.36-2.85,8.55-4.76l-1.72,4.76l1.72,4.75C466.51,537.68,462.99,535.88,460.15,534.82z"/>
	</g>
</g>
<g>
	<path d="M405.3,288.94l1.03,3.42l-1.18,0.83l-3.19-10.94l1.38-0.96l9.21,6.73l-1.22,0.85l-2.89-2.12L405.3,288.94z M407.58,286.02
		l-2.65-1.94c-0.6-0.44-1.1-0.87-1.59-1.29l-0.03,0.02c0.24,0.62,0.47,1.25,0.67,1.91l0.92,3.16L407.58,286.02z"/>
	<path d="M407.74,278.39c0.5-0.52,1.27-1.17,2.06-1.72c1.22-0.85,2.16-1.18,3.06-1.07c0.72,0.08,1.39,0.51,1.87,1.19
		c0.82,1.17,0.62,2.45-0.09,3.42l0.03,0.04c0.85-0.24,1.69,0.1,2.55,0.87c1.15,1.03,1.96,1.74,2.38,1.95l-1.18,0.83
		c-0.32-0.15-1.05-0.77-2.07-1.7c-1.12-1.04-1.91-1.16-2.97-0.48l-1.07,0.75l2.68,3.83l-1.14,0.8L407.74,278.39z M411.69,281.61
		l1.17-0.82c1.22-0.85,1.53-2.06,0.82-3.07c-0.8-1.14-1.97-1.06-3.19-0.23c-0.55,0.39-0.91,0.71-1.05,0.9L411.69,281.61z"/>
	<path d="M425.62,273.07c-0.93-1.19-2.04-2.61-2.8-3.72l-0.04,0.03c0.42,1.25,0.83,2.6,1.24,4.14l1.44,5.38l-0.87,0.61l-4.38-3.21
		c-1.29-0.95-2.45-1.84-3.43-2.72l-0.03,0.02c0.75,1.12,1.72,2.65,2.57,4.03l2.42,3.96l-1.09,0.76l-5.57-9.27l1.46-1.02l4.5,3.22
		c1.13,0.83,2.11,1.59,2.98,2.35l0.04-0.03c-0.4-1.05-0.77-2.24-1.15-3.63l-1.42-5.38l1.46-1.02l6.74,8.45l-1.12,0.78L425.62,273.07
		z"/>
	<path d="M437.68,271.88l0.46,0.66l-6.56,4.59l-0.46-0.66L437.68,271.88z"/>
	<path d="M431.8,261.37l1.14-0.8l5.52,7.88l3.78-2.64l0.67,0.96l-4.92,3.44L431.8,261.37z"/>
	<path d="M445.84,258.52l-3.44,2.41l2.23,3.19l3.83-2.68l0.67,0.96l-4.97,3.48l-6.19-8.84l4.77-3.34l0.67,0.96l-3.63,2.54l1.96,2.79
		l3.44-2.41L445.84,258.52z"/>
	<path d="M450.62,261.36l-6.19-8.84l1.25-0.87l5.96,2.49c1.38,0.58,2.54,1.15,3.6,1.76l0.02-0.03c-0.93-1.11-1.71-2.16-2.67-3.54
		l-2.59-3.7l1.08-0.75l6.19,8.84l-1.15,0.81l-5.95-2.52c-1.3-0.55-2.6-1.15-3.72-1.79l-0.03,0.04c0.85,1.07,1.62,2.11,2.64,3.58
		l2.64,3.78L450.62,261.36z"/>
	<path d="M465.69,250.21c-0.38,0.54-1.18,1.55-2.37,2.39c-1.34,0.94-2.68,1.37-4.12,1.15c-1.28-0.2-2.57-1.05-3.54-2.43
		c-1.83-2.64-1.37-5.84,1.59-7.91c1.02-0.72,1.98-1.05,2.49-1.14l0.38,1.12c-0.62,0.12-1.33,0.36-2.22,0.99
		c-2.15,1.51-2.62,3.82-1.07,6.04c1.57,2.24,3.85,2.62,5.91,1.18c0.75-0.52,1.18-0.99,1.36-1.3l-1.85-2.64l-1.8,1.26l-0.64-0.92
		l2.91-2.04L465.69,250.21z"/>
	<path d="M463.88,240.35l-2.69,1.88l-0.68-0.97l6.54-4.58l0.68,0.97l-2.7,1.89l5.51,7.87l-1.15,0.81L463.88,240.35z"/>
	<path d="M469.18,235.19l2.59,3.7l4.27-2.99l-2.59-3.7l1.15-0.81l6.19,8.84l-1.15,0.81l-2.9-4.14l-4.27,2.99l2.9,4.14l-1.14,0.8
		l-6.19-8.84L469.18,235.19z"/>
	<path d="M481.64,226.07c-0.06,1.95,0.44,4.15,2.1,6.52c1.63,2.33,3.53,3.51,5.38,4.17l-0.9,0.63c-1.59-0.51-3.65-1.56-5.45-4.12
		c-1.8-2.59-2.09-4.89-2.04-6.57L481.64,226.07z"/>
	<path d="M483.08,225.46l1.14-0.8l5.52,7.88l3.78-2.64l0.67,0.96l-4.92,3.44L483.08,225.46z"/>
	<path d="M495.83,232.06c0.02-1.95-0.45-4.16-2.1-6.52c-1.64-2.35-3.53-3.53-5.38-4.17l0.89-0.62c1.59,0.49,3.65,1.55,5.45,4.13
		c1.8,2.57,2.09,4.85,2.03,6.55L495.83,232.06z"/>
</g>
<g>
	<line class="st0" x1="500.93" y1="220.87" x2="516.54" y2="209.94"/>
	<g>
		<path d="M521.48,206.48c-1.72,2.49-3.58,5.99-4.27,8.8l-1.32-4.88l-4.14-2.91C514.63,207.79,518.55,207.25,521.48,206.48z"/>
	</g>
</g>
<g>
	<line class="st0" x1="398.7" y1="292.45" x2="383.82" y2="302.87"/>
	<g>
		<path d="M378.88,306.33c1.72-2.49,3.58-5.99,4.27-8.8l1.32,4.88l4.14,2.91C385.73,305.01,381.81,305.56,378.88,306.33z"/>
	</g>
</g>
<line class="st0" x1="473.64" y1="289.18" x2="481.25" y2="299.66"/>
<line class="st0" x1="622.98" y1="289.18" x2="615.38" y2="299.66"/>
<line class="st0" x1="670.32" y1="430.22" x2="659.26" y2="426.63"/>
<line class="st0" x1="426.57" y1="430.22" x2="437.63" y2="426.63"/>
<g>
	<path class="st1" d="M422.61,493.85c-1.17,1.57-2.02,3.65-2.02,6.55c0,2.85,0.88,4.9,2.02,6.5h-1.1c-1.01-1.33-2.1-3.38-2.1-6.5
		c0.02-3.15,1.09-5.2,2.1-6.55H422.61z"/>
	<path class="st1" d="M430.57,499.65c0,3.54-1.31,5.49-3.62,5.49c-2.03,0-3.41-1.9-3.44-5.35c0-3.49,1.5-5.41,3.62-5.41
		C429.32,494.38,430.57,496.33,430.57,499.65z M424.92,499.81c0,2.71,0.83,4.24,2.11,4.24c1.44,0,2.13-1.68,2.13-4.34
		c0-2.56-0.66-4.24-2.11-4.24C425.81,495.47,424.92,496.98,424.92,499.81z"/>
	<path class="st1" d="M431.4,506.93c0.35-0.94,0.78-2.66,0.96-3.83l1.57-0.16c-0.37,1.36-1.07,3.14-1.52,3.89L431.4,506.93z"/>
	<path class="st1" d="M445.48,499.65c0,3.54-1.31,5.49-3.62,5.49c-2.03,0-3.41-1.9-3.44-5.35c0-3.49,1.5-5.41,3.62-5.41
		C444.23,494.38,445.48,496.33,445.48,499.65z M439.83,499.81c0,2.71,0.83,4.24,2.11,4.24c1.44,0,2.13-1.68,2.13-4.34
		c0-2.56-0.66-4.24-2.11-4.24C440.73,495.47,439.83,496.98,439.83,499.81z"/>
	<path class="st1" d="M446.37,506.9c1.14-1.58,2.02-3.67,2.02-6.55c0-2.86-0.86-4.91-2.02-6.5h1.09c1.02,1.31,2.1,3.36,2.1,6.51
		c0,3.14-1.07,5.17-2.1,6.53H446.37z"/>
</g>
<path class="st2" d="M489.39,514.16c0-16.93-17.61-30.64-39.37-30.64"/>
<path class="st2" d="M672.36,514.08c0-14.15-12.36-25.6-27.63-25.6"/>
<path class="st0" d="M672.36,514.08c0-14.15-12.36-25.6-27.63-25.6"/>
<path class="st0" d="M483.18,514.08c0-14.15-14.09-25.6-31.5-25.6"/>
<g>
	<line class="st0" x1="548.18" y1="242.9" x2="550.03" y2="248.61"/>
	<line class="st3" x1="553.71" y1="259.91" x2="632.66" y2="502.9"/>
	<line class="st0" x1="634.49" y1="508.55" x2="636.35" y2="514.26"/>
</g>
<line class="st4" x1="460.01" y1="514.26" x2="548.18" y2="242.9"/>
<g>
	<path d="M549.4,226.88c0.67-0.11,1.55-0.21,2.67-0.21c1.38,0,2.38,0.32,3.03,0.9c0.59,0.51,0.94,1.3,0.94,2.26
		c0,0.98-0.29,1.74-0.83,2.3c-0.74,0.78-1.94,1.18-3.3,1.18c-0.42,0-0.8-0.02-1.12-0.1v4.32h-1.39V226.88z M550.79,232.08
		c0.3,0.08,0.69,0.11,1.15,0.11c1.68,0,2.71-0.82,2.71-2.31c0-1.42-1.01-2.11-2.55-2.11c-0.61,0-1.07,0.05-1.31,0.11V232.08z"/>
	<path d="M564.31,226.43c-1.17,1.57-2.02,3.65-2.02,6.55c0,2.85,0.88,4.9,2.02,6.5h-1.1c-1.01-1.33-2.1-3.38-2.1-6.5
		c0.02-3.15,1.09-5.2,2.1-6.55H564.31z"/>
	<path d="M566.45,229.79l1.1,1.67c0.29,0.43,0.53,0.83,0.78,1.26h0.05c0.26-0.46,0.51-0.86,0.77-1.28l1.09-1.65h1.52l-2.64,3.75
		l2.72,4h-1.6l-1.14-1.75c-0.3-0.45-0.56-0.88-0.83-1.34h-0.03c-0.26,0.46-0.53,0.88-0.82,1.34l-1.12,1.75h-1.55l2.75-3.95
		l-2.62-3.79H566.45z"/>
	<path d="M572.29,239.5c0.35-0.94,0.78-2.66,0.96-3.83l1.57-0.16c-0.37,1.36-1.07,3.14-1.52,3.89L572.29,239.5z"/>
	<path d="M580.42,229.79l1.7,4.58c0.18,0.51,0.37,1.12,0.5,1.58h0.03c0.14-0.46,0.3-1.06,0.5-1.62l1.54-4.55h1.49l-2.11,5.52
		c-1.01,2.66-1.7,4.02-2.66,4.85c-0.69,0.61-1.38,0.85-1.73,0.91l-0.35-1.18c0.35-0.11,0.82-0.34,1.23-0.69
		c0.38-0.3,0.86-0.85,1.18-1.57c0.06-0.14,0.11-0.26,0.11-0.34s-0.03-0.19-0.1-0.37l-2.87-7.14H580.42z"/>
	<path d="M586.6,239.47c1.14-1.58,2.02-3.67,2.02-6.55c0-2.86-0.86-4.91-2.02-6.5h1.09c1.02,1.31,2.1,3.36,2.1,6.51
		c0,3.14-1.07,5.17-2.1,6.53H586.6z"/>
</g>
<line class="st5" x1="547.59" y1="243.32" x2="518.86" y2="201.63"/>
<line class="st5" x1="406.21" y1="346.08" x2="373.4" y2="299.86"/>
<g>
	<path d="M790.79,525.67l1.1,1.67c0.29,0.43,0.53,0.83,0.78,1.26h0.05c0.26-0.46,0.51-0.86,0.77-1.28l1.09-1.65h1.52l-2.64,3.75
		l2.72,4h-1.6l-1.14-1.75c-0.3-0.45-0.56-0.88-0.83-1.34h-0.03c-0.26,0.46-0.53,0.88-0.82,1.34l-1.12,1.75h-1.55l2.75-3.95
		l-2.63-3.79H790.79z"/>
</g>
<g>
	<path d="M313.17,195.73l1.7,4.58c0.18,0.51,0.37,1.12,0.5,1.58h0.03c0.14-0.46,0.3-1.06,0.5-1.62l1.54-4.55h1.49l-2.11,5.52
		c-1.01,2.66-1.7,4.02-2.66,4.85c-0.69,0.61-1.38,0.85-1.73,0.91l-0.35-1.18c0.35-0.11,0.82-0.34,1.23-0.69
		c0.38-0.3,0.86-0.85,1.18-1.57c0.06-0.14,0.11-0.26,0.11-0.34s-0.03-0.19-0.1-0.37l-2.87-7.14H313.17z"/>
</g>
<g>
	<path d="M475.15,483.62c0-2.75,1.29-4.84,3.65-4.84c2.4,0,3.51,1.95,3.51,4.84c0,3.03-1.14,5.01-3.56,5.01
		C476.52,488.63,475.15,486.95,475.15,483.62z M480.95,483.11c-0.02-1.91-0.72-3.46-2.23-3.46c-1.39,0-2.21,1.63-2.21,3.46H480.95z
		 M476.5,484c0,2.4,0.94,3.75,2.28,3.75c1.47,0,2.17-1.56,2.17-3.75H476.5z"/>
</g>
<g>
	<path d="M668.24,481.71c-0.74,0.45-1.64,1.35-1.64,2.81c0,1.35,0.75,2.47,2.27,2.7v-4.13c0-1.46,0.83-2.05,1.78-2.05
		c1.38,0,2.87,1.28,2.87,3.35c0,2.33-1.71,3.55-3.47,3.72v2.64h-1.17v-2.64c-1.74-0.13-3.53-1.18-3.53-3.57
		c0-1.95,1.45-3.13,2.4-3.52L668.24,481.71z M670.05,487.22c1.38-0.18,2.26-1.22,2.26-2.79c0-1.39-0.84-2.48-1.65-2.48
		c-0.36,0-0.61,0.31-0.61,0.95V487.22z"/>
</g>
<g>
	<path d="M467.81,364.6v9.36c0,0.69,0.02,1.47,0.06,2h-1.26l-0.06-1.34h-0.03c-0.43,0.86-1.38,1.52-2.64,1.52
		c-1.87,0-3.31-1.58-3.31-3.94c-0.02-2.58,1.58-4.16,3.47-4.16c1.18,0,1.98,0.56,2.34,1.18h0.03v-4.63H467.81z M466.4,371.37
		c0-0.18-0.02-0.42-0.06-0.59c-0.21-0.9-0.98-1.63-2.03-1.63c-1.46,0-2.32,1.28-2.32,2.99c0,1.57,0.77,2.87,2.29,2.87
		c0.94,0,1.81-0.62,2.06-1.68c0.05-0.19,0.06-0.38,0.06-0.61V371.37z"/>
	<path d="M471.71,366.04c0.02,0.48-0.34,0.86-0.9,0.86c-0.5,0-0.85-0.38-0.85-0.86c0-0.5,0.37-0.88,0.88-0.88
		C471.37,365.16,471.71,365.55,471.71,366.04z M470.14,375.97v-7.75h1.41v7.75H470.14z"/>
	<path d="M478.17,375.97l-0.11-0.98h-0.05c-0.43,0.61-1.26,1.15-2.37,1.15c-1.57,0-2.37-1.1-2.37-2.22c0-1.87,1.67-2.9,4.66-2.88
		v-0.16c0-0.64-0.18-1.79-1.76-1.79c-0.72,0-1.47,0.22-2.02,0.58l-0.32-0.93c0.64-0.42,1.57-0.69,2.54-0.69
		c2.37,0,2.95,1.62,2.95,3.17v2.9c0,0.67,0.03,1.33,0.13,1.86H478.17z M477.96,372.01c-1.54-0.03-3.28,0.24-3.28,1.74
		c0,0.91,0.61,1.34,1.33,1.34c1.01,0,1.65-0.64,1.87-1.3c0.05-0.14,0.08-0.3,0.08-0.45V372.01z"/>
	<path d="M488.27,368.22c-0.03,0.56-0.06,1.18-0.06,2.13v4.5c0,1.78-0.35,2.87-1.1,3.54c-0.75,0.7-1.84,0.93-2.82,0.93
		c-0.93,0-1.95-0.22-2.58-0.64l0.35-1.07c0.51,0.32,1.31,0.61,2.27,0.61c1.44,0,2.5-0.75,2.5-2.71v-0.86h-0.03
		c-0.43,0.72-1.26,1.3-2.46,1.3c-1.92,0-3.3-1.63-3.3-3.78c0-2.62,1.71-4.11,3.49-4.11c1.34,0,2.08,0.7,2.42,1.34h0.03l0.06-1.17
		H488.27z M486.81,371.28c0-0.24-0.02-0.45-0.08-0.64c-0.26-0.82-0.94-1.49-1.97-1.49c-1.34,0-2.31,1.14-2.31,2.93
		c0,1.52,0.77,2.79,2.29,2.79c0.86,0,1.65-0.54,1.95-1.44c0.08-0.24,0.11-0.51,0.11-0.75V371.28z"/>
	<path d="M493.15,366.87h-0.03l-1.81,0.98l-0.27-1.07l2.27-1.22h1.2v10.4h-1.36V366.87z"/>
</g>
<line class="st5" x1="459.89" y1="541.53" x2="460.01" y2="512.76"/>
<line class="st5" x1="636.47" y1="540.85" x2="636.35" y2="514.26"/>
<g>
	<path d="M608.06,364.6v9.36c0,0.69,0.02,1.47,0.06,2h-1.26l-0.06-1.34h-0.03c-0.43,0.86-1.38,1.52-2.64,1.52
		c-1.87,0-3.31-1.58-3.31-3.94c-0.02-2.58,1.58-4.16,3.47-4.16c1.18,0,1.98,0.56,2.34,1.18h0.03v-4.63H608.06z M606.65,371.37
		c0-0.18-0.02-0.42-0.06-0.59c-0.21-0.9-0.98-1.63-2.03-1.63c-1.46,0-2.32,1.28-2.32,2.99c0,1.57,0.77,2.87,2.29,2.87
		c0.94,0,1.81-0.62,2.06-1.68c0.05-0.19,0.06-0.38,0.06-0.61V371.37z"/>
	<path d="M611.96,366.04c0.02,0.48-0.34,0.86-0.9,0.86c-0.5,0-0.85-0.38-0.85-0.86c0-0.5,0.37-0.88,0.88-0.88
		C611.62,365.16,611.96,365.55,611.96,366.04z M610.39,375.97v-7.75h1.41v7.75H610.39z"/>
	<path d="M618.42,375.97l-0.11-0.98h-0.05c-0.43,0.61-1.26,1.15-2.37,1.15c-1.57,0-2.37-1.1-2.37-2.22c0-1.87,1.67-2.9,4.66-2.88
		v-0.16c0-0.64-0.18-1.79-1.76-1.79c-0.72,0-1.47,0.22-2.02,0.58l-0.32-0.93c0.64-0.42,1.57-0.69,2.54-0.69
		c2.37,0,2.95,1.62,2.95,3.17v2.9c0,0.67,0.03,1.33,0.13,1.86H618.42z M618.22,372.01c-1.54-0.03-3.28,0.24-3.28,1.74
		c0,0.91,0.61,1.34,1.33,1.34c1.01,0,1.65-0.64,1.87-1.3c0.05-0.14,0.08-0.3,0.08-0.45V372.01z"/>
	<path d="M628.52,368.22c-0.03,0.56-0.06,1.18-0.06,2.13v4.5c0,1.78-0.35,2.87-1.1,3.54c-0.75,0.7-1.84,0.93-2.82,0.93
		c-0.93,0-1.95-0.22-2.58-0.64l0.35-1.07c0.51,0.32,1.31,0.61,2.27,0.61c1.44,0,2.5-0.75,2.5-2.71v-0.86h-0.03
		c-0.43,0.72-1.26,1.3-2.46,1.3c-1.92,0-3.3-1.63-3.3-3.78c0-2.62,1.71-4.11,3.49-4.11c1.34,0,2.08,0.7,2.42,1.34h0.03l0.06-1.17
		H628.52z M627.06,371.28c0-0.24-0.02-0.45-0.08-0.64c-0.26-0.82-0.94-1.49-1.97-1.49c-1.34,0-2.3,1.14-2.3,2.93
		c0,1.52,0.77,2.79,2.29,2.79c0.86,0,1.65-0.54,1.95-1.44c0.08-0.24,0.11-0.51,0.11-0.75V371.28z"/>
	<path d="M630.34,375.97v-0.86l1.1-1.07c2.66-2.53,3.86-3.87,3.87-5.44c0-1.06-0.51-2.03-2.06-2.03c-0.94,0-1.73,0.48-2.21,0.88
		l-0.45-0.99c0.72-0.61,1.75-1.06,2.95-1.06c2.24,0,3.19,1.54,3.19,3.03c0,1.92-1.39,3.47-3.59,5.59l-0.83,0.77v0.03h4.67v1.17
		H630.34z"/>
</g>
<g>
	<path d="M413.71,434.16l-1.12,3.39h-1.44l3.67-10.79h1.68l3.68,10.79h-1.49l-1.15-3.39H413.71z M417.25,433.08l-1.06-3.11
		c-0.24-0.7-0.4-1.34-0.56-1.97h-0.03c-0.16,0.64-0.34,1.3-0.54,1.95l-1.06,3.12H417.25z"/>
</g>
<g>
	<path d="M634.28,282.52c-0.51,0.26-1.54,0.51-2.85,0.51c-3.04,0-5.33-1.92-5.33-5.46c0-3.38,2.29-5.67,5.63-5.67
		c1.34,0,2.19,0.29,2.56,0.48l-0.34,1.14c-0.53-0.26-1.28-0.45-2.18-0.45c-2.53,0-4.21,1.62-4.21,4.45c0,2.64,1.52,4.34,4.15,4.34
		c0.85,0,1.71-0.18,2.27-0.45L634.28,282.52z"/>
</g>
<g>
	<path d="M463.74,273.26c0.61-0.13,1.57-0.22,2.55-0.22c1.39,0,2.29,0.24,2.96,0.78c0.56,0.42,0.9,1.06,0.9,1.9
		c0,1.04-0.69,1.95-1.82,2.37v0.03c1.02,0.26,2.22,1.1,2.22,2.71c0,0.93-0.37,1.63-0.91,2.16c-0.75,0.69-1.97,1.01-3.73,1.01
		c-0.96,0-1.7-0.06-2.16-0.13V273.26z M465.13,277.68h1.26c1.47,0,2.34-0.77,2.34-1.81c0-1.26-0.96-1.76-2.37-1.76
		c-0.64,0-1.01,0.05-1.23,0.1V277.68z M465.13,282.85c0.27,0.05,0.67,0.06,1.17,0.06c1.44,0,2.77-0.53,2.77-2.1
		c0-1.47-1.26-2.08-2.79-2.08h-1.15V282.85z"/>
</g>
<g>
	<path d="M677.38,426.91c0.85-0.13,1.86-0.22,2.96-0.22c2,0,3.42,0.46,4.37,1.34c0.96,0.88,1.52,2.13,1.52,3.87
		c0,1.76-0.54,3.2-1.55,4.19c-1.01,1.01-2.67,1.55-4.77,1.55c-0.99,0-1.82-0.05-2.53-0.13V426.91z M678.78,436.45
		c0.35,0.06,0.87,0.08,1.41,0.08c2.98,0,4.59-1.67,4.59-4.58c0.02-2.54-1.42-4.16-4.37-4.16c-0.72,0-1.26,0.06-1.63,0.14V436.45z"/>
</g>
<g>
	<line class="st6" x1="327.89" y1="405.88" x2="327.89" y2="351.91"/>
	<g>
		<path class="st7" d="M327.89,345.88c1.05,2.84,2.85,6.36,4.76,8.55l-4.76-1.72l-4.75,1.72
			C325.04,352.24,326.83,348.72,327.89,345.88z"/>
	</g>
</g>
<g>
	<line class="st6" x1="327.89" y1="406.06" x2="381.85" y2="406.04"/>
	<g>
		<path class="st7" d="M387.89,406.04c-2.84,1.05-6.36,2.85-8.55,4.76l1.72-4.76l-1.72-4.75
			C381.52,403.19,385.05,404.99,387.89,406.04z"/>
	</g>
</g>
<g>
	<path class="st8" d="M293.46,384.89c-1.17,1.57-2.02,3.65-2.02,6.55c0,2.85,0.88,4.9,2.02,6.5h-1.1c-1.01-1.33-2.1-3.38-2.1-6.5
		c0.02-3.15,1.09-5.2,2.1-6.55H293.46z"/>
	<path class="st8" d="M301.41,390.69c0,3.54-1.31,5.49-3.62,5.49c-2.03,0-3.41-1.9-3.44-5.35c0-3.49,1.5-5.41,3.62-5.41
		C300.16,385.42,301.41,387.37,301.41,390.69z M295.76,390.85c0,2.71,0.83,4.24,2.11,4.24c1.44,0,2.13-1.68,2.13-4.34
		c0-2.56-0.66-4.24-2.11-4.24C296.66,386.51,295.76,388.01,295.76,390.85z"/>
	<path class="st8" d="M302.24,397.97c0.35-0.94,0.78-2.66,0.96-3.83l1.57-0.16c-0.37,1.36-1.07,3.14-1.52,3.89L302.24,397.97z"/>
	<path class="st8" d="M316.32,390.69c0,3.54-1.31,5.49-3.62,5.49c-2.03,0-3.41-1.9-3.44-5.35c0-3.49,1.5-5.41,3.62-5.41
		C315.08,385.42,316.32,387.37,316.32,390.69z M310.67,390.85c0,2.71,0.83,4.24,2.11,4.24c1.44,0,2.13-1.68,2.13-4.34
		c0-2.56-0.66-4.24-2.11-4.24C311.57,386.51,310.67,388.01,310.67,390.85z"/>
	<path class="st8" d="M317.22,397.94c1.14-1.58,2.02-3.67,2.02-6.55c0-2.87-0.86-4.91-2.02-6.5h1.09c1.02,1.31,2.1,3.36,2.1,6.51
		c0,3.14-1.07,5.17-2.1,6.53H317.22z"/>
</g>
<g>
	<path class="st7" d="M316.19,356.86l1.1,1.67c0.29,0.43,0.53,0.83,0.78,1.26h0.05c0.26-0.46,0.51-0.86,0.77-1.28l1.09-1.65h1.52
		l-2.64,3.75l2.72,4h-1.6l-1.14-1.75c-0.3-0.45-0.56-0.88-0.83-1.34h-0.03c-0.26,0.46-0.53,0.88-0.82,1.34l-1.12,1.75h-1.55
		l2.75-3.95l-2.63-3.79H316.19z"/>
</g>
<g>
	<path class="st7" d="M371.36,413.22l1.9,4.5c0.2,0.5,0.42,1.1,0.57,1.56l0.03,0c0.12-0.47,0.26-1.07,0.42-1.64l1.33-4.61l1.49-0.07
		l-1.86,5.61c-0.89,2.7-1.51,4.09-2.44,4.96c-0.66,0.64-1.34,0.91-1.69,0.99l-0.4-1.17c0.35-0.13,0.8-0.37,1.2-0.74
		c0.37-0.32,0.83-0.89,1.11-1.62c0.06-0.15,0.1-0.26,0.1-0.34c0-0.08-0.04-0.19-0.11-0.36l-3.18-7L371.36,413.22z"/>
</g>
<rect x="648.38" y="207.42" class="st9" width="10" height="10"/>
<rect x="648.38" y="227.54" class="st10" width="10" height="10"/>
<g>
	<path d="M676.27,213.3c0,2.78-1.69,4.26-3.75,4.26c-2.13,0-3.63-1.66-3.63-4.1c0-2.57,1.59-4.25,3.75-4.25
		C674.85,209.21,676.27,210.9,676.27,213.3z M670,213.43c0,1.73,0.94,3.27,2.58,3.27c1.65,0,2.59-1.52,2.59-3.36
		c0-1.61-0.84-3.29-2.58-3.29C670.86,210.06,670,211.65,670,213.43z"/>
	<path d="M677.6,213.51c0-0.74-0.02-1.34-0.05-1.89h0.95l0.05,1h0.02c0.43-0.71,1.12-1.13,2.06-1.13c1.4,0,2.46,1.19,2.46,2.95
		c0,2.09-1.27,3.12-2.64,3.12c-0.77,0-1.44-0.34-1.79-0.91h-0.02v3.15h-1.04V213.51z M678.64,215.06c0,0.16,0.02,0.3,0.05,0.43
		c0.19,0.73,0.83,1.24,1.58,1.24c1.12,0,1.76-0.91,1.76-2.24c0-1.16-0.61-2.16-1.73-2.16c-0.72,0-1.39,0.52-1.59,1.31
		c-0.04,0.13-0.07,0.29-0.07,0.43V215.06z"/>
	<path d="M685.01,214.71c0.02,1.43,0.94,2.02,1.99,2.02c0.75,0,1.21-0.13,1.61-0.3l0.18,0.75c-0.37,0.17-1.01,0.36-1.93,0.36
		c-1.79,0-2.85-1.18-2.85-2.93s1.03-3.13,2.72-3.13c1.9,0,2.4,1.67,2.4,2.73c0,0.22-0.02,0.38-0.04,0.49H685.01z M688.11,213.96
		c0.01-0.67-0.28-1.71-1.46-1.71c-1.07,0-1.54,0.98-1.62,1.71H688.11z"/>
	<path d="M690.43,213.19c0-0.6-0.01-1.09-0.05-1.57h0.94l0.06,0.96h0.02c0.29-0.55,0.96-1.09,1.92-1.09c0.8,0,2.05,0.48,2.05,2.47
		v3.47h-1.06v-3.35c0-0.94-0.35-1.72-1.34-1.72c-0.7,0-1.24,0.49-1.42,1.08c-0.05,0.13-0.07,0.31-0.07,0.49v3.49h-1.06V213.19z"/>
	<path d="M702.78,217.16c-0.38,0.19-1.15,0.38-2.13,0.38c-2.28,0-3.99-1.44-3.99-4.09c0-2.53,1.71-4.25,4.22-4.25
		c1.01,0,1.64,0.22,1.92,0.36l-0.25,0.85c-0.4-0.19-0.96-0.34-1.63-0.34c-1.9,0-3.15,1.21-3.15,3.33c0,1.98,1.14,3.25,3.11,3.25
		c0.64,0,1.28-0.13,1.7-0.34L702.78,217.16z"/>
	<path d="M706.01,217.42l-2.64-8.08h1.13l1.26,3.98c0.35,1.09,0.65,2.07,0.86,3.02h0.02c0.23-0.94,0.56-1.96,0.92-3.01l1.37-3.99
		h1.12l-2.89,8.08H706.01z"/>
	<path d="M719.12,217.16c-0.38,0.19-1.15,0.38-2.13,0.38c-2.28,0-3.99-1.44-3.99-4.09c0-2.53,1.71-4.25,4.22-4.25
		c1.01,0,1.64,0.22,1.92,0.36l-0.25,0.85c-0.4-0.19-0.96-0.34-1.63-0.34c-1.9,0-3.15,1.21-3.15,3.33c0,1.98,1.14,3.25,3.11,3.25
		c0.64,0,1.28-0.13,1.7-0.34L719.12,217.16z"/>
	<path d="M725.52,214.47c0,2.15-1.49,3.08-2.89,3.08c-1.57,0-2.78-1.15-2.78-2.99c0-1.94,1.27-3.08,2.88-3.08
		C724.39,211.49,725.52,212.7,725.52,214.47z M720.91,214.53c0,1.27,0.73,2.23,1.76,2.23c1.01,0,1.76-0.95,1.76-2.25
		c0-0.98-0.49-2.23-1.74-2.23C721.45,212.28,720.91,213.43,720.91,214.53z"/>
	<path d="M732.11,214.47c0,2.15-1.49,3.08-2.89,3.08c-1.57,0-2.78-1.15-2.78-2.99c0-1.94,1.27-3.08,2.88-3.08
		C730.98,211.49,732.11,212.7,732.11,214.47z M727.5,214.53c0,1.27,0.73,2.23,1.76,2.23c1.01,0,1.76-0.95,1.76-2.25
		c0-0.98-0.49-2.23-1.74-2.23C728.04,212.28,727.5,213.43,727.5,214.53z"/>
	<path d="M733.44,213.43c0-0.68-0.01-1.27-0.05-1.81h0.92l0.04,1.14h0.05c0.26-0.78,0.9-1.27,1.61-1.27c0.12,0,0.2,0.01,0.3,0.04v1
		c-0.11-0.02-0.22-0.04-0.36-0.04c-0.74,0-1.27,0.56-1.42,1.36c-0.02,0.14-0.05,0.31-0.05,0.49v3.09h-1.04V213.43z"/>
	<path d="M742.26,208.91v7.02c0,0.52,0.01,1.1,0.05,1.5h-0.95l-0.05-1.01h-0.02c-0.32,0.65-1.03,1.14-1.98,1.14
		c-1.4,0-2.48-1.19-2.48-2.95c-0.01-1.93,1.19-3.12,2.6-3.12c0.89,0,1.49,0.42,1.75,0.89h0.02v-3.47H742.26z M741.2,213.98
		c0-0.13-0.01-0.31-0.05-0.44c-0.16-0.67-0.73-1.22-1.52-1.22c-1.09,0-1.74,0.96-1.74,2.24c0,1.17,0.58,2.15,1.72,2.15
		c0.71,0,1.35-0.47,1.55-1.26c0.04-0.14,0.05-0.29,0.05-0.46V213.98z"/>
	<path d="M745.19,209.99c0.01,0.36-0.25,0.65-0.67,0.65c-0.37,0-0.64-0.29-0.64-0.65c0-0.37,0.28-0.66,0.66-0.66
		C744.94,209.33,745.19,209.61,745.19,209.99z M744.02,217.42v-5.8h1.06v5.8H744.02z"/>
	<path d="M746.82,213.19c0-0.6-0.01-1.09-0.05-1.57h0.94l0.06,0.96h0.02c0.29-0.55,0.96-1.09,1.92-1.09c0.8,0,2.05,0.48,2.05,2.47
		v3.47h-1.06v-3.35c0-0.94-0.35-1.72-1.34-1.72c-0.7,0-1.24,0.49-1.42,1.08c-0.05,0.13-0.07,0.31-0.07,0.49v3.49h-1.06V213.19z"/>
	<path d="M756.7,217.42l-0.08-0.73h-0.04c-0.32,0.46-0.95,0.86-1.77,0.86c-1.18,0-1.78-0.83-1.78-1.67c0-1.4,1.25-2.17,3.49-2.16
		v-0.12c0-0.48-0.13-1.34-1.32-1.34c-0.54,0-1.1,0.17-1.51,0.43l-0.24-0.7c0.48-0.31,1.18-0.52,1.91-0.52
		c1.77,0,2.21,1.21,2.21,2.37v2.17c0,0.5,0.02,1,0.1,1.39H756.7z M756.54,214.46c-1.15-0.02-2.46,0.18-2.46,1.31
		c0,0.68,0.46,1.01,1,1.01c0.76,0,1.24-0.48,1.4-0.97c0.04-0.11,0.06-0.23,0.06-0.34V214.46z"/>
	<path d="M760.49,209.95v1.67H762v0.8h-1.51v3.13c0,0.72,0.2,1.13,0.79,1.13c0.28,0,0.48-0.04,0.61-0.07l0.05,0.79
		c-0.2,0.08-0.53,0.14-0.94,0.14c-0.49,0-0.89-0.16-1.14-0.44c-0.3-0.31-0.41-0.83-0.41-1.51v-3.17h-0.9v-0.8h0.9v-1.39
		L760.49,209.95z"/>
	<path d="M763.71,214.71c0.02,1.43,0.94,2.02,1.99,2.02c0.75,0,1.21-0.13,1.61-0.3l0.18,0.75c-0.37,0.17-1.01,0.36-1.93,0.36
		c-1.79,0-2.85-1.18-2.85-2.93s1.03-3.13,2.72-3.13c1.9,0,2.4,1.67,2.4,2.73c0,0.22-0.02,0.38-0.04,0.49H763.71z M766.8,213.96
		c0.01-0.67-0.28-1.71-1.46-1.71c-1.07,0-1.54,0.98-1.62,1.71H766.8z"/>
	<path d="M771.71,209.34h4.35v0.88h-3.31v2.69h3.06v0.86h-3.06v3.66h-1.04V209.34z"/>
	<path d="M777.21,213.43c0-0.68-0.01-1.27-0.05-1.81h0.92l0.04,1.14h0.05c0.26-0.78,0.9-1.27,1.61-1.27c0.12,0,0.2,0.01,0.3,0.04v1
		c-0.11-0.02-0.22-0.04-0.36-0.04c-0.74,0-1.27,0.56-1.42,1.36c-0.02,0.14-0.05,0.31-0.05,0.49v3.09h-1.04V213.43z"/>
	<path d="M784.28,217.42l-0.08-0.73h-0.04c-0.32,0.46-0.95,0.86-1.77,0.86c-1.18,0-1.78-0.83-1.78-1.67c0-1.4,1.25-2.17,3.49-2.16
		v-0.12c0-0.48-0.13-1.34-1.32-1.34c-0.54,0-1.1,0.17-1.51,0.43l-0.24-0.7c0.48-0.31,1.18-0.52,1.91-0.52
		c1.77,0,2.21,1.21,2.21,2.37v2.17c0,0.5,0.02,1,0.1,1.39H784.28z M784.13,214.46c-1.15-0.02-2.46,0.18-2.46,1.31
		c0,0.68,0.46,1.01,1,1.01c0.76,0,1.24-0.48,1.4-0.97c0.04-0.11,0.06-0.23,0.06-0.34V214.46z"/>
	<path d="M786.85,213.19c0-0.6-0.01-1.09-0.05-1.57h0.92l0.05,0.94h0.04c0.32-0.55,0.86-1.07,1.82-1.07c0.79,0,1.39,0.48,1.64,1.16
		h0.02c0.18-0.32,0.41-0.58,0.65-0.76c0.35-0.26,0.73-0.41,1.28-0.41c0.77,0,1.91,0.5,1.91,2.52v3.42h-1.03v-3.29
		c0-1.12-0.41-1.79-1.26-1.79c-0.6,0-1.07,0.44-1.25,0.96c-0.05,0.14-0.08,0.33-0.08,0.53v3.59h-1.03v-3.48
		c0-0.92-0.41-1.59-1.21-1.59c-0.66,0-1.14,0.53-1.31,1.06c-0.06,0.16-0.08,0.34-0.08,0.52v3.5h-1.03V213.19z"/>
	<path d="M797.45,214.71c0.02,1.43,0.94,2.02,1.99,2.02c0.76,0,1.21-0.13,1.61-0.3l0.18,0.75c-0.37,0.17-1.01,0.36-1.93,0.36
		c-1.79,0-2.85-1.18-2.85-2.93s1.03-3.13,2.72-3.13c1.89,0,2.4,1.67,2.4,2.73c0,0.22-0.02,0.38-0.04,0.49H797.45z M800.54,213.96
		c0.01-0.67-0.28-1.71-1.46-1.71c-1.07,0-1.54,0.98-1.62,1.71H800.54z"/>
</g>
<g>
	<path d="M670.84,229.45v8.08h-1.04v-8.08H670.84z"/>
	<path d="M672.75,233.3c0-0.6-0.01-1.09-0.05-1.57h0.94l0.06,0.96h0.02c0.29-0.55,0.96-1.09,1.92-1.09c0.8,0,2.05,0.48,2.05,2.47
		v3.47h-1.05v-3.35c0-0.94-0.35-1.71-1.34-1.71c-0.7,0-1.24,0.49-1.42,1.08c-0.05,0.13-0.07,0.31-0.07,0.49v3.49h-1.05V233.3z"/>
	<path d="M679.66,231.73l1.14,3.26c0.19,0.53,0.35,1.01,0.47,1.49h0.04c0.13-0.48,0.3-0.96,0.49-1.49l1.13-3.26h1.1l-2.28,5.8h-1.01
		l-2.21-5.8H679.66z"/>
	<path d="M685.49,234.82c0.02,1.43,0.94,2.01,1.99,2.01c0.76,0,1.21-0.13,1.61-0.3l0.18,0.76c-0.37,0.17-1.01,0.36-1.93,0.36
		c-1.79,0-2.85-1.18-2.85-2.93s1.03-3.13,2.72-3.13c1.89,0,2.4,1.67,2.4,2.73c0,0.22-0.02,0.38-0.04,0.49H685.49z M688.59,234.07
		c0.01-0.67-0.28-1.71-1.46-1.71c-1.07,0-1.54,0.98-1.62,1.71H688.59z"/>
	<path d="M690.92,233.54c0-0.68-0.01-1.27-0.05-1.81h0.92l0.04,1.14h0.05c0.26-0.78,0.9-1.27,1.61-1.27c0.12,0,0.2,0.01,0.3,0.04v1
		c-0.11-0.02-0.22-0.04-0.36-0.04c-0.74,0-1.27,0.56-1.42,1.36c-0.02,0.14-0.05,0.31-0.05,0.49v3.09h-1.04V233.54z"/>
	<path d="M694.7,236.46c0.31,0.2,0.86,0.42,1.39,0.42c0.77,0,1.13-0.38,1.13-0.86c0-0.5-0.3-0.78-1.08-1.07
		c-1.04-0.37-1.54-0.95-1.54-1.64c0-0.94,0.76-1.7,2-1.7c0.59,0,1.1,0.17,1.43,0.36l-0.26,0.77c-0.23-0.14-0.65-0.34-1.19-0.34
		c-0.62,0-0.97,0.36-0.97,0.79c0,0.48,0.35,0.7,1.1,0.98c1.01,0.38,1.52,0.89,1.52,1.75c0,1.02-0.79,1.74-2.17,1.74
		c-0.64,0-1.22-0.16-1.63-0.4L694.7,236.46z"/>
	<path d="M700.18,234.82c0.02,1.43,0.94,2.01,1.99,2.01c0.76,0,1.21-0.13,1.61-0.3l0.18,0.76c-0.37,0.17-1.01,0.36-1.93,0.36
		c-1.79,0-2.85-1.18-2.85-2.93s1.03-3.13,2.72-3.13c1.89,0,2.4,1.67,2.4,2.73c0,0.22-0.02,0.38-0.04,0.49H700.18z M703.27,234.07
		c0.01-0.67-0.28-1.71-1.46-1.71c-1.07,0-1.54,0.98-1.62,1.71H703.27z"/>
	<path d="M708.18,229.45h1.04v3.9h0.04c0.22-0.31,0.43-0.6,0.64-0.86l2.47-3.03h1.29l-2.93,3.43l3.15,4.65h-1.24l-2.66-3.97
		l-0.77,0.89v3.08h-1.04V229.45z"/>
	<path d="M715.95,230.1c0.01,0.36-0.25,0.65-0.67,0.65c-0.37,0-0.64-0.29-0.64-0.65c0-0.37,0.28-0.66,0.66-0.66
		C715.69,229.44,715.95,229.73,715.95,230.1z M714.77,237.54v-5.8h1.05v5.8H714.77z"/>
	<path d="M717.58,233.3c0-0.6-0.01-1.09-0.05-1.57h0.94l0.06,0.96h0.02c0.29-0.55,0.96-1.09,1.92-1.09c0.8,0,2.05,0.48,2.05,2.47
		v3.47h-1.05v-3.35c0-0.94-0.35-1.71-1.34-1.71c-0.7,0-1.24,0.49-1.42,1.08c-0.05,0.13-0.07,0.31-0.07,0.49v3.49h-1.05V233.3z"/>
	<path d="M724.83,234.82c0.02,1.43,0.94,2.01,1.99,2.01c0.76,0,1.21-0.13,1.61-0.3l0.18,0.76c-0.37,0.17-1.01,0.36-1.93,0.36
		c-1.79,0-2.85-1.18-2.85-2.93s1.03-3.13,2.72-3.13c1.89,0,2.4,1.67,2.4,2.73c0,0.22-0.02,0.38-0.04,0.49H724.83z M727.92,234.07
		c0.01-0.67-0.28-1.71-1.46-1.71c-1.07,0-1.54,0.98-1.62,1.71H727.92z"/>
	<path d="M730.25,233.3c0-0.6-0.01-1.09-0.05-1.57h0.92l0.05,0.94h0.04c0.32-0.55,0.86-1.07,1.82-1.07c0.79,0,1.39,0.48,1.64,1.16
		h0.02c0.18-0.32,0.41-0.58,0.65-0.76c0.35-0.26,0.73-0.41,1.28-0.41c0.77,0,1.91,0.5,1.91,2.52v3.42h-1.03v-3.29
		c0-1.12-0.41-1.79-1.26-1.79c-0.6,0-1.07,0.44-1.25,0.96c-0.05,0.14-0.08,0.34-0.08,0.53v3.59h-1.03v-3.48
		c0-0.92-0.41-1.6-1.21-1.6c-0.66,0-1.14,0.53-1.31,1.06c-0.06,0.16-0.08,0.34-0.08,0.52v3.5h-1.03V233.3z"/>
	<path d="M743.47,237.54l-0.08-0.73h-0.04c-0.32,0.46-0.95,0.86-1.78,0.86c-1.17,0-1.77-0.83-1.77-1.67c0-1.4,1.25-2.17,3.49-2.16
		v-0.12c0-0.48-0.13-1.34-1.32-1.34c-0.54,0-1.1,0.17-1.51,0.43l-0.24-0.7c0.48-0.31,1.17-0.52,1.91-0.52
		c1.78,0,2.21,1.21,2.21,2.37v2.17c0,0.5,0.02,1,0.1,1.39H743.47z M743.32,234.57c-1.15-0.02-2.46,0.18-2.46,1.31
		c0,0.68,0.46,1.01,1,1.01c0.76,0,1.24-0.48,1.4-0.97c0.04-0.11,0.06-0.23,0.06-0.34V234.57z"/>
	<path d="M747.27,230.06v1.67h1.51v0.8h-1.51v3.13c0,0.72,0.2,1.13,0.79,1.13c0.28,0,0.48-0.04,0.61-0.07l0.05,0.79
		c-0.2,0.08-0.53,0.14-0.94,0.14c-0.49,0-0.89-0.16-1.14-0.44c-0.3-0.31-0.41-0.83-0.41-1.51v-3.17h-0.9v-0.8h0.9v-1.39
		L747.27,230.06z"/>
	<path d="M751.14,230.1c0.01,0.36-0.25,0.65-0.67,0.65c-0.37,0-0.64-0.29-0.64-0.65c0-0.37,0.28-0.66,0.66-0.66
		C750.89,229.44,751.14,229.73,751.14,230.1z M749.97,237.54v-5.8h1.05v5.8H749.97z"/>
	<path d="M756.91,237.32c-0.28,0.14-0.89,0.34-1.67,0.34c-1.75,0-2.89-1.19-2.89-2.96c0-1.79,1.22-3.08,3.12-3.08
		c0.62,0,1.17,0.16,1.46,0.3l-0.24,0.82c-0.25-0.14-0.65-0.28-1.22-0.28c-1.33,0-2.05,0.98-2.05,2.19c0,1.34,0.86,2.17,2.01,2.17
		c0.6,0,1-0.16,1.29-0.29L756.91,237.32z"/>
	<path d="M758.01,236.46c0.31,0.2,0.86,0.42,1.39,0.42c0.77,0,1.13-0.38,1.13-0.86c0-0.5-0.3-0.78-1.08-1.07
		c-1.04-0.37-1.54-0.95-1.54-1.64c0-0.94,0.76-1.7,2-1.7c0.59,0,1.1,0.17,1.43,0.36l-0.26,0.77c-0.23-0.14-0.65-0.34-1.19-0.34
		c-0.62,0-0.97,0.36-0.97,0.79c0,0.48,0.35,0.7,1.1,0.98c1.01,0.38,1.52,0.89,1.52,1.75c0,1.02-0.79,1.74-2.17,1.74
		c-0.64,0-1.22-0.16-1.63-0.4L758.01,236.46z"/>
	<path d="M675.44,251.67c-0.38,0.19-1.15,0.38-2.13,0.38c-2.28,0-3.99-1.44-3.99-4.09c0-2.53,1.71-4.25,4.22-4.25
		c1.01,0,1.64,0.22,1.92,0.36l-0.25,0.85c-0.4-0.19-0.96-0.34-1.63-0.34c-1.89,0-3.15,1.21-3.15,3.33c0,1.98,1.14,3.25,3.11,3.25
		c0.64,0,1.28-0.13,1.7-0.34L675.44,251.67z"/>
	<path d="M681.84,248.98c0,2.15-1.49,3.08-2.89,3.08c-1.57,0-2.78-1.15-2.78-2.99c0-1.94,1.27-3.08,2.88-3.08
		C680.71,246,681.84,247.21,681.84,248.98z M677.24,249.04c0,1.27,0.73,2.23,1.76,2.23c1.01,0,1.76-0.95,1.76-2.25
		c0-0.98-0.49-2.23-1.74-2.23C677.77,246.79,677.24,247.94,677.24,249.04z"/>
	<path d="M688.43,248.98c0,2.15-1.49,3.08-2.89,3.08c-1.57,0-2.78-1.15-2.78-2.99c0-1.94,1.27-3.08,2.88-3.08
		C687.3,246,688.43,247.21,688.43,248.98z M683.82,249.04c0,1.27,0.73,2.23,1.76,2.23c1.01,0,1.76-0.95,1.76-2.25
		c0-0.98-0.49-2.23-1.74-2.23C684.36,246.79,683.82,247.94,683.82,249.04z"/>
	<path d="M689.76,247.94c0-0.68-0.01-1.27-0.05-1.81h0.92l0.04,1.14h0.05c0.26-0.78,0.9-1.27,1.61-1.27c0.12,0,0.2,0.01,0.3,0.04v1
		c-0.11-0.02-0.22-0.04-0.36-0.04c-0.74,0-1.27,0.56-1.42,1.36c-0.02,0.14-0.05,0.31-0.05,0.49v3.09h-1.04V247.94z"/>
	<path d="M698.58,243.42v7.02c0,0.52,0.01,1.1,0.05,1.5h-0.95l-0.05-1.01h-0.02c-0.32,0.65-1.03,1.14-1.98,1.14
		c-1.4,0-2.48-1.19-2.48-2.95c-0.01-1.93,1.19-3.12,2.6-3.12c0.89,0,1.49,0.42,1.75,0.89h0.02v-3.47H698.58z M697.52,248.49
		c0-0.13-0.01-0.31-0.05-0.44c-0.16-0.67-0.73-1.22-1.52-1.22c-1.09,0-1.74,0.96-1.74,2.24c0,1.18,0.58,2.15,1.71,2.15
		c0.71,0,1.36-0.47,1.55-1.26c0.04-0.14,0.05-0.29,0.05-0.46V248.49z"/>
	<path d="M701.51,244.5c0.01,0.36-0.25,0.65-0.67,0.65c-0.37,0-0.64-0.29-0.64-0.65c0-0.37,0.28-0.66,0.66-0.66
		C701.26,243.84,701.51,244.13,701.51,244.5z M700.34,251.94v-5.8h1.05v5.8H700.34z"/>
	<path d="M703.14,247.7c0-0.6-0.01-1.09-0.05-1.57h0.94l0.06,0.96h0.02c0.29-0.55,0.96-1.09,1.92-1.09c0.8,0,2.05,0.48,2.05,2.47
		v3.47h-1.05v-3.35c0-0.94-0.35-1.71-1.34-1.71c-0.7,0-1.24,0.49-1.42,1.08c-0.05,0.13-0.07,0.31-0.07,0.49v3.49h-1.05V247.7z"/>
	<path d="M713.02,251.94l-0.08-0.73h-0.04c-0.32,0.46-0.95,0.86-1.78,0.86c-1.17,0-1.77-0.83-1.77-1.67c0-1.4,1.25-2.17,3.49-2.16
		v-0.12c0-0.48-0.13-1.34-1.32-1.34c-0.54,0-1.1,0.17-1.51,0.43l-0.24-0.7c0.48-0.31,1.17-0.52,1.91-0.52
		c1.78,0,2.21,1.21,2.21,2.37v2.17c0,0.5,0.02,1,0.1,1.39H713.02z M712.86,248.97c-1.15-0.02-2.46,0.18-2.46,1.31
		c0,0.68,0.46,1.01,1,1.01c0.76,0,1.24-0.48,1.4-0.97c0.04-0.11,0.06-0.23,0.06-0.34V248.97z"/>
	<path d="M716.81,244.46v1.67h1.51v0.8h-1.51v3.13c0,0.72,0.2,1.13,0.79,1.13c0.28,0,0.48-0.04,0.61-0.07l0.05,0.79
		c-0.2,0.08-0.53,0.14-0.94,0.14c-0.49,0-0.89-0.16-1.14-0.44c-0.3-0.31-0.41-0.83-0.41-1.51v-3.17h-0.9v-0.8h0.9v-1.39
		L716.81,244.46z"/>
	<path d="M720.03,249.22c0.02,1.43,0.94,2.01,1.99,2.01c0.76,0,1.21-0.13,1.61-0.3l0.18,0.76c-0.37,0.17-1.01,0.36-1.93,0.36
		c-1.79,0-2.85-1.18-2.85-2.93c0-1.75,1.03-3.13,2.72-3.13c1.89,0,2.4,1.67,2.4,2.73c0,0.22-0.02,0.38-0.04,0.49H720.03z
		 M723.12,248.47c0.01-0.67-0.28-1.71-1.46-1.71c-1.07,0-1.54,0.98-1.62,1.71H723.12z"/>
	<path d="M728.03,243.85h4.35v0.88h-3.31v2.69h3.06v0.86h-3.06v3.66h-1.04V243.85z"/>
	<path d="M733.53,247.94c0-0.68-0.01-1.27-0.05-1.81h0.92l0.04,1.14h0.05c0.26-0.78,0.9-1.27,1.61-1.27c0.12,0,0.2,0.01,0.3,0.04v1
		c-0.11-0.02-0.22-0.04-0.36-0.04c-0.74,0-1.27,0.56-1.42,1.36c-0.02,0.14-0.05,0.31-0.05,0.49v3.09h-1.04V247.94z"/>
	<path d="M740.61,251.94l-0.08-0.73h-0.04c-0.32,0.46-0.95,0.86-1.78,0.86c-1.17,0-1.77-0.83-1.77-1.67c0-1.4,1.25-2.17,3.49-2.16
		v-0.12c0-0.48-0.13-1.34-1.32-1.34c-0.54,0-1.1,0.17-1.51,0.43l-0.24-0.7c0.48-0.31,1.17-0.52,1.91-0.52
		c1.78,0,2.21,1.21,2.21,2.37v2.17c0,0.5,0.02,1,0.1,1.39H740.61z M740.45,248.97c-1.15-0.02-2.46,0.18-2.46,1.31
		c0,0.68,0.46,1.01,1,1.01c0.76,0,1.24-0.48,1.4-0.97c0.04-0.11,0.06-0.23,0.06-0.34V248.97z"/>
	<path d="M743.18,247.7c0-0.6-0.01-1.09-0.05-1.57h0.92l0.05,0.94h0.04c0.32-0.55,0.86-1.07,1.82-1.07c0.79,0,1.39,0.48,1.64,1.16
		h0.02c0.18-0.32,0.41-0.58,0.65-0.76c0.35-0.26,0.73-0.41,1.28-0.41c0.77,0,1.91,0.5,1.91,2.52v3.42h-1.03v-3.29
		c0-1.12-0.41-1.79-1.26-1.79c-0.6,0-1.07,0.44-1.25,0.96c-0.05,0.14-0.08,0.34-0.08,0.53v3.59h-1.03v-3.48
		c0-0.92-0.41-1.6-1.21-1.6c-0.66,0-1.14,0.53-1.31,1.06c-0.06,0.16-0.08,0.34-0.08,0.52v3.5h-1.03V247.7z"/>
	<path d="M753.77,249.22c0.02,1.43,0.94,2.01,1.99,2.01c0.76,0,1.21-0.13,1.61-0.3l0.18,0.76c-0.37,0.17-1.01,0.36-1.93,0.36
		c-1.79,0-2.85-1.18-2.85-2.93c0-1.75,1.03-3.13,2.72-3.13c1.89,0,2.4,1.67,2.4,2.73c0,0.22-0.02,0.38-0.04,0.49H753.77z
		 M756.87,248.47c0.01-0.67-0.28-1.71-1.46-1.71c-1.07,0-1.54,0.98-1.62,1.71H756.87z"/>
</g>
<g>
	<line class="st7" x1="327.84" y1="540.69" x2="327.96" y2="512.43"/>
	<line class="st5" x1="327.84" y1="540.69" x2="327.96" y2="512.43"/>
</g>
<g>
	<path class="st7" d="M366.16,539.53v-4.58l-2.97-6.21h1.38l1.32,2.98c0.36,0.82,0.64,1.47,0.93,2.23h0.03
		c0.26-0.71,0.58-1.41,0.95-2.23l1.35-2.98h1.38l-3.15,6.19v4.59H366.16z"/>
	<path class="st7" d="M377.51,540.73v0.8h-6.97v-0.8H377.51z"/>
	<path class="st7" d="M386.59,534.03c0,3.71-1.96,5.68-4.36,5.68c-2.48,0-4.22-2.21-4.22-5.47c0-3.43,1.85-5.67,4.36-5.67
		C384.94,528.57,386.59,530.83,386.59,534.03z M379.31,534.2c0,2.3,1.09,4.37,3,4.37c1.92,0,3.01-2.03,3.01-4.48
		c0-2.14-0.98-4.39-3-4.39C380.31,529.71,379.31,531.83,379.31,534.2z"/>
	<path class="st7" d="M388.17,528.75h5.06v1.17h-3.84v3.59h3.55v1.15h-3.55v4.88h-1.21V528.75z"/>
	<path class="st7" d="M394.95,528.75h5.06v1.17h-3.84v3.59h3.55v1.15h-3.55v4.88h-1.21V528.75z"/>
	<path class="st7" d="M401.56,537.84c0.54,0.38,1.34,0.7,2.17,0.7c1.24,0,1.96-0.75,1.96-1.84c0-1.01-0.5-1.58-1.77-2.14
		c-1.53-0.62-2.48-1.54-2.48-3.06c0-1.68,1.21-2.93,3.04-2.93c0.96,0,1.66,0.26,2.08,0.53l-0.33,1.14
		c-0.31-0.19-0.93-0.51-1.78-0.51c-1.28,0-1.77,0.88-1.77,1.62c0,1.01,0.57,1.5,1.87,2.08c1.59,0.7,2.4,1.58,2.4,3.17
		c0,1.67-1.07,3.11-3.29,3.11c-0.91,0-1.9-0.3-2.4-0.69L401.56,537.84z"/>
	<path class="st7" d="M413.46,534.48h-3.65v3.89h4.07v1.17h-5.28v-10.79h5.07v1.17h-3.86v3.41h3.65V534.48z"/>
	<path class="st7" d="M417.46,529.93h-2.86v-1.18h6.95v1.18h-2.87v9.6h-1.23V529.93z"/>
</g>
<g>
	<line class="st7" x1="431.64" y1="534.82" x2="459.13" y2="534.82"/>
	<g>
		<line class="st0" x1="431.64" y1="534.82" x2="453.1" y2="534.82"/>
		<g>
			<path d="M459.13,534.82c-2.84,1.05-6.36,2.85-8.55,4.76l1.72-4.76l-1.72-4.75C452.77,531.97,456.29,533.77,459.13,534.82z"/>
		</g>
	</g>
</g>
<g>
	<line class="st7" x1="353.88" y1="534.82" x2="327.35" y2="534.82"/>
	<g>
		<line class="st0" x1="353.88" y1="534.82" x2="333.39" y2="534.82"/>
		<g>
			<path d="M327.35,534.82c2.84-1.05,6.36-2.85,8.55-4.76l-1.72,4.76l1.72,4.75C333.72,537.67,330.19,535.88,327.35,534.82z"/>
		</g>
	</g>
</g>
<line class="st5" x1="305.38" y1="514.27" x2="326.31" y2="514.36"/>
<line class="st5" x1="305.38" y1="406.03" x2="326.31" y2="406.11"/>
<g>
	<path class="st7" d="M316.3,481.78l-2.38,1.2c-0.91,0.49-1.5,0.79-2.13,1.09v0.03c0.62,0.26,1.2,0.53,2.14,1.02l2.37,1.13v1.39
		l-5.46-2.87l-5.33,2.76v-1.41l2.53-1.24c0.71-0.35,1.25-0.61,1.83-0.86v-0.04c-0.64-0.27-1.14-0.5-1.83-0.85l-2.53-1.28v-1.39
		l5.25,2.86l5.54-2.93V481.78z"/>
	<path class="st7" d="M317.5,473.06h0.8v6.96h-0.8V473.06z"/>
	<path class="st7" d="M310.79,463.97c3.71,0,5.68,1.96,5.68,4.36c0,2.48-2.21,4.22-5.47,4.22c-3.43,0-5.67-1.85-5.67-4.36
		C305.33,465.63,307.59,463.97,310.79,463.97z M310.97,471.26c2.3,0,4.37-1.09,4.37-3c0-1.92-2.03-3.01-4.48-3.01
		c-2.14,0-4.39,0.98-4.39,3C306.47,470.26,308.6,471.26,310.97,471.26z"/>
	<path class="st7" d="M305.51,462.4v-5.06h1.17v3.85h3.59v-3.55h1.15v3.55h4.88v1.21H305.51z"/>
	<path class="st7" d="M305.51,455.62v-5.06h1.17v3.84h3.59v-3.55h1.15v3.55h4.88v1.21H305.51z"/>
	<path class="st7" d="M314.6,449c0.38-0.54,0.7-1.34,0.7-2.17c0-1.24-0.75-1.96-1.84-1.96c-1.01,0-1.58,0.5-2.14,1.77
		c-0.62,1.53-1.54,2.48-3.06,2.48c-1.68,0-2.93-1.21-2.93-3.04c0-0.96,0.26-1.66,0.53-2.08l1.14,0.33
		c-0.19,0.31-0.51,0.93-0.51,1.78c0,1.28,0.88,1.77,1.62,1.77c1.01,0,1.5-0.57,2.08-1.87c0.7-1.59,1.58-2.4,3.17-2.4
		c1.67,0,3.11,1.07,3.11,3.29c0,0.91-0.3,1.9-0.69,2.4L314.6,449z"/>
	<path class="st7" d="M311.24,437.11v3.65h3.89v-4.07h1.17v5.28h-10.79v-5.07h1.17v3.86h3.41v-3.65H311.24z"/>
	<path class="st7" d="M306.69,433.11v2.86h-1.18v-6.95h1.18v2.87h9.6v1.23H306.69z"/>
</g>
<g>
	<line class="st0" x1="312.7" y1="424.16" x2="312.7" y2="413.34"/>
	<g>
		<path d="M312.7,407.31c1.05,2.84,2.85,6.36,4.76,8.55l-4.76-1.72l-4.75,1.72C309.85,413.67,311.64,410.15,312.7,407.31z"/>
	</g>
</g>
<g>
	<line class="st0" x1="312.7" y1="495.61" x2="312.7" y2="508.28"/>
	<g>
		<path d="M312.7,514.32c-1.05-2.84-2.85-6.36-4.76-8.55l4.76,1.72l4.75-1.72C315.55,507.95,313.75,511.48,312.7,514.32z"/>
	</g>
</g>
</svg>
