<?xml version="1.0" encoding="utf-8"?>
<!-- Generator: Adobe Illustrator 27.2.0, SVG Export Plug-In . SVG Version: 6.00 Build 0)  -->
<svg version="1.1" id="Layer_1" xmlns="http://www.w3.org/2000/svg" xmlns:xlink="http://www.w3.org/1999/xlink" x="0px" y="0px"
	 viewBox="0 0 538.74 378.03" style="enable-background:new 0 0 538.74 378.03;" xml:space="preserve">
<style type="text/css">
	.st0{fill:none;stroke:#000000;stroke-miterlimit:10;}
	.st1{stroke:#000000;stroke-width:0.3;stroke-miterlimit:10;}
	.st2{fill:none;}
	.st3{fill:none;stroke:#000000;stroke-miterlimit:10;stroke-dasharray:11.8833,11.8833;}
	.st4{fill:none;stroke:#000000;stroke-miterlimit:10;stroke-dasharray:12;}
	.st5{fill:none;stroke:#000000;stroke-width:0.25;stroke-miterlimit:10;stroke-dasharray:2;}
	.st6{fill:none;stroke:#ED1C24;stroke-miterlimit:10;}
	.st7{fill:#ED1C24;}
	.st8{fill:#ED1C24;stroke:#ED1C24;stroke-width:0.3;stroke-miterlimit:10;}
	.st9{fill:#ED1C24;stroke:#ED1C24;stroke-miterlimit:10;}
	.st10{stroke:#000000;stroke-miterlimit:10;}
</style>
<g>
	<line class="st0" x1="37.63" y1="338.17" x2="37.63" y2="10.02"/>
	<g>
		<path d="M37.63,3.99c1.05,2.84,2.85,6.36,4.76,8.55l-4.76-1.72l-4.75,1.72C34.78,10.35,36.57,6.82,37.63,3.99z"/>
	</g>
</g>
<g>
	<line class="st0" x1="37.73" y1="338.28" x2="523.61" y2="338.03"/>
	<g>
		<path d="M529.64,338.03c-2.84,1.06-6.36,2.85-8.54,4.76l1.72-4.76l-1.72-4.75C523.28,335.17,526.8,336.98,529.64,338.03z"/>
	</g>
</g>
<polygon class="st0" points="257.92,66.91 115.26,170.56 169.75,338.28 346.09,338.28 400.58,170.56 "/>
<g>
	<path d="M204.14,354.07c0.74-0.13,1.62-0.22,2.58-0.22c1.74,0,2.98,0.46,3.8,1.34c0.84,0.88,1.32,2.13,1.32,3.87
		c0,1.76-0.47,3.2-1.35,4.19c-0.88,1.01-2.33,1.55-4.15,1.55c-0.86,0-1.59-0.05-2.2-0.13L204.14,354.07L204.14,354.07z
		 M205.35,363.61c0.31,0.06,0.75,0.08,1.23,0.08c2.59,0,4-1.67,4-4.58c0.01-2.54-1.24-4.16-3.8-4.16c-0.63,0-1.1,0.06-1.42,0.14
		v8.52H205.35z"/>
	<path d="M214.63,353.92v10.79h-1.21v-10.79H214.63z"/>
	<path d="M216.58,363.02c0.54,0.38,1.34,0.7,2.17,0.7c1.24,0,1.96-0.75,1.96-1.84c0-1.01-0.5-1.58-1.77-2.14
		c-1.53-0.62-2.48-1.54-2.48-3.06c0-1.68,1.21-2.93,3.04-2.93c0.96,0,1.66,0.26,2.08,0.53l-0.33,1.14
		c-0.31-0.19-0.93-0.51-1.78-0.51c-1.28,0-1.77,0.88-1.77,1.62c0,1.01,0.57,1.5,1.87,2.08c1.59,0.7,2.4,1.58,2.4,3.17
		c0,1.67-1.07,3.11-3.29,3.11c-0.91,0-1.9-0.3-2.4-0.69L216.58,363.02z"/>
	<path d="M223.61,354.05c0.59-0.11,1.35-0.21,2.33-0.21c1.2,0,2.08,0.32,2.63,0.9c0.52,0.51,0.82,1.3,0.82,2.26
		c0,0.98-0.25,1.74-0.72,2.3c-0.64,0.78-1.69,1.18-2.87,1.18c-0.36,0-0.7-0.02-0.98-0.1v4.32h-1.21L223.61,354.05L223.61,354.05z
		 M224.82,359.24c0.26,0.08,0.6,0.11,1,0.11c1.46,0,2.35-0.82,2.35-2.31c0-1.42-0.88-2.11-2.22-2.11c-0.53,0-0.93,0.05-1.14,0.11
		v4.2H224.82z"/>
	<path d="M231.02,353.92h1.21v9.62h4.01v1.17h-5.22L231.02,353.92L231.02,353.92z"/>
	<path d="M239.11,361.32l-0.98,3.39h-1.25l3.19-10.79h1.46l3.2,10.79h-1.3l-1-3.39H239.11z M242.19,360.23l-0.92-3.11
		c-0.21-0.7-0.35-1.34-0.49-1.97h-0.03c-0.14,0.64-0.29,1.3-0.47,1.95l-0.92,3.12L242.19,360.23L242.19,360.23z"/>
	<path d="M252.47,364.36c-0.45,0.26-1.34,0.51-2.48,0.51c-2.65,0-4.64-1.92-4.64-5.46c0-3.38,1.99-5.67,4.9-5.67
		c1.17,0,1.91,0.29,2.23,0.48l-0.29,1.14c-0.46-0.26-1.11-0.45-1.89-0.45c-2.2,0-3.66,1.62-3.66,4.45c0,2.64,1.32,4.34,3.61,4.34
		c0.74,0,1.49-0.18,1.98-0.45L252.47,364.36z"/>
	<path d="M258.85,359.65h-3.65v3.89h4.07v1.17h-5.28v-10.79h5.07v1.17h-3.86v3.41h3.65V359.65z"/>
	<path d="M268.75,359.97c-0.07-1.5-0.15-3.31-0.14-4.66h-0.04c-0.32,1.26-0.71,2.61-1.18,4.1l-1.66,5.23h-0.92l-1.52-5.14
		c-0.45-1.52-0.82-2.91-1.09-4.19h-0.03c-0.03,1.34-0.1,3.15-0.18,4.77l-0.25,4.63h-1.16l0.66-10.79h1.55l1.6,5.22
		c0.39,1.33,0.71,2.51,0.95,3.63h0.04c0.24-1.09,0.57-2.27,0.99-3.63l1.67-5.22h1.55l0.58,10.79h-1.18L268.75,359.97z"/>
	<path d="M276.9,359.65h-3.65v3.89h4.07v1.17h-5.28v-10.79h5.07v1.17h-3.86v3.41h3.65V359.65z"/>
	<path d="M278.89,364.71v-10.79h1.32l3.01,5.46c0.7,1.26,1.24,2.4,1.69,3.5l0.03-0.02c-0.11-1.44-0.14-2.75-0.14-4.43v-4.51h1.14
		v10.79h-1.23l-2.98-5.47c-0.65-1.2-1.28-2.43-1.75-3.6l-0.04,0.02c0.07,1.36,0.1,2.66,0.1,4.45v4.61h-1.15V364.71z"/>
	<path d="M289.83,355.11h-2.86v-1.18h6.95v1.18h-2.87v9.6h-1.23L289.83,355.11L289.83,355.11z"/>
	<path d="M300.54,353.6c-1.02,1.57-1.75,3.65-1.75,6.55c0,2.85,0.77,4.9,1.75,6.5h-0.96c-0.88-1.33-1.83-3.38-1.83-6.5
		c0.01-3.15,0.95-5.2,1.83-6.55H300.54z"/>
	<path d="M301.67,363.27c0.36,0.27,1,0.56,1.62,0.56c0.89,0,1.31-0.51,1.31-1.15c0-0.67-0.35-1.04-1.25-1.42
		c-1.21-0.5-1.78-1.26-1.78-2.19c0-1.25,0.88-2.27,2.33-2.27c0.68,0,1.28,0.22,1.66,0.48l-0.31,1.02c-0.26-0.19-0.75-0.45-1.38-0.45
		c-0.72,0-1.13,0.48-1.13,1.06c0,0.64,0.4,0.93,1.28,1.31c1.17,0.51,1.77,1.18,1.77,2.34c0,1.36-0.92,2.32-2.52,2.32
		c-0.74,0-1.42-0.21-1.89-0.53L301.67,363.27z"/>
	<path d="M306.62,366.65c0.99-1.58,1.76-3.67,1.76-6.55c0-2.87-0.75-4.91-1.76-6.5h0.95c0.89,1.31,1.83,3.36,1.83,6.51
		c0,3.14-0.93,5.17-1.83,6.53L306.62,366.65L306.62,366.65z"/>
</g>
<g>
	<line class="st0" x1="316.15" y1="358.84" x2="340.11" y2="358.84"/>
	<g>
		<path d="M346.15,358.84c-2.84,1.05-6.36,2.85-8.55,4.76l1.72-4.76l-1.72-4.75C339.78,355.98,343.31,357.79,346.15,358.84z"/>
	</g>
</g>
<g>
	<line class="st0" x1="199.89" y1="358.84" x2="175.92" y2="358.84"/>
	<g>
		<path d="M169.89,358.84c2.84-1.05,6.36-2.85,8.55-4.76l-1.72,4.76l1.72,4.75C176.25,361.7,172.73,359.9,169.89,358.84z"/>
	</g>
</g>
<g>
	<path d="M115.04,112.96l1.03,3.42l-1.18,0.83l-3.19-10.94l1.38-0.96l9.21,6.73l-1.22,0.85l-2.89-2.12L115.04,112.96z
		 M117.32,110.03l-2.65-1.94c-0.6-0.44-1.1-0.87-1.59-1.29l-0.03,0.02c0.24,0.62,0.47,1.25,0.67,1.91l0.92,3.16L117.32,110.03z"/>
	<path d="M117.48,102.41c0.5-0.52,1.27-1.17,2.06-1.72c1.22-0.85,2.16-1.18,3.06-1.07c0.72,0.08,1.39,0.51,1.87,1.19
		c0.82,1.17,0.62,2.45-0.09,3.42l0.03,0.04c0.85-0.24,1.69,0.1,2.55,0.87c1.15,1.03,1.96,1.74,2.38,1.95l-1.18,0.83
		c-0.32-0.15-1.05-0.77-2.07-1.7c-1.12-1.04-1.91-1.16-2.97-0.48l-1.07,0.75l2.68,3.83l-1.14,0.8L117.48,102.41z M121.43,105.62
		l1.17-0.82c1.22-0.85,1.53-2.06,0.82-3.07c-0.8-1.14-1.97-1.06-3.19-0.23c-0.55,0.39-0.91,0.71-1.05,0.9L121.43,105.62z"/>
	<path d="M135.36,97.09c-0.93-1.19-2.04-2.61-2.8-3.72l-0.04,0.03c0.42,1.25,0.83,2.6,1.24,4.14l1.44,5.38l-0.87,0.61l-4.38-3.21
		c-1.29-0.95-2.45-1.84-3.43-2.72l-0.03,0.02c0.75,1.12,1.72,2.65,2.57,4.03l2.42,3.96l-1.09,0.76l-5.57-9.27l1.46-1.02l4.5,3.22
		c1.13,0.83,2.11,1.59,2.98,2.35l0.04-0.03c-0.4-1.05-0.77-2.24-1.15-3.63l-1.42-5.38l1.46-1.02l6.74,8.45l-1.12,0.78L135.36,97.09z
		"/>
	<path d="M147.42,95.9l0.46,0.66l-6.56,4.59l-0.46-0.66L147.42,95.9z"/>
	<path d="M141.54,85.38l1.14-0.8l5.52,7.88l3.78-2.64l0.67,0.96l-4.92,3.44L141.54,85.38z"/>
	<path d="M155.58,82.53l-3.44,2.41l2.23,3.19l3.83-2.68l0.67,0.96l-4.97,3.48l-6.19-8.84l4.77-3.34l0.67,0.96l-3.63,2.54l1.96,2.79
		l3.44-2.41L155.58,82.53z"/>
	<path d="M160.36,85.37l-6.19-8.84l1.25-0.87l5.96,2.49c1.38,0.58,2.54,1.15,3.6,1.76l0.02-0.03c-0.93-1.11-1.71-2.16-2.67-3.54
		l-2.59-3.7l1.08-0.75l6.19,8.84l-1.15,0.81l-5.95-2.52c-1.3-0.55-2.6-1.15-3.72-1.79l-0.03,0.04c0.85,1.07,1.62,2.11,2.64,3.58
		l2.64,3.78L160.36,85.37z"/>
	<path d="M175.43,74.23c-0.38,0.54-1.18,1.55-2.37,2.39c-1.34,0.94-2.68,1.37-4.12,1.15c-1.28-0.2-2.57-1.05-3.54-2.43
		c-1.83-2.64-1.37-5.84,1.59-7.91c1.02-0.72,1.98-1.05,2.49-1.14l0.38,1.12c-0.62,0.12-1.33,0.36-2.22,0.99
		c-2.15,1.51-2.62,3.82-1.07,6.04c1.57,2.24,3.85,2.62,5.91,1.18c0.75-0.52,1.18-0.99,1.36-1.3l-1.85-2.64l-1.8,1.26l-0.64-0.92
		l2.91-2.04L175.43,74.23z"/>
	<path d="M173.62,64.37l-2.69,1.88l-0.68-0.97l6.54-4.58l0.68,0.97l-2.7,1.89l5.51,7.87l-1.15,0.81L173.62,64.37z"/>
	<path d="M178.92,59.21l2.59,3.7l4.27-2.99l-2.59-3.7l1.15-0.81l6.19,8.84l-1.15,0.81l-2.9-4.14l-4.27,2.99l2.9,4.14l-1.14,0.8
		l-6.19-8.84L178.92,59.21z"/>
	<path d="M191.38,50.09c-0.06,1.95,0.44,4.15,2.1,6.52c1.63,2.33,3.53,3.51,5.38,4.17l-0.9,0.63c-1.59-0.51-3.65-1.56-5.45-4.12
		c-1.8-2.59-2.09-4.89-2.04-6.57L191.38,50.09z"/>
	<path d="M192.82,49.48l1.14-0.8l5.52,7.88l3.78-2.64l0.67,0.96l-4.92,3.44L192.82,49.48z"/>
	<path d="M205.57,56.07c0.02-1.95-0.45-4.16-2.1-6.52c-1.64-2.35-3.53-3.53-5.38-4.17l0.89-0.62c1.59,0.49,3.65,1.55,5.45,4.13
		c1.8,2.57,2.09,4.85,2.03,6.55L205.57,56.07z"/>
</g>
<g>
	<line class="st0" x1="210.67" y1="44.88" x2="226.28" y2="33.96"/>
	<g>
		<path d="M231.22,30.49c-1.72,2.49-3.58,5.99-4.27,8.8l-1.32-4.88l-4.14-2.91C224.37,31.8,228.29,31.26,231.22,30.49z"/>
	</g>
</g>
<g>
	<line class="st0" x1="108.44" y1="116.47" x2="93.56" y2="126.88"/>
	<g>
		<path d="M88.62,130.34c1.72-2.49,3.58-5.99,4.27-8.8l1.32,4.88l4.14,2.91C95.47,129.03,91.55,129.57,88.62,130.34z"/>
	</g>
</g>
<line class="st0" x1="183.38" y1="113.19" x2="190.99" y2="123.68"/>
<line class="st0" x1="332.72" y1="113.19" x2="325.12" y2="123.68"/>
<line class="st0" x1="380.06" y1="254.24" x2="369" y2="250.65"/>
<line class="st0" x1="136.31" y1="254.24" x2="147.37" y2="250.65"/>
<g>
	<path class="st1" d="M132.35,317.86c-1.17,1.57-2.02,3.65-2.02,6.55c0,2.85,0.88,4.9,2.02,6.5h-1.1c-1.01-1.33-2.1-3.38-2.1-6.5
		c0.02-3.15,1.09-5.2,2.1-6.55H132.35z"/>
	<path class="st1" d="M140.31,323.66c0,3.54-1.31,5.49-3.62,5.49c-2.03,0-3.41-1.9-3.44-5.35c0-3.49,1.5-5.41,3.62-5.41
		C139.06,318.4,140.31,320.34,140.31,323.66z M134.66,323.83c0,2.71,0.83,4.24,2.11,4.24c1.44,0,2.13-1.68,2.13-4.34
		c0-2.56-0.66-4.24-2.11-4.24C135.55,319.48,134.66,320.99,134.66,323.83z"/>
	<path class="st1" d="M141.14,330.95c0.35-0.94,0.78-2.66,0.96-3.83l1.57-0.16c-0.37,1.36-1.07,3.14-1.52,3.89L141.14,330.95z"/>
	<path class="st1" d="M155.22,323.66c0,3.54-1.31,5.49-3.62,5.49c-2.03,0-3.41-1.9-3.44-5.35c0-3.49,1.5-5.41,3.62-5.41
		C153.97,318.4,155.22,320.34,155.22,323.66z M149.57,323.83c0,2.71,0.83,4.24,2.11,4.24c1.44,0,2.13-1.68,2.13-4.34
		c0-2.56-0.66-4.24-2.11-4.24C150.47,319.48,149.57,320.99,149.57,323.83z"/>
	<path class="st1" d="M156.11,330.91c1.14-1.58,2.02-3.67,2.02-6.55c0-2.86-0.86-4.91-2.02-6.5h1.09c1.02,1.31,2.1,3.36,2.1,6.51
		c0,3.14-1.07,5.17-2.1,6.53L156.11,330.91L156.11,330.91z"/>
</g>
<path class="st2" d="M199.13,338.17c0-16.93-17.61-30.64-39.37-30.64"/>
<path class="st2" d="M382.1,338.1c0-14.15-12.36-25.6-27.63-25.6"/>
<path class="st0" d="M382.1,338.1c0-14.15-12.36-25.6-27.63-25.6"/>
<path class="st0" d="M192.92,338.1c0-14.15-14.09-25.6-31.5-25.6"/>
<g>
	<line class="st0" x1="257.92" y1="66.91" x2="259.77" y2="72.62"/>
	<line class="st3" x1="263.45" y1="83.93" x2="342.4" y2="326.91"/>
	<line class="st0" x1="344.23" y1="332.57" x2="346.09" y2="338.28"/>
</g>
<line class="st4" x1="169.75" y1="338.28" x2="257.92" y2="66.91"/>
<g>
	<path d="M259.14,50.9c0.67-0.11,1.55-0.21,2.67-0.21c1.38,0,2.38,0.32,3.03,0.9c0.59,0.51,0.94,1.3,0.94,2.26
		c0,0.98-0.29,1.74-0.83,2.3c-0.74,0.78-1.94,1.18-3.3,1.18c-0.42,0-0.8-0.02-1.12-0.1v4.32h-1.39V50.9z M260.53,56.1
		c0.3,0.08,0.69,0.11,1.15,0.11c1.68,0,2.71-0.82,2.71-2.31c0-1.42-1.01-2.11-2.55-2.11c-0.61,0-1.07,0.05-1.31,0.11L260.53,56.1
		L260.53,56.1z"/>
	<path d="M274.05,50.44c-1.17,1.57-2.02,3.65-2.02,6.55c0,2.85,0.88,4.9,2.02,6.5h-1.1c-1.01-1.33-2.1-3.38-2.1-6.5
		c0.02-3.15,1.09-5.2,2.1-6.55H274.05z"/>
	<path d="M276.19,53.8l1.1,1.67c0.29,0.43,0.53,0.83,0.78,1.26h0.05c0.26-0.46,0.51-0.86,0.77-1.28l1.09-1.65h1.52l-2.64,3.75
		l2.72,4h-1.6l-1.14-1.75c-0.3-0.45-0.56-0.88-0.83-1.34h-0.03c-0.26,0.46-0.53,0.88-0.82,1.34l-1.12,1.75h-1.55l2.75-3.95
		l-2.62-3.79h1.57V53.8z"/>
	<path d="M282.03,63.51c0.35-0.94,0.78-2.66,0.96-3.83l1.57-0.16c-0.37,1.36-1.07,3.14-1.52,3.89L282.03,63.51z"/>
	<path d="M290.16,53.8l1.7,4.58c0.18,0.51,0.37,1.12,0.5,1.58h0.03c0.14-0.46,0.3-1.06,0.5-1.62l1.54-4.55h1.49l-2.11,5.52
		c-1.01,2.66-1.7,4.02-2.66,4.85c-0.69,0.61-1.38,0.85-1.73,0.91l-0.35-1.18c0.35-0.11,0.82-0.34,1.23-0.69
		c0.38-0.3,0.86-0.85,1.18-1.57c0.06-0.14,0.11-0.26,0.11-0.34s-0.03-0.19-0.1-0.37l-2.87-7.14h1.54V53.8z"/>
	<path d="M296.34,63.49c1.14-1.58,2.02-3.67,2.02-6.55c0-2.86-0.86-4.91-2.02-6.5h1.09c1.02,1.31,2.1,3.36,2.1,6.51
		c0,3.14-1.07,5.17-2.1,6.53h-1.09V63.49z"/>
</g>
<line class="st5" x1="257.33" y1="67.34" x2="228.6" y2="25.65"/>
<line class="st5" x1="115.95" y1="170.09" x2="83.14" y2="123.87"/>
<g>
	<path d="M500.53,349.68l1.1,1.67c0.29,0.43,0.53,0.83,0.78,1.26h0.05c0.26-0.46,0.51-0.86,0.77-1.28l1.09-1.65h1.52l-2.64,3.75
		l2.72,4h-1.6l-1.14-1.75c-0.3-0.45-0.56-0.88-0.83-1.34h-0.03c-0.26,0.46-0.53,0.88-0.82,1.34l-1.12,1.75h-1.55l2.75-3.95
		l-2.63-3.79L500.53,349.68L500.53,349.68z"/>
</g>
<g>
	<path d="M22.91,19.74l1.7,4.58c0.18,0.51,0.37,1.12,0.5,1.58h0.03c0.14-0.46,0.3-1.06,0.5-1.62l1.54-4.55h1.49l-2.11,5.52
		c-1.01,2.66-1.7,4.02-2.66,4.85c-0.69,0.61-1.38,0.85-1.73,0.91l-0.35-1.18c0.35-0.11,0.82-0.34,1.23-0.69
		c0.38-0.3,0.86-0.85,1.18-1.57c0.06-0.14,0.11-0.26,0.11-0.34s-0.03-0.19-0.1-0.37l-2.87-7.14h1.54V19.74z"/>
</g>
<g>
	<path d="M184.89,307.64c0-2.75,1.29-4.84,3.65-4.84c2.4,0,3.51,1.95,3.51,4.84c0,3.03-1.14,5.01-3.56,5.01
		C186.26,312.65,184.89,310.97,184.89,307.64z M190.69,307.12c-0.02-1.91-0.72-3.46-2.23-3.46c-1.39,0-2.21,1.63-2.21,3.46H190.69z
		 M186.24,308.02c0,2.4,0.94,3.75,2.28,3.75c1.47,0,2.17-1.56,2.17-3.75H186.24z"/>
</g>
<g>
	<path d="M377.98,305.72c-0.74,0.45-1.64,1.35-1.64,2.81c0,1.35,0.75,2.47,2.27,2.7v-4.13c0-1.46,0.83-2.05,1.78-2.05
		c1.38,0,2.87,1.28,2.87,3.35c0,2.33-1.71,3.55-3.47,3.72v2.64h-1.17v-2.64c-1.74-0.13-3.53-1.18-3.53-3.57
		c0-1.95,1.45-3.13,2.4-3.52L377.98,305.72z M379.79,311.23c1.38-0.18,2.26-1.22,2.26-2.79c0-1.39-0.84-2.48-1.65-2.48
		c-0.36,0-0.61,0.31-0.61,0.95V311.23z"/>
</g>
<g>
	<path d="M177.55,188.62v9.36c0,0.69,0.02,1.47,0.06,2h-1.26l-0.06-1.34h-0.03c-0.43,0.86-1.38,1.52-2.64,1.52
		c-1.87,0-3.31-1.58-3.31-3.94c-0.02-2.58,1.58-4.16,3.47-4.16c1.18,0,1.98,0.56,2.34,1.18h0.03v-4.63h1.4V188.62z M176.14,195.38
		c0-0.18-0.02-0.42-0.06-0.59c-0.21-0.9-0.98-1.63-2.03-1.63c-1.46,0-2.32,1.28-2.32,2.99c0,1.57,0.77,2.87,2.29,2.87
		c0.94,0,1.81-0.62,2.06-1.68c0.05-0.19,0.06-0.38,0.06-0.61V195.38z"/>
	<path d="M181.45,190.06c0.02,0.48-0.34,0.86-0.9,0.86c-0.5,0-0.85-0.38-0.85-0.86c0-0.5,0.37-0.88,0.88-0.88
		C181.11,189.18,181.45,189.56,181.45,190.06z M179.88,199.99v-7.75h1.41v7.75H179.88z"/>
	<path d="M187.91,199.99L187.8,199h-0.05c-0.43,0.61-1.26,1.15-2.37,1.15c-1.57,0-2.37-1.1-2.37-2.22c0-1.87,1.67-2.9,4.66-2.88
		v-0.16c0-0.64-0.18-1.79-1.76-1.79c-0.72,0-1.47,0.22-2.02,0.58l-0.32-0.93c0.64-0.42,1.57-0.69,2.54-0.69
		c2.37,0,2.95,1.62,2.95,3.17v2.9c0,0.67,0.03,1.33,0.13,1.86L187.91,199.99L187.91,199.99z M187.7,196.03
		c-1.54-0.03-3.28,0.24-3.28,1.74c0,0.91,0.61,1.34,1.33,1.34c1.01,0,1.65-0.64,1.87-1.3c0.05-0.14,0.08-0.3,0.08-0.45L187.7,196.03
		L187.7,196.03z"/>
	<path d="M198.01,192.24c-0.03,0.56-0.06,1.18-0.06,2.13v4.5c0,1.78-0.35,2.87-1.1,3.54c-0.75,0.7-1.84,0.93-2.82,0.93
		c-0.93,0-1.95-0.22-2.58-0.64l0.35-1.07c0.51,0.32,1.31,0.61,2.27,0.61c1.44,0,2.5-0.75,2.5-2.71v-0.86h-0.03
		c-0.43,0.72-1.26,1.3-2.46,1.3c-1.92,0-3.3-1.63-3.3-3.78c0-2.62,1.71-4.11,3.49-4.11c1.34,0,2.08,0.7,2.42,1.34h0.03l0.06-1.17
		L198.01,192.24L198.01,192.24z M196.55,195.29c0-0.24-0.02-0.45-0.08-0.64c-0.26-0.82-0.94-1.49-1.97-1.49
		c-1.34,0-2.31,1.14-2.31,2.93c0,1.52,0.77,2.79,2.29,2.79c0.86,0,1.65-0.54,1.95-1.44c0.08-0.24,0.11-0.51,0.11-0.75L196.55,195.29
		L196.55,195.29z"/>
	<path d="M202.89,190.88h-0.03l-1.81,0.98l-0.27-1.07l2.27-1.22h1.2v10.4h-1.36L202.89,190.88L202.89,190.88z"/>
</g>
<line class="st5" x1="169.63" y1="365.55" x2="169.75" y2="336.78"/>
<line class="st5" x1="346.21" y1="364.86" x2="346.09" y2="338.28"/>
<g>
	<path d="M317.8,188.62v9.36c0,0.69,0.02,1.47,0.06,2h-1.26l-0.06-1.34h-0.03c-0.43,0.86-1.38,1.52-2.64,1.52
		c-1.87,0-3.31-1.58-3.31-3.94c-0.02-2.58,1.58-4.16,3.47-4.16c1.18,0,1.98,0.56,2.34,1.18h0.03v-4.63h1.4V188.62z M316.39,195.38
		c0-0.18-0.02-0.42-0.06-0.59c-0.21-0.9-0.98-1.63-2.03-1.63c-1.46,0-2.32,1.28-2.32,2.99c0,1.57,0.77,2.87,2.29,2.87
		c0.94,0,1.81-0.62,2.06-1.68c0.05-0.19,0.06-0.38,0.06-0.61L316.39,195.38L316.39,195.38z"/>
	<path d="M321.7,190.06c0.02,0.48-0.34,0.86-0.9,0.86c-0.5,0-0.85-0.38-0.85-0.86c0-0.5,0.37-0.88,0.88-0.88
		C321.36,189.18,321.7,189.56,321.7,190.06z M320.13,199.99v-7.75h1.41v7.75H320.13z"/>
	<path d="M328.16,199.99l-0.11-0.98H328c-0.43,0.61-1.26,1.15-2.37,1.15c-1.57,0-2.37-1.1-2.37-2.22c0-1.87,1.67-2.9,4.66-2.88
		v-0.16c0-0.64-0.18-1.79-1.76-1.79c-0.72,0-1.47,0.22-2.02,0.58l-0.32-0.93c0.64-0.42,1.57-0.69,2.54-0.69
		c2.37,0,2.95,1.62,2.95,3.17v2.9c0,0.67,0.03,1.33,0.13,1.86L328.16,199.99L328.16,199.99z M327.96,196.03
		c-1.54-0.03-3.28,0.24-3.28,1.74c0,0.91,0.61,1.34,1.33,1.34c1.01,0,1.65-0.64,1.87-1.3c0.05-0.14,0.08-0.3,0.08-0.45V196.03z"/>
	<path d="M338.26,192.24c-0.03,0.56-0.06,1.18-0.06,2.13v4.5c0,1.78-0.35,2.87-1.1,3.54c-0.75,0.7-1.84,0.93-2.82,0.93
		c-0.93,0-1.95-0.22-2.58-0.64l0.35-1.07c0.51,0.32,1.31,0.61,2.27,0.61c1.44,0,2.5-0.75,2.5-2.71v-0.86h-0.03
		c-0.43,0.72-1.26,1.3-2.46,1.3c-1.92,0-3.3-1.63-3.3-3.78c0-2.62,1.71-4.11,3.49-4.11c1.34,0,2.08,0.7,2.42,1.34h0.03l0.06-1.17
		L338.26,192.24L338.26,192.24z M336.8,195.29c0-0.24-0.02-0.45-0.08-0.64c-0.26-0.82-0.94-1.49-1.97-1.49
		c-1.34,0-2.3,1.14-2.3,2.93c0,1.52,0.77,2.79,2.29,2.79c0.86,0,1.65-0.54,1.95-1.44c0.08-0.24,0.11-0.51,0.11-0.75V195.29z"/>
	<path d="M340.08,199.99v-0.86l1.1-1.07c2.66-2.53,3.86-3.87,3.87-5.44c0-1.06-0.51-2.03-2.06-2.03c-0.94,0-1.73,0.48-2.21,0.88
		l-0.45-0.99c0.72-0.61,1.75-1.06,2.95-1.06c2.24,0,3.19,1.54,3.19,3.03c0,1.92-1.39,3.47-3.59,5.59l-0.83,0.77v0.03h4.67v1.17
		h-6.64V199.99z"/>
</g>
<g>
	<path d="M123.45,258.17l-1.12,3.39h-1.44l3.67-10.79h1.68l3.68,10.79h-1.49l-1.15-3.39H123.45z M126.99,257.09l-1.06-3.11
		c-0.24-0.7-0.4-1.34-0.56-1.97h-0.03c-0.16,0.64-0.34,1.3-0.54,1.95l-1.06,3.12L126.99,257.09L126.99,257.09z"/>
</g>
<g>
	<path d="M344.02,106.53c-0.51,0.26-1.54,0.51-2.85,0.51c-3.04,0-5.33-1.92-5.33-5.46c0-3.38,2.29-5.67,5.63-5.67
		c1.34,0,2.19,0.29,2.56,0.48l-0.34,1.14c-0.53-0.26-1.28-0.45-2.18-0.45c-2.53,0-4.21,1.62-4.21,4.45c0,2.64,1.52,4.34,4.15,4.34
		c0.85,0,1.71-0.18,2.27-0.45L344.02,106.53z"/>
</g>
<g>
	<path d="M173.48,97.28c0.61-0.13,1.57-0.22,2.55-0.22c1.39,0,2.29,0.24,2.96,0.78c0.56,0.42,0.9,1.06,0.9,1.9
		c0,1.04-0.69,1.95-1.82,2.37v0.03c1.02,0.26,2.22,1.1,2.22,2.71c0,0.93-0.37,1.63-0.91,2.16c-0.75,0.69-1.97,1.01-3.73,1.01
		c-0.96,0-1.7-0.06-2.16-0.13L173.48,97.28L173.48,97.28z M174.87,101.69h1.26c1.47,0,2.34-0.77,2.34-1.81
		c0-1.26-0.96-1.76-2.37-1.76c-0.64,0-1.01,0.05-1.23,0.1V101.69z M174.87,106.87c0.27,0.05,0.67,0.06,1.17,0.06
		c1.44,0,2.77-0.53,2.77-2.1c0-1.47-1.26-2.08-2.79-2.08h-1.15V106.87z"/>
</g>
<g>
	<path d="M387.12,250.93c0.85-0.13,1.86-0.22,2.96-0.22c2,0,3.42,0.46,4.37,1.34c0.96,0.88,1.52,2.13,1.52,3.87
		c0,1.76-0.54,3.2-1.55,4.19c-1.01,1.01-2.67,1.55-4.77,1.55c-0.99,0-1.82-0.05-2.53-0.13V250.93z M388.52,260.47
		c0.35,0.06,0.87,0.08,1.41,0.08c2.98,0,4.59-1.67,4.59-4.58c0.02-2.54-1.42-4.16-4.37-4.16c-0.72,0-1.26,0.06-1.63,0.14V260.47z"/>
</g>
<g>
	<line class="st6" x1="37.63" y1="229.9" x2="37.63" y2="175.93"/>
	<g>
		<path class="st7" d="M37.63,169.9c1.05,2.84,2.85,6.36,4.76,8.55l-4.76-1.72l-4.75,1.72C34.78,176.25,36.57,172.74,37.63,169.9z"
			/>
	</g>
</g>
<g>
	<line class="st6" x1="37.63" y1="230.07" x2="91.59" y2="230.06"/>
	<g>
		<path class="st7" d="M97.63,230.06c-2.84,1.05-6.36,2.85-8.55,4.76l1.72-4.76l-1.72-4.75C91.26,227.21,94.79,229,97.63,230.06z"/>
	</g>
</g>
<g>
	<path class="st8" d="M3.2,208.91c-1.17,1.57-2.02,3.65-2.02,6.55c0,2.85,0.88,4.9,2.02,6.5H2.1c-1.01-1.33-2.1-3.38-2.1-6.5
		c0.02-3.15,1.09-5.2,2.1-6.55H3.2z"/>
	<path class="st8" d="M11.15,214.71c0,3.54-1.31,5.49-3.62,5.49c-2.03,0-3.41-1.9-3.44-5.35c0-3.49,1.5-5.41,3.62-5.41
		C9.9,209.44,11.15,211.38,11.15,214.71z M5.5,214.87c0,2.71,0.83,4.24,2.11,4.24c1.44,0,2.13-1.68,2.13-4.34
		c0-2.56-0.66-4.24-2.11-4.24C6.4,210.53,5.5,212.03,5.5,214.87z"/>
	<path class="st8" d="M11.98,221.99c0.35-0.94,0.78-2.66,0.96-3.83l1.57-0.16c-0.37,1.36-1.07,3.14-1.52,3.89L11.98,221.99z"/>
	<path class="st8" d="M26.06,214.71c0,3.54-1.31,5.49-3.62,5.49c-2.03,0-3.41-1.9-3.44-5.35c0-3.49,1.5-5.41,3.62-5.41
		C24.82,209.44,26.06,211.38,26.06,214.71z M20.41,214.87c0,2.71,0.83,4.24,2.11,4.24c1.44,0,2.13-1.68,2.13-4.34
		c0-2.56-0.66-4.24-2.11-4.24C21.31,210.53,20.41,212.03,20.41,214.87z"/>
	<path class="st8" d="M26.96,221.96c1.14-1.58,2.02-3.67,2.02-6.55c0-2.87-0.86-4.91-2.02-6.5h1.09c1.02,1.31,2.1,3.36,2.1,6.51
		c0,3.14-1.07,5.17-2.1,6.53L26.96,221.96L26.96,221.96z"/>
</g>
<g>
	<path class="st7" d="M25.93,180.87l1.1,1.67c0.29,0.43,0.53,0.83,0.78,1.26h0.05c0.26-0.46,0.51-0.86,0.77-1.28l1.09-1.65h1.52
		l-2.64,3.75l2.72,4h-1.6l-1.14-1.75c-0.3-0.45-0.56-0.88-0.83-1.34h-0.03c-0.26,0.46-0.53,0.88-0.82,1.34l-1.12,1.75h-1.55
		l2.75-3.95l-2.63-3.79h1.58V180.87z"/>
</g>
<g>
	<path class="st7" d="M81.1,237.24l1.9,4.5c0.2,0.5,0.42,1.1,0.57,1.56h0.03c0.12-0.47,0.26-1.07,0.42-1.64l1.33-4.61l1.49-0.07
		l-1.86,5.61c-0.89,2.7-1.51,4.09-2.44,4.96c-0.66,0.64-1.34,0.91-1.69,0.99l-0.4-1.17c0.35-0.13,0.8-0.37,1.2-0.74
		c0.37-0.32,0.83-0.89,1.11-1.62c0.06-0.15,0.1-0.26,0.1-0.34s-0.04-0.19-0.11-0.36l-3.18-7L81.1,237.24z"/>
</g>
<rect x="358.12" y="31.43" class="st9" width="10" height="10"/>
<rect x="358.12" y="51.55" class="st10" width="10" height="10"/>
<g>
	<path d="M386.01,37.32c0,2.78-1.69,4.26-3.75,4.26c-2.13,0-3.63-1.66-3.63-4.1c0-2.57,1.59-4.25,3.75-4.25
		C384.59,33.23,386.01,34.91,386.01,37.32z M379.74,37.44c0,1.73,0.94,3.27,2.58,3.27c1.65,0,2.59-1.52,2.59-3.36
		c0-1.61-0.84-3.29-2.58-3.29C380.6,34.07,379.74,35.66,379.74,37.44z"/>
	<path d="M387.34,37.52c0-0.74-0.02-1.34-0.05-1.89h0.95l0.05,1h0.02c0.43-0.71,1.12-1.13,2.06-1.13c1.4,0,2.46,1.19,2.46,2.95
		c0,2.09-1.27,3.12-2.64,3.12c-0.77,0-1.44-0.34-1.79-0.91h-0.02v3.15h-1.04L387.34,37.52L387.34,37.52z M388.38,39.07
		c0,0.16,0.02,0.3,0.05,0.43c0.19,0.73,0.83,1.24,1.58,1.24c1.12,0,1.76-0.91,1.76-2.24c0-1.16-0.61-2.16-1.73-2.16
		c-0.72,0-1.39,0.52-1.59,1.31c-0.04,0.13-0.07,0.29-0.07,0.43V39.07z"/>
	<path d="M394.75,38.73c0.02,1.43,0.94,2.02,1.99,2.02c0.75,0,1.21-0.13,1.61-0.3l0.18,0.75c-0.37,0.17-1.01,0.36-1.93,0.36
		c-1.79,0-2.85-1.18-2.85-2.93s1.03-3.13,2.72-3.13c1.9,0,2.4,1.67,2.4,2.73c0,0.22-0.02,0.38-0.04,0.49L394.75,38.73L394.75,38.73z
		 M397.85,37.98c0.01-0.67-0.28-1.71-1.46-1.71c-1.07,0-1.54,0.98-1.62,1.71H397.85z"/>
	<path d="M400.17,37.21c0-0.6-0.01-1.09-0.05-1.57h0.94l0.06,0.96h0.02c0.29-0.55,0.96-1.09,1.92-1.09c0.8,0,2.05,0.48,2.05,2.47
		v3.47h-1.06V38.1c0-0.94-0.35-1.72-1.34-1.72c-0.7,0-1.24,0.49-1.42,1.08c-0.05,0.13-0.07,0.31-0.07,0.49v3.49h-1.06v-4.23H400.17z
		"/>
	<path d="M412.52,41.18c-0.38,0.19-1.15,0.38-2.13,0.38c-2.28,0-3.99-1.44-3.99-4.09c0-2.53,1.71-4.25,4.22-4.25
		c1.01,0,1.64,0.22,1.92,0.36l-0.25,0.85c-0.4-0.19-0.96-0.34-1.63-0.34c-1.9,0-3.15,1.21-3.15,3.33c0,1.98,1.14,3.25,3.11,3.25
		c0.64,0,1.28-0.13,1.7-0.34L412.52,41.18z"/>
	<path d="M415.75,41.43l-2.64-8.08h1.13l1.26,3.98c0.35,1.09,0.65,2.07,0.86,3.02h0.02c0.23-0.94,0.56-1.96,0.92-3.01l1.37-3.99
		h1.12l-2.89,8.08H415.75z"/>
	<path d="M428.86,41.18c-0.38,0.19-1.15,0.38-2.13,0.38c-2.28,0-3.99-1.44-3.99-4.09c0-2.53,1.71-4.25,4.22-4.25
		c1.01,0,1.64,0.22,1.92,0.36l-0.25,0.85c-0.4-0.19-0.96-0.34-1.63-0.34c-1.9,0-3.15,1.21-3.15,3.33c0,1.98,1.14,3.25,3.11,3.25
		c0.64,0,1.28-0.13,1.7-0.34L428.86,41.18z"/>
	<path d="M435.26,38.49c0,2.15-1.49,3.08-2.89,3.08c-1.57,0-2.78-1.15-2.78-2.99c0-1.94,1.27-3.08,2.88-3.08
		C434.13,35.51,435.26,36.71,435.26,38.49z M430.65,38.54c0,1.27,0.73,2.23,1.76,2.23c1.01,0,1.76-0.95,1.76-2.25
		c0-0.98-0.49-2.23-1.74-2.23C431.19,36.29,430.65,37.44,430.65,38.54z"/>
	<path d="M441.85,38.49c0,2.15-1.49,3.08-2.89,3.08c-1.57,0-2.78-1.15-2.78-2.99c0-1.94,1.27-3.08,2.88-3.08
		C440.72,35.51,441.85,36.71,441.85,38.49z M437.24,38.54c0,1.27,0.73,2.23,1.76,2.23c1.01,0,1.76-0.95,1.76-2.25
		c0-0.98-0.49-2.23-1.74-2.23C437.78,36.29,437.24,37.44,437.24,38.54z"/>
	<path d="M443.18,37.44c0-0.68-0.01-1.27-0.05-1.81h0.92l0.04,1.14h0.05c0.26-0.78,0.9-1.27,1.61-1.27c0.12,0,0.2,0.01,0.3,0.04v1
		c-0.11-0.02-0.22-0.04-0.36-0.04c-0.74,0-1.27,0.56-1.42,1.36c-0.02,0.14-0.05,0.31-0.05,0.49v3.09h-1.04V37.44z"/>
	<path d="M452,32.93v7.02c0,0.52,0.01,1.1,0.05,1.5h-0.95l-0.05-1.01h-0.02c-0.32,0.65-1.03,1.14-1.98,1.14
		c-1.4,0-2.48-1.19-2.48-2.95c-0.01-1.93,1.19-3.12,2.6-3.12c0.89,0,1.49,0.42,1.75,0.89h0.02v-3.47L452,32.93L452,32.93z
		 M450.94,37.99c0-0.13-0.01-0.31-0.05-0.44c-0.16-0.67-0.73-1.22-1.52-1.22c-1.09,0-1.74,0.96-1.74,2.24
		c0,1.17,0.58,2.15,1.72,2.15c0.71,0,1.35-0.47,1.55-1.26c0.04-0.14,0.05-0.29,0.05-0.46L450.94,37.99L450.94,37.99z"/>
	<path d="M454.93,34.01c0.01,0.36-0.25,0.65-0.67,0.65c-0.37,0-0.64-0.29-0.64-0.65c0-0.37,0.28-0.66,0.66-0.66
		C454.68,33.35,454.93,33.62,454.93,34.01z M453.76,41.43v-5.8h1.06v5.8H453.76z"/>
	<path d="M456.56,37.21c0-0.6-0.01-1.09-0.05-1.57h0.94l0.06,0.96h0.02c0.29-0.55,0.96-1.09,1.92-1.09c0.8,0,2.05,0.48,2.05,2.47
		v3.47h-1.06V38.1c0-0.94-0.35-1.72-1.34-1.72c-0.7,0-1.24,0.49-1.42,1.08c-0.05,0.13-0.07,0.31-0.07,0.49v3.49h-1.06v-4.23H456.56z
		"/>
	<path d="M466.44,41.43l-0.08-0.73h-0.04c-0.32,0.46-0.95,0.86-1.77,0.86c-1.18,0-1.78-0.83-1.78-1.67c0-1.4,1.25-2.17,3.49-2.16
		v-0.12c0-0.48-0.13-1.34-1.32-1.34c-0.54,0-1.1,0.17-1.51,0.43l-0.24-0.7c0.48-0.31,1.18-0.52,1.91-0.52
		c1.77,0,2.21,1.21,2.21,2.37v2.17c0,0.5,0.02,1,0.1,1.39h-0.97V41.43z M466.28,38.48c-1.15-0.02-2.46,0.18-2.46,1.31
		c0,0.68,0.46,1.01,1,1.01c0.76,0,1.24-0.48,1.4-0.97c0.04-0.11,0.06-0.23,0.06-0.34V38.48z"/>
	<path d="M470.23,33.96v1.67h1.51v0.8h-1.51v3.13c0,0.72,0.2,1.13,0.79,1.13c0.28,0,0.48-0.04,0.61-0.07l0.05,0.79
		c-0.2,0.08-0.53,0.14-0.94,0.14c-0.49,0-0.89-0.16-1.14-0.44c-0.3-0.31-0.41-0.83-0.41-1.51v-3.17h-0.9v-0.8h0.9v-1.39
		L470.23,33.96z"/>
	<path d="M473.45,38.73c0.02,1.43,0.94,2.02,1.99,2.02c0.75,0,1.21-0.13,1.61-0.3l0.18,0.75c-0.37,0.17-1.01,0.36-1.93,0.36
		c-1.79,0-2.85-1.18-2.85-2.93s1.03-3.13,2.72-3.13c1.9,0,2.4,1.67,2.4,2.73c0,0.22-0.02,0.38-0.04,0.49L473.45,38.73L473.45,38.73z
		 M476.54,37.98c0.01-0.67-0.28-1.71-1.46-1.71c-1.07,0-1.54,0.98-1.62,1.71H476.54z"/>
	<path d="M481.45,33.35h4.35v0.88h-3.31v2.69h3.06v0.86h-3.06v3.66h-1.04V33.35z"/>
	<path d="M486.95,37.44c0-0.68-0.01-1.27-0.05-1.81h0.92l0.04,1.14h0.05c0.26-0.78,0.9-1.27,1.61-1.27c0.12,0,0.2,0.01,0.3,0.04v1
		c-0.11-0.02-0.22-0.04-0.36-0.04c-0.74,0-1.27,0.56-1.42,1.36c-0.02,0.14-0.05,0.31-0.05,0.49v3.09h-1.04V37.44z"/>
	<path d="M494.02,41.43l-0.08-0.73h-0.04c-0.32,0.46-0.95,0.86-1.77,0.86c-1.18,0-1.78-0.83-1.78-1.67c0-1.4,1.25-2.17,3.49-2.16
		v-0.12c0-0.48-0.13-1.34-1.32-1.34c-0.54,0-1.1,0.17-1.51,0.43l-0.24-0.7c0.48-0.31,1.18-0.52,1.91-0.52
		c1.77,0,2.21,1.21,2.21,2.37v2.17c0,0.5,0.02,1,0.1,1.39h-0.97V41.43z M493.87,38.48c-1.15-0.02-2.46,0.18-2.46,1.31
		c0,0.68,0.46,1.01,1,1.01c0.76,0,1.24-0.48,1.4-0.97c0.04-0.11,0.06-0.23,0.06-0.34V38.48z"/>
	<path d="M496.59,37.21c0-0.6-0.01-1.09-0.05-1.57h0.92l0.05,0.94h0.04c0.32-0.55,0.86-1.07,1.82-1.07c0.79,0,1.39,0.48,1.64,1.16
		h0.02c0.18-0.32,0.41-0.58,0.65-0.76c0.35-0.26,0.73-0.41,1.28-0.41c0.77,0,1.91,0.5,1.91,2.52v3.42h-1.03v-3.29
		c0-1.12-0.41-1.79-1.26-1.79c-0.6,0-1.07,0.44-1.25,0.96c-0.05,0.14-0.08,0.33-0.08,0.53v3.59h-1.03v-3.48
		c0-0.92-0.41-1.59-1.21-1.59c-0.66,0-1.14,0.53-1.31,1.06c-0.06,0.16-0.08,0.34-0.08,0.52v3.5h-1.03L496.59,37.21L496.59,37.21z"/>
	<path d="M507.19,38.73c0.02,1.43,0.94,2.02,1.99,2.02c0.76,0,1.21-0.13,1.61-0.3l0.18,0.75c-0.37,0.17-1.01,0.36-1.93,0.36
		c-1.79,0-2.85-1.18-2.85-2.93s1.03-3.13,2.72-3.13c1.89,0,2.4,1.67,2.4,2.73c0,0.22-0.02,0.38-0.04,0.49L507.19,38.73L507.19,38.73
		z M510.28,37.98c0.01-0.67-0.28-1.71-1.46-1.71c-1.07,0-1.54,0.98-1.62,1.71H510.28z"/>
</g>
<g>
	<path d="M380.58,53.46v8.08h-1.04v-8.08H380.58z"/>
	<path d="M382.49,57.32c0-0.6-0.01-1.09-0.05-1.57h0.94l0.06,0.96h0.02c0.29-0.55,0.96-1.09,1.92-1.09c0.8,0,2.05,0.48,2.05,2.47
		v3.47h-1.05v-3.35c0-0.94-0.35-1.71-1.34-1.71c-0.7,0-1.24,0.49-1.42,1.08c-0.05,0.13-0.07,0.31-0.07,0.49v3.49h-1.05v-4.24H382.49
		z"/>
	<path d="M389.4,55.74l1.14,3.26c0.19,0.53,0.35,1.01,0.47,1.49h0.04c0.13-0.48,0.3-0.96,0.49-1.49l1.13-3.26h1.1l-2.28,5.8h-1.01
		l-2.21-5.8H389.4z"/>
	<path d="M395.23,58.84c0.02,1.43,0.94,2.01,1.99,2.01c0.76,0,1.21-0.13,1.61-0.3l0.18,0.76c-0.37,0.17-1.01,0.36-1.93,0.36
		c-1.79,0-2.85-1.18-2.85-2.93s1.03-3.13,2.72-3.13c1.89,0,2.4,1.67,2.4,2.73c0,0.22-0.02,0.38-0.04,0.49h-4.08V58.84z
		 M398.33,58.09c0.01-0.67-0.28-1.71-1.46-1.71c-1.07,0-1.54,0.98-1.62,1.71H398.33z"/>
	<path d="M400.66,57.55c0-0.68-0.01-1.27-0.05-1.81h0.92l0.04,1.14h0.05c0.26-0.78,0.9-1.27,1.61-1.27c0.12,0,0.2,0.01,0.3,0.04v1
		c-0.11-0.02-0.22-0.04-0.36-0.04c-0.74,0-1.27,0.56-1.42,1.36c-0.02,0.14-0.05,0.31-0.05,0.49v3.09h-1.04V57.55z"/>
	<path d="M404.44,60.48c0.31,0.2,0.86,0.42,1.39,0.42c0.77,0,1.13-0.38,1.13-0.86c0-0.5-0.3-0.78-1.08-1.07
		c-1.04-0.37-1.54-0.95-1.54-1.64c0-0.94,0.76-1.7,2-1.7c0.59,0,1.1,0.17,1.43,0.36l-0.26,0.77c-0.23-0.14-0.65-0.34-1.19-0.34
		c-0.62,0-0.97,0.36-0.97,0.79c0,0.48,0.35,0.7,1.1,0.98c1.01,0.38,1.52,0.89,1.52,1.75c0,1.02-0.79,1.74-2.17,1.74
		c-0.64,0-1.22-0.16-1.63-0.4L404.44,60.48z"/>
	<path d="M409.92,58.84c0.02,1.43,0.94,2.01,1.99,2.01c0.76,0,1.21-0.13,1.61-0.3l0.18,0.76c-0.37,0.17-1.01,0.36-1.93,0.36
		c-1.79,0-2.85-1.18-2.85-2.93s1.03-3.13,2.72-3.13c1.89,0,2.4,1.67,2.4,2.73c0,0.22-0.02,0.38-0.04,0.49h-4.08V58.84z
		 M413.01,58.09c0.01-0.67-0.28-1.71-1.46-1.71c-1.07,0-1.54,0.98-1.62,1.71H413.01z"/>
	<path d="M417.92,53.46h1.04v3.9H419c0.22-0.31,0.43-0.6,0.64-0.86l2.47-3.03h1.29l-2.93,3.43l3.15,4.65h-1.24l-2.66-3.97
		l-0.77,0.89v3.08h-1.04v-8.09H417.92z"/>
	<path d="M425.69,54.12c0.01,0.36-0.25,0.65-0.67,0.65c-0.37,0-0.64-0.29-0.64-0.65c0-0.37,0.28-0.66,0.66-0.66
		C425.43,53.46,425.69,53.74,425.69,54.12z M424.51,61.55v-5.8h1.05v5.8H424.51z"/>
	<path d="M427.32,57.32c0-0.6-0.01-1.09-0.05-1.57h0.94l0.06,0.96h0.02c0.29-0.55,0.96-1.09,1.92-1.09c0.8,0,2.05,0.48,2.05,2.47
		v3.47h-1.05v-3.35c0-0.94-0.35-1.71-1.34-1.71c-0.7,0-1.24,0.49-1.42,1.08c-0.05,0.13-0.07,0.31-0.07,0.49v3.49h-1.05v-4.24H427.32
		z"/>
	<path d="M434.57,58.84c0.02,1.43,0.94,2.01,1.99,2.01c0.76,0,1.21-0.13,1.61-0.3l0.18,0.76c-0.37,0.17-1.01,0.36-1.93,0.36
		c-1.79,0-2.85-1.18-2.85-2.93s1.03-3.13,2.72-3.13c1.89,0,2.4,1.67,2.4,2.73c0,0.22-0.02,0.38-0.04,0.49h-4.08V58.84z
		 M437.66,58.09c0.01-0.67-0.28-1.71-1.46-1.71c-1.07,0-1.54,0.98-1.62,1.71H437.66z"/>
	<path d="M439.99,57.32c0-0.6-0.01-1.09-0.05-1.57h0.92l0.05,0.94h0.04c0.32-0.55,0.86-1.07,1.82-1.07c0.79,0,1.39,0.48,1.64,1.16
		h0.02c0.18-0.32,0.41-0.58,0.65-0.76c0.35-0.26,0.73-0.41,1.28-0.41c0.77,0,1.91,0.5,1.91,2.52v3.42h-1.03v-3.29
		c0-1.12-0.41-1.79-1.26-1.79c-0.6,0-1.07,0.44-1.25,0.96c-0.05,0.14-0.08,0.34-0.08,0.53v3.59h-1.03v-3.48
		c0-0.92-0.41-1.6-1.21-1.6c-0.66,0-1.14,0.53-1.31,1.06c-0.06,0.16-0.08,0.34-0.08,0.52v3.5h-1.03L439.99,57.32L439.99,57.32z"/>
	<path d="M453.21,61.55l-0.08-0.73h-0.04c-0.32,0.46-0.95,0.86-1.78,0.86c-1.17,0-1.77-0.83-1.77-1.67c0-1.4,1.25-2.17,3.49-2.16
		v-0.12c0-0.48-0.13-1.34-1.32-1.34c-0.54,0-1.1,0.17-1.51,0.43l-0.24-0.7c0.48-0.31,1.17-0.52,1.91-0.52
		c1.78,0,2.21,1.21,2.21,2.37v2.17c0,0.5,0.02,1,0.1,1.39h-0.97V61.55z M453.06,58.59c-1.15-0.02-2.46,0.18-2.46,1.31
		c0,0.68,0.46,1.01,1,1.01c0.76,0,1.24-0.48,1.4-0.97c0.04-0.11,0.06-0.23,0.06-0.34V58.59z"/>
	<path d="M457.01,54.07v1.67h1.51v0.8h-1.51v3.13c0,0.72,0.2,1.13,0.79,1.13c0.28,0,0.48-0.04,0.61-0.07l0.05,0.79
		c-0.2,0.08-0.53,0.14-0.94,0.14c-0.49,0-0.89-0.16-1.14-0.44c-0.3-0.31-0.41-0.83-0.41-1.51v-3.17h-0.9v-0.8h0.9v-1.39
		L457.01,54.07z"/>
	<path d="M460.88,54.12c0.01,0.36-0.25,0.65-0.67,0.65c-0.37,0-0.64-0.29-0.64-0.65c0-0.37,0.28-0.66,0.66-0.66
		C460.63,53.46,460.88,53.74,460.88,54.12z M459.71,61.55v-5.8h1.05v5.8H459.71z"/>
	<path d="M466.65,61.34c-0.28,0.14-0.89,0.34-1.67,0.34c-1.75,0-2.89-1.19-2.89-2.96c0-1.79,1.22-3.08,3.12-3.08
		c0.62,0,1.17,0.16,1.46,0.3l-0.24,0.82c-0.25-0.14-0.65-0.28-1.22-0.28c-1.33,0-2.05,0.98-2.05,2.19c0,1.34,0.86,2.17,2.01,2.17
		c0.6,0,1-0.16,1.29-0.29L466.65,61.34z"/>
	<path d="M467.75,60.48c0.31,0.2,0.86,0.42,1.39,0.42c0.77,0,1.13-0.38,1.13-0.86c0-0.5-0.3-0.78-1.08-1.07
		c-1.04-0.37-1.54-0.95-1.54-1.64c0-0.94,0.76-1.7,2-1.7c0.59,0,1.1,0.17,1.43,0.36l-0.26,0.77c-0.23-0.14-0.65-0.34-1.19-0.34
		c-0.62,0-0.97,0.36-0.97,0.79c0,0.48,0.35,0.7,1.1,0.98c1.01,0.38,1.52,0.89,1.52,1.75c0,1.02-0.79,1.74-2.17,1.74
		c-0.64,0-1.22-0.16-1.63-0.4L467.75,60.48z"/>
	<path d="M385.18,75.68c-0.38,0.19-1.15,0.38-2.13,0.38c-2.28,0-3.99-1.44-3.99-4.09c0-2.53,1.71-4.25,4.22-4.25
		c1.01,0,1.64,0.22,1.92,0.36l-0.25,0.85c-0.4-0.19-0.96-0.34-1.63-0.34c-1.89,0-3.15,1.21-3.15,3.33c0,1.98,1.14,3.25,3.11,3.25
		c0.64,0,1.28-0.13,1.7-0.34L385.18,75.68z"/>
	<path d="M391.58,72.99c0,2.15-1.49,3.08-2.89,3.08c-1.57,0-2.78-1.15-2.78-2.99c0-1.94,1.27-3.08,2.88-3.08
		C390.45,70.01,391.58,71.23,391.58,72.99z M386.98,73.05c0,1.27,0.73,2.23,1.76,2.23c1.01,0,1.76-0.95,1.76-2.25
		c0-0.98-0.49-2.23-1.74-2.23S386.98,71.96,386.98,73.05z"/>
	<path d="M398.17,72.99c0,2.15-1.49,3.08-2.89,3.08c-1.57,0-2.78-1.15-2.78-2.99c0-1.94,1.27-3.08,2.88-3.08
		C397.04,70.01,398.17,71.23,398.17,72.99z M393.56,73.05c0,1.27,0.73,2.23,1.76,2.23c1.01,0,1.76-0.95,1.76-2.25
		c0-0.98-0.49-2.23-1.74-2.23C394.1,70.8,393.56,71.96,393.56,73.05z"/>
	<path d="M399.5,71.96c0-0.68-0.01-1.27-0.05-1.81h0.92l0.04,1.14h0.05c0.26-0.78,0.9-1.27,1.61-1.27c0.12,0,0.2,0.01,0.3,0.04v1
		c-0.11-0.02-0.22-0.04-0.36-0.04c-0.74,0-1.27,0.56-1.42,1.36c-0.02,0.14-0.05,0.31-0.05,0.49v3.09h-1.04V71.96z"/>
	<path d="M408.32,67.43v7.02c0,0.52,0.01,1.1,0.05,1.5h-0.95l-0.05-1.01h-0.02c-0.32,0.65-1.03,1.14-1.98,1.14
		c-1.4,0-2.48-1.19-2.48-2.95c-0.01-1.93,1.19-3.12,2.6-3.12c0.89,0,1.49,0.42,1.75,0.89h0.02v-3.47L408.32,67.43L408.32,67.43z
		 M407.26,72.51c0-0.13-0.01-0.31-0.05-0.44c-0.16-0.67-0.73-1.22-1.52-1.22c-1.09,0-1.74,0.96-1.74,2.24
		c0,1.18,0.58,2.15,1.71,2.15c0.71,0,1.36-0.47,1.55-1.26c0.04-0.14,0.05-0.29,0.05-0.46V72.51z"/>
	<path d="M411.25,68.51c0.01,0.36-0.25,0.65-0.67,0.65c-0.37,0-0.64-0.29-0.64-0.65c0-0.37,0.28-0.66,0.66-0.66
		C411,67.85,411.25,68.15,411.25,68.51z M410.08,75.96v-5.8h1.05v5.8H410.08z"/>
	<path d="M412.88,71.71c0-0.6-0.01-1.09-0.05-1.57h0.94l0.06,0.96h0.02c0.29-0.55,0.96-1.09,1.92-1.09c0.8,0,2.05,0.48,2.05,2.47
		v3.47h-1.05V72.6c0-0.94-0.35-1.71-1.34-1.71c-0.7,0-1.24,0.49-1.42,1.08c-0.05,0.13-0.07,0.31-0.07,0.49v3.49h-1.05v-4.24H412.88z
		"/>
	<path d="M422.76,75.96l-0.08-0.73h-0.04c-0.32,0.46-0.95,0.86-1.78,0.86c-1.17,0-1.77-0.83-1.77-1.67c0-1.4,1.25-2.17,3.49-2.16
		v-0.12c0-0.48-0.13-1.34-1.32-1.34c-0.54,0-1.1,0.17-1.51,0.43l-0.24-0.7c0.48-0.31,1.17-0.52,1.91-0.52
		c1.78,0,2.21,1.21,2.21,2.37v2.17c0,0.5,0.02,1,0.1,1.39h-0.97V75.96z M422.6,72.99c-1.15-0.02-2.46,0.18-2.46,1.31
		c0,0.68,0.46,1.01,1,1.01c0.76,0,1.24-0.48,1.4-0.97c0.04-0.11,0.06-0.23,0.06-0.34V72.99z"/>
	<path d="M426.55,68.48v1.67h1.51v0.8h-1.51v3.13c0,0.72,0.2,1.13,0.79,1.13c0.28,0,0.48-0.04,0.61-0.07l0.05,0.79
		c-0.2,0.08-0.53,0.14-0.94,0.14c-0.49,0-0.89-0.16-1.14-0.44c-0.3-0.31-0.41-0.83-0.41-1.51v-3.17h-0.9v-0.8h0.9v-1.39
		L426.55,68.48z"/>
	<path d="M429.77,73.24c0.02,1.43,0.94,2.01,1.99,2.01c0.76,0,1.21-0.13,1.61-0.3l0.18,0.76c-0.37,0.17-1.01,0.36-1.93,0.36
		c-1.79,0-2.85-1.18-2.85-2.93S429.8,70,431.49,70c1.89,0,2.4,1.67,2.4,2.73c0,0.22-0.02,0.38-0.04,0.49h-4.08V73.24z M432.86,72.49
		c0.01-0.67-0.28-1.71-1.46-1.71c-1.07,0-1.54,0.98-1.62,1.71H432.86z"/>
	<path d="M437.77,67.87h4.35v0.88h-3.31v2.69h3.06v0.86h-3.06v3.66h-1.04V67.87z"/>
	<path d="M443.27,71.96c0-0.68-0.01-1.27-0.05-1.81h0.92l0.04,1.14h0.05c0.26-0.78,0.9-1.27,1.61-1.27c0.12,0,0.2,0.01,0.3,0.04v1
		c-0.11-0.02-0.22-0.04-0.36-0.04c-0.74,0-1.27,0.56-1.42,1.36c-0.02,0.14-0.05,0.31-0.05,0.49v3.09h-1.04V71.96z"/>
	<path d="M450.35,75.96l-0.08-0.73h-0.04c-0.32,0.46-0.95,0.86-1.78,0.86c-1.17,0-1.77-0.83-1.77-1.67c0-1.4,1.25-2.17,3.49-2.16
		v-0.12c0-0.48-0.13-1.34-1.32-1.34c-0.54,0-1.1,0.17-1.51,0.43l-0.24-0.7c0.48-0.31,1.17-0.52,1.91-0.52
		c1.78,0,2.21,1.21,2.21,2.37v2.17c0,0.5,0.02,1,0.1,1.39h-0.97V75.96z M450.19,72.99c-1.15-0.02-2.46,0.18-2.46,1.31
		c0,0.68,0.46,1.01,1,1.01c0.76,0,1.24-0.48,1.4-0.97c0.04-0.11,0.06-0.23,0.06-0.34V72.99z"/>
	<path d="M452.92,71.71c0-0.6-0.01-1.09-0.05-1.57h0.92l0.05,0.94h0.04c0.32-0.55,0.86-1.07,1.82-1.07c0.79,0,1.39,0.48,1.64,1.16
		h0.02c0.18-0.32,0.41-0.58,0.65-0.76c0.35-0.26,0.73-0.41,1.28-0.41c0.77,0,1.91,0.5,1.91,2.52v3.42h-1.03v-3.29
		c0-1.12-0.41-1.79-1.26-1.79c-0.6,0-1.07,0.44-1.25,0.96c-0.05,0.14-0.08,0.34-0.08,0.53v3.59h-1.03v-3.48
		c0-0.92-0.41-1.6-1.21-1.6c-0.66,0-1.14,0.53-1.31,1.06c-0.06,0.16-0.08,0.34-0.08,0.52v3.5h-1.03L452.92,71.71L452.92,71.71z"/>
	<path d="M463.51,73.24c0.02,1.43,0.94,2.01,1.99,2.01c0.76,0,1.21-0.13,1.61-0.3l0.18,0.76c-0.37,0.17-1.01,0.36-1.93,0.36
		c-1.79,0-2.85-1.18-2.85-2.93s1.03-3.13,2.72-3.13c1.89,0,2.4,1.67,2.4,2.73c0,0.22-0.02,0.38-0.04,0.49h-4.08V73.24z
		 M466.61,72.49c0.01-0.67-0.28-1.71-1.46-1.71c-1.07,0-1.54,0.98-1.62,1.71H466.61z"/>
</g>
<g>
	<line class="st2" x1="37.58" y1="364.71" x2="37.7" y2="336.45"/>
	<line class="st5" x1="37.58" y1="364.71" x2="37.7" y2="336.45"/>
</g>
<g>
	<path class="st7" d="M75.9,363.55v-4.58l-2.97-6.21h1.38l1.32,2.98c0.36,0.82,0.64,1.47,0.93,2.23h0.03
		c0.26-0.71,0.58-1.41,0.95-2.23l1.35-2.98h1.38l-3.15,6.19v4.59H75.9V363.55z"/>
	<path class="st7" d="M87.25,364.74v0.8h-6.97v-0.8H87.25z"/>
	<path class="st7" d="M96.33,358.05c0,3.71-1.96,5.68-4.36,5.68c-2.48,0-4.22-2.21-4.22-5.47c0-3.43,1.85-5.67,4.36-5.67
		C94.68,352.59,96.33,354.85,96.33,358.05z M89.05,358.22c0,2.3,1.09,4.37,3,4.37c1.92,0,3.01-2.03,3.01-4.48
		c0-2.14-0.98-4.39-3-4.39C90.05,353.73,89.05,355.85,89.05,358.22z"/>
	<path class="st7" d="M97.91,352.77h5.06v1.17h-3.84v3.59h3.55v1.15h-3.55v4.88h-1.21v-10.79H97.91z"/>
	<path class="st7" d="M104.69,352.77h5.06v1.17h-3.84v3.59h3.55v1.15h-3.55v4.88h-1.21v-10.79H104.69z"/>
	<path class="st7" d="M111.3,361.86c0.54,0.38,1.34,0.7,2.17,0.7c1.24,0,1.96-0.75,1.96-1.84c0-1.01-0.5-1.58-1.77-2.14
		c-1.53-0.62-2.48-1.54-2.48-3.06c0-1.68,1.21-2.93,3.04-2.93c0.96,0,1.66,0.26,2.08,0.53l-0.33,1.14
		c-0.31-0.19-0.93-0.51-1.78-0.51c-1.28,0-1.77,0.88-1.77,1.62c0,1.01,0.57,1.5,1.87,2.08c1.59,0.7,2.4,1.58,2.4,3.17
		c0,1.67-1.07,3.11-3.29,3.11c-0.91,0-1.9-0.3-2.4-0.69L111.3,361.86z"/>
	<path class="st7" d="M123.2,358.49h-3.65v3.89h4.07v1.17h-5.28v-10.79h5.07v1.17h-3.86v3.41h3.65L123.2,358.49L123.2,358.49z"/>
	<path class="st7" d="M127.2,353.95h-2.86v-1.18h6.95v1.18h-2.87v9.6h-1.23L127.2,353.95L127.2,353.95z"/>
</g>
<g>
	<line class="st2" x1="141.38" y1="358.84" x2="168.87" y2="358.84"/>
	<g>
		<line class="st0" x1="141.38" y1="358.84" x2="162.84" y2="358.84"/>
		<g>
			<path d="M168.87,358.84c-2.84,1.05-6.36,2.85-8.55,4.76l1.72-4.76l-1.72-4.75C162.51,355.98,166.03,357.79,168.87,358.84z"/>
		</g>
	</g>
</g>
<g>
	<line class="st2" x1="63.62" y1="358.84" x2="37.09" y2="358.84"/>
	<g>
		<line class="st0" x1="63.62" y1="358.84" x2="43.13" y2="358.84"/>
		<g>
			<path d="M37.09,358.84c2.84-1.05,6.36-2.85,8.55-4.76l-1.72,4.76l1.72,4.75C43.46,361.68,39.93,359.9,37.09,358.84z"/>
		</g>
	</g>
</g>
<line class="st5" x1="15.12" y1="338.29" x2="36.05" y2="338.38"/>
<line class="st5" x1="15.12" y1="230.04" x2="36.05" y2="230.12"/>
<g>
	<path class="st7" d="M26.04,305.79l-2.38,1.2c-0.91,0.49-1.5,0.79-2.13,1.09v0.03c0.62,0.26,1.2,0.53,2.14,1.02l2.37,1.13v1.39
		l-5.46-2.87l-5.33,2.76v-1.41l2.53-1.24c0.71-0.35,1.25-0.61,1.83-0.86V308c-0.64-0.27-1.14-0.5-1.83-0.85l-2.53-1.28v-1.39
		l5.25,2.86l5.54-2.93L26.04,305.79L26.04,305.79z"/>
	<path class="st7" d="M27.24,297.08h0.8v6.96h-0.8V297.08z"/>
	<path class="st7" d="M20.53,287.98c3.71,0,5.68,1.96,5.68,4.36c0,2.48-2.21,4.22-5.47,4.22c-3.43,0-5.67-1.85-5.67-4.36
		C15.07,289.65,17.33,287.98,20.53,287.98z M20.71,295.28c2.3,0,4.37-1.09,4.37-3c0-1.92-2.03-3.01-4.48-3.01
		c-2.14,0-4.39,0.98-4.39,3C16.21,294.28,18.34,295.28,20.71,295.28z"/>
	<path class="st7" d="M15.25,286.41v-5.06h1.17v3.85h3.59v-3.55h1.15v3.55h4.88v1.21H15.25z"/>
	<path class="st7" d="M15.25,279.64v-5.06h1.17v3.84h3.59v-3.55h1.15v3.55h4.88v1.21H15.25V279.64z"/>
	<path class="st7" d="M24.34,273.02c0.38-0.54,0.7-1.34,0.7-2.17c0-1.24-0.75-1.96-1.84-1.96c-1.01,0-1.58,0.5-2.14,1.77
		c-0.62,1.53-1.54,2.48-3.06,2.48c-1.68,0-2.93-1.21-2.93-3.04c0-0.96,0.26-1.66,0.53-2.08l1.14,0.33
		c-0.19,0.31-0.51,0.93-0.51,1.78c0,1.28,0.88,1.77,1.62,1.77c1.01,0,1.5-0.57,2.08-1.87c0.7-1.59,1.58-2.4,3.17-2.4
		c1.67,0,3.11,1.07,3.11,3.29c0,0.91-0.3,1.9-0.69,2.4L24.34,273.02z"/>
	<path class="st7" d="M20.98,261.12v3.65h3.89v-4.07h1.17v5.28H15.25v-5.07h1.17v3.86h3.41v-3.65L20.98,261.12L20.98,261.12z"/>
	<path class="st7" d="M16.43,257.12v2.86h-1.18v-6.95h1.18v2.87h9.6v1.23L16.43,257.12L16.43,257.12z"/>
</g>
<g>
	<line class="st0" x1="22.44" y1="248.18" x2="22.44" y2="237.35"/>
	<g>
		<path d="M22.44,231.32c1.05,2.84,2.85,6.36,4.76,8.55l-4.76-1.72l-4.75,1.72C19.59,237.69,21.38,234.16,22.44,231.32z"/>
	</g>
</g>
<g>
	<line class="st0" x1="22.44" y1="319.62" x2="22.44" y2="332.29"/>
	<g>
		<path d="M22.44,338.34c-1.05-2.84-2.85-6.36-4.76-8.55l4.76,1.72l4.75-1.72C25.29,331.97,23.49,335.49,22.44,338.34z"/>
	</g>
</g>
</svg>
