<?xml version="1.0" encoding="utf-8"?>
<!-- Generator: Adobe Illustrator 28.0.0, SVG Export Plug-In . SVG Version: 6.00 Build 0)  -->
<svg version="1.1" id="Layer_1" xmlns="http://www.w3.org/2000/svg" xmlns:xlink="http://www.w3.org/1999/xlink" x="0px" y="0px"
	 viewBox="0 0 1475 440" style="enable-background:new 0 0 1475 440;" xml:space="preserve">
<style type="text/css">
	.st0{fill:none;stroke:#000000;stroke-miterlimit:10;stroke-dasharray:5.9323,5.9323;}
	.st1{fill:none;stroke:#000000;stroke-miterlimit:10;stroke-dasharray:6.0852,6.0852;}
	.st2{fill:none;stroke:#000000;stroke-miterlimit:10;stroke-dasharray:6.0589,6.0589;}
	.st3{fill:none;stroke:#000000;stroke-miterlimit:10;stroke-dasharray:6.1934,6.1934;}
	.st4{fill:none;stroke:#000000;stroke-miterlimit:10;stroke-dasharray:5.9923,5.9923;}
	.st5{fill:none;stroke:#000000;stroke-miterlimit:10;}
	.st6{fill:none;stroke:#000000;stroke-miterlimit:10;stroke-dasharray:6.3036,6.3036;}
	.st7{fill:none;stroke:#000000;stroke-miterlimit:10;stroke-dasharray:5.7784,5.7784;}
	.st8{fill:none;stroke:#000000;stroke-miterlimit:10;stroke-dasharray:12.14,12.14;}
	.st9{fill:none;stroke:#000000;stroke-miterlimit:10;stroke-dasharray:11.6854,11.6854;}
	.st10{fill:none;stroke:#FF0000;stroke-miterlimit:10;}
	.st11{fill:none;stroke:#000000;stroke-miterlimit:10;stroke-dasharray:5.9282,5.9282;}
	.st12{fill:none;stroke:#000000;stroke-miterlimit:10;stroke-dasharray:6.3088,6.3088;}
	.st13{fill:none;stroke:#000000;stroke-miterlimit:10;stroke-dasharray:6.3089,6.3089;}
	.st14{fill:none;stroke:#000000;stroke-miterlimit:10;stroke-dasharray:11.8893,11.8893;}
	.st15{fill:none;stroke:#000000;stroke-miterlimit:10;stroke-dasharray:11.6685,11.6685;}
	.st16{fill:none;stroke:#FF0000;stroke-width:4;stroke-miterlimit:10;}
	.st17{fill:#FF0000;}
</style>
<g>
	<g>
		<g>
			<g>
				<path d="M50.23,31.08L647.68,73.8l-0.14,245.38l-613.68,9.07L50.23,31.08 M49.29,30.01L32.8,329.27l615.73-9.1l0.14-247.3
					L49.29,30.01L49.29,30.01z"/>
			</g>
		</g>
		<g>
			<path class="st0" d="M163.96,84.57c-0.58,13.09-13.82,23.08-29.7,22.28c-16.03-0.81-28.6-12.29-27.94-25.6
				c0.66-13.28,14.24-23.18,30.19-22.15C152.31,60.12,164.54,71.51,163.96,84.57z"/>
		</g>
		<g>
			<path class="st1" d="M155.39,277.27c-0.6,13.55-14.11,24.66-30.32,24.77c-16.36,0.12-29.18-10.99-28.5-24.78
				c0.68-13.76,14.55-24.78,30.82-24.66C143.52,252.72,155.99,263.75,155.39,277.27z"/>
		</g>
		<g>
			<path class="st2" d="M606.59,110.09c-0.05,11.39-9.7,20.15-21.63,19.54c-12.03-0.61-21.78-10.49-21.69-22.04
				c0.1-11.53,9.96-20.22,21.95-19.45C597.11,88.92,606.64,98.73,606.59,110.09z"/>
		</g>
		<g>
			<path class="st3" d="M605.86,277.34c-0.05,11.73-9.85,21.33-21.97,21.42c-12.22,0.09-22.13-9.52-22.03-21.43
				c0.1-11.89,10.12-21.43,22.3-21.34C596.23,256.09,605.91,265.64,605.86,277.34z"/>
		</g>
		<g>
			<path d="M373.25,154.8l0,1h0c0.5,0,1.01,0.01,1.51,0.03c18.54,0.73,33.33,14.85,32.96,31.49c-0.18,7.97-3.75,15.43-10.06,21
				c-6.35,5.6-14.76,8.69-23.69,8.69c-0.25,0-0.49,0-0.74-0.01c-9.79-0.19-19.07-4.14-25.47-10.84c-5.54-5.81-8.47-13.21-8.26-20.84
				c0.47-16.55,15.29-29.52,33.74-29.52L373.25,154.8 M373.25,154.8c-18.76,0-34.26,13.35-34.74,30.49
				c-0.5,17.67,15.13,32.34,34.7,32.71c0.25,0,0.51,0.01,0.76,0.01c18.98,0,34.38-13.62,34.76-30.67
				c0.38-17.23-14.71-31.75-33.92-32.51C374.28,154.81,373.76,154.8,373.25,154.8L373.25,154.8z"/>
		</g>
		<g>
			<path class="st4" d="M339.05,153.11c20.32-16.8,51.92-15.38,70.71,2.78c18.62,17.99,18.05,46.08-1.39,63.1
				c-19.75,17.3-51.66,16.87-71.16-1.35C317.54,199.25,318.42,170.18,339.05,153.11z"/>
		</g>
		<g>
			<g>
				<line class="st5" x1="377.36" y1="53.47" x2="377.28" y2="56.47"/>
				<line class="st6" x1="377.12" y1="62.77" x2="375.3" y2="135.24"/>
				<line class="st5" x1="375.22" y1="138.39" x2="375.14" y2="141.39"/>
			</g>
		</g>
		<g>
			<g>
				<line class="st5" x1="370.53" y1="324.28" x2="370.61" y2="321.28"/>
				<line class="st7" x1="370.75" y1="315.5" x2="372.72" y2="237.52"/>
				<line class="st5" x1="372.79" y1="234.63" x2="372.87" y2="231.63"/>
			</g>
		</g>
	</g>
	<g>
		<g>
			<polyline class="st5" points="687.23,376.81 687.23,382.81 681.23,382.81 			"/>
			<line class="st8" x1="669.09" y1="382.81" x2="19.6" y2="382.81"/>
			<polyline class="st5" points="13.53,382.81 7.53,382.81 7.53,376.81 			"/>
			<line class="st9" x1="7.53" y1="365.12" x2="7.53" y2="20.4"/>
			<polyline class="st5" points="7.53,14.56 7.53,8.56 13.53,8.56 			"/>
			<line class="st8" x1="25.67" y1="8.56" x2="675.16" y2="8.56"/>
			<polyline class="st5" points="681.23,8.56 687.23,8.56 687.23,14.56 			"/>
			<line class="st9" x1="687.23" y1="26.25" x2="687.23" y2="370.96"/>
		</g>
	</g>
	<circle class="st10" cx="48.61" cy="30.62" r="10"/>
	<circle class="st10" cx="33.34" cy="329.08" r="10"/>
	<circle class="st10" cx="647.99" cy="319.67" r="10"/>
	<circle class="st10" cx="647.83" cy="73.6" r="10"/>
</g>
<g>
	<g>
		<g>
			<path d="M1449.48,26.81v337.75h-677.5V26.81H1449.48 M1450.48,25.81h-679.5v339.75h679.5V25.81L1450.48,25.81z"/>
		</g>
	</g>
	<g>
		<circle class="st11" cx="855.93" cy="81.3" r="28.31"/>
	</g>
	<g>
		<circle class="st11" cx="855.93" cy="307.8" r="28.31"/>
	</g>
	<g>
		
			<ellipse transform="matrix(0.9998 -0.02 0.02 0.9998 -1.3523 27.3107)" class="st11" cx="1365.55" cy="81.3" rx="28.31" ry="28.31"/>
	</g>
	<g>
		<circle class="st11" cx="1365.55" cy="307.8" r="28.31"/>
	</g>
	<g>
		<path d="M1110.74,157.05c21.3,0,38.64,17.33,38.64,38.64s-17.33,38.64-38.64,38.64s-38.64-17.33-38.64-38.64
			S1089.43,157.05,1110.74,157.05 M1110.74,156.05c-21.89,0-39.64,17.75-39.64,39.64s17.75,39.64,39.64,39.64
			c21.89,0,39.64-17.75,39.64-39.64S1132.63,156.05,1110.74,156.05L1110.74,156.05z"/>
	</g>
	<g>
		<circle class="st11" cx="1110.74" cy="195.68" r="56.62"/>
	</g>
	<g>
		<g>
			<line class="st5" x1="1110.74" y1="25.81" x2="1110.74" y2="28.81"/>
			<line class="st12" x1="1110.74" y1="35.12" x2="1110.74" y2="132.91"/>
			<line class="st5" x1="1110.74" y1="136.06" x2="1110.74" y2="139.06"/>
		</g>
	</g>
	<g>
		<g>
			<line class="st5" x1="1110.74" y1="365.56" x2="1110.74" y2="362.56"/>
			<line class="st13" x1="1110.74" y1="356.25" x2="1110.74" y2="258.46"/>
			<line class="st5" x1="1110.74" y1="255.31" x2="1110.74" y2="252.31"/>
		</g>
	</g>
	<g>
		<g>
			<polyline class="st5" points="1467.47,376.55 1467.47,382.55 1461.47,382.55 			"/>
			<line class="st14" x1="1449.58" y1="382.55" x2="765.95" y2="382.55"/>
			<polyline class="st5" points="760,382.55 754,382.55 754,376.55 			"/>
			<line class="st15" x1="754" y1="364.88" x2="754" y2="20.66"/>
			<polyline class="st5" points="754,14.82 754,8.82 760,8.82 			"/>
			<line class="st14" x1="771.89" y1="8.82" x2="1455.53" y2="8.82"/>
			<polyline class="st5" points="1461.47,8.82 1467.47,8.82 1467.47,14.82 			"/>
			<line class="st15" x1="1467.47" y1="26.49" x2="1467.47" y2="370.71"/>
		</g>
	</g>
	<circle class="st10" cx="770.99" cy="25.81" r="11.32"/>
	<circle class="st10" cx="770.99" cy="365.56" r="11.32"/>
	<circle class="st10" cx="1450.48" cy="365.56" r="11.32"/>
	<circle class="st10" cx="1450.48" cy="25.81" r="11.32"/>
</g>
<g>
	<g>
		<line class="st16" x1="693.11" y1="195.68" x2="743.78" y2="195.68"/>
		<g>
			<polygon class="st17" points="730.52,212.04 727.79,209.11 742.24,195.69 727.79,182.26 730.52,179.33 748.11,195.69 			"/>
		</g>
	</g>
</g>
<g>
	<path class="st17" d="M267.82,399c1.58-0.32,3.85-0.5,6.01-0.5c3.35,0,5.51,0.61,7.02,1.98c1.22,1.08,1.91,2.74,1.91,4.61
		c0,3.2-2.02,5.33-4.57,6.19v0.11c1.87,0.65,2.99,2.38,3.56,4.9c0.79,3.38,1.37,5.72,1.87,6.66h-3.24c-0.4-0.68-0.94-2.77-1.62-5.8
		c-0.72-3.35-2.02-4.61-4.86-4.72h-2.95v10.51h-3.13V399z M270.95,410.05h3.2c3.35,0,5.47-1.84,5.47-4.61c0-3.13-2.27-4.5-5.58-4.54
		c-1.51,0-2.59,0.14-3.1,0.29V410.05z"/>
	<path class="st17" d="M297.16,422.94l-0.25-2.2h-0.11c-0.97,1.37-2.84,2.59-5.33,2.59c-3.53,0-5.33-2.48-5.33-5
		c0-4.21,3.74-6.52,10.47-6.48v-0.36c0-1.44-0.4-4.03-3.96-4.03c-1.62,0-3.31,0.5-4.54,1.3l-0.72-2.09
		c1.44-0.94,3.53-1.55,5.72-1.55c5.33,0,6.62,3.64,6.62,7.13v6.52c0,1.51,0.07,2.99,0.29,4.18H297.16z M296.69,414.05
		c-3.46-0.07-7.38,0.54-7.38,3.92c0,2.05,1.37,3.02,2.99,3.02c2.27,0,3.71-1.44,4.21-2.92c0.11-0.32,0.18-0.68,0.18-1.01V414.05z"/>
	<path class="st17" d="M305.83,405.52l2.3,8.85c0.5,1.94,0.97,3.74,1.3,5.54h0.11c0.4-1.76,0.97-3.64,1.55-5.51l2.84-8.89h2.66
		l2.7,8.71c0.65,2.09,1.15,3.92,1.55,5.69h0.11c0.29-1.76,0.76-3.6,1.33-5.65l2.48-8.75h3.13l-5.62,17.42h-2.88l-2.66-8.31
		c-0.61-1.94-1.12-3.67-1.55-5.72h-0.07c-0.43,2.09-0.97,3.89-1.58,5.76l-2.81,8.28h-2.88l-5.26-17.42H305.83z"/>
	<path class="st17" d="M338.81,398.68h13.07v2.63h-9.94v8.06h9.18v2.59h-9.18v10.98h-3.13V398.68z"/>
	<path class="st17" d="M355.3,410.95c0-2.05-0.04-3.82-0.14-5.44h2.77l0.11,3.42h0.14c0.79-2.34,2.7-3.82,4.82-3.82
		c0.36,0,0.61,0.04,0.9,0.11v2.99c-0.32-0.07-0.65-0.11-1.08-0.11c-2.23,0-3.82,1.69-4.25,4.07c-0.07,0.43-0.14,0.94-0.14,1.48v9.29
		h-3.13V410.95z"/>
	<path class="st17" d="M376.54,422.94l-0.25-2.2h-0.11c-0.97,1.37-2.84,2.59-5.33,2.59c-3.53,0-5.33-2.48-5.33-5
		c0-4.21,3.74-6.52,10.47-6.48v-0.36c0-1.44-0.4-4.03-3.96-4.03c-1.62,0-3.31,0.5-4.54,1.3l-0.72-2.09
		c1.44-0.94,3.53-1.55,5.72-1.55c5.33,0,6.62,3.64,6.62,7.13v6.52c0,1.51,0.07,2.99,0.29,4.18H376.54z M376.07,414.05
		c-3.46-0.07-7.38,0.54-7.38,3.92c0,2.05,1.37,3.02,2.99,3.02c2.27,0,3.71-1.44,4.21-2.92c0.11-0.32,0.18-0.68,0.18-1.01V414.05z"/>
	<path class="st17" d="M384.24,410.23c0-1.8-0.04-3.28-0.14-4.72h2.77l0.14,2.81h0.11c0.97-1.66,2.59-3.2,5.47-3.2
		c2.38,0,4.18,1.44,4.93,3.49h0.07c0.54-0.97,1.22-1.73,1.94-2.27c1.04-0.79,2.2-1.22,3.85-1.22c2.3,0,5.72,1.51,5.72,7.56v10.26
		h-3.1v-9.86c0-3.35-1.22-5.36-3.78-5.36c-1.8,0-3.2,1.33-3.74,2.88c-0.14,0.43-0.25,1.01-0.25,1.58v10.76h-3.1V412.5
		c0-2.77-1.22-4.79-3.64-4.79c-1.98,0-3.42,1.58-3.92,3.17c-0.18,0.47-0.25,1.01-0.25,1.55v10.51h-3.1V410.23z"/>
	<path class="st17" d="M416.03,414.8c0.07,4.28,2.81,6.05,5.98,6.05c2.27,0,3.64-0.4,4.82-0.9l0.54,2.27
		c-1.12,0.5-3.02,1.08-5.8,1.08c-5.36,0-8.57-3.53-8.57-8.78s3.1-9.4,8.17-9.4c5.69,0,7.2,5,7.2,8.21c0,0.65-0.07,1.15-0.11,1.48
		H416.03z M425.32,412.54c0.04-2.02-0.83-5.15-4.39-5.15c-3.2,0-4.61,2.95-4.86,5.15H425.32z"/>
</g>
<g>
	<path class="st17" d="M878.63,398.97c1.51-0.25,3.49-0.47,6.01-0.47c3.1,0,5.36,0.72,6.8,2.02c1.33,1.15,2.12,2.92,2.12,5.08
		c0,2.2-0.65,3.92-1.87,5.18c-1.66,1.76-4.36,2.66-7.42,2.66c-0.94,0-1.8-0.04-2.52-0.22v9.72h-3.13V398.97z M881.76,410.67
		c0.68,0.18,1.55,0.25,2.59,0.25c3.78,0,6.08-1.84,6.08-5.18c0-3.2-2.27-4.75-5.72-4.75c-1.37,0-2.41,0.11-2.95,0.25V410.67z"/>
	<path class="st17" d="M898.54,414.8c0.07,4.28,2.81,6.05,5.98,6.05c2.27,0,3.64-0.4,4.82-0.9l0.54,2.27
		c-1.12,0.5-3.02,1.08-5.8,1.08c-5.36,0-8.57-3.53-8.57-8.78s3.1-9.4,8.17-9.4c5.69,0,7.2,5,7.2,8.21c0,0.65-0.07,1.15-0.11,1.48
		H898.54z M907.82,412.54c0.04-2.02-0.83-5.15-4.39-5.15c-3.2,0-4.61,2.95-4.86,5.15H907.82z"/>
	<path class="st17" d="M914.81,410.95c0-2.05-0.04-3.82-0.14-5.44h2.77l0.11,3.42h0.14c0.79-2.34,2.7-3.82,4.82-3.82
		c0.36,0,0.61,0.04,0.9,0.11v2.99c-0.32-0.07-0.65-0.11-1.08-0.11c-2.23,0-3.82,1.69-4.25,4.07c-0.07,0.43-0.14,0.94-0.14,1.48v9.29
		h-3.13V410.95z"/>
	<path class="st17" d="M926.15,419.7c0.94,0.61,2.59,1.26,4.18,1.26c2.3,0,3.38-1.15,3.38-2.59c0-1.51-0.9-2.34-3.24-3.2
		c-3.13-1.12-4.61-2.84-4.61-4.93c0-2.81,2.27-5.11,6.01-5.11c1.76,0,3.31,0.5,4.28,1.08l-0.79,2.3c-0.68-0.43-1.94-1.01-3.56-1.01
		c-1.87,0-2.92,1.08-2.92,2.38c0,1.44,1.04,2.09,3.31,2.95c3.02,1.15,4.57,2.66,4.57,5.26c0,3.06-2.38,5.22-6.52,5.22
		c-1.91,0-3.67-0.47-4.9-1.19L926.15,419.7z"/>
	<path class="st17" d="M940.84,411.21c0-2.23-0.07-4.03-0.14-5.69h2.84l0.14,2.99h0.07c1.3-2.12,3.35-3.38,6.19-3.38
		c4.21,0,7.38,3.56,7.38,8.85c0,6.26-3.82,9.36-7.92,9.36c-2.3,0-4.32-1.01-5.36-2.74h-0.07v9.47h-3.13V411.21z M943.97,415.85
		c0,0.47,0.07,0.9,0.14,1.3c0.58,2.2,2.48,3.71,4.75,3.71c3.35,0,5.29-2.74,5.29-6.73c0-3.49-1.84-6.48-5.18-6.48
		c-2.16,0-4.18,1.55-4.79,3.92c-0.11,0.4-0.22,0.86-0.22,1.3V415.85z"/>
	<path class="st17" d="M963.08,414.8c0.07,4.28,2.81,6.05,5.98,6.05c2.27,0,3.64-0.4,4.82-0.9l0.54,2.27
		c-1.12,0.5-3.02,1.08-5.8,1.08c-5.36,0-8.57-3.53-8.57-8.78s3.1-9.4,8.17-9.4c5.69,0,7.2,5,7.2,8.21c0,0.65-0.07,1.15-0.11,1.48
		H963.08z M972.37,412.54c0.04-2.02-0.83-5.15-4.39-5.15c-3.2,0-4.61,2.95-4.86,5.15H972.37z"/>
	<path class="st17" d="M991.77,422.29c-0.83,0.43-2.66,1.01-5,1.01c-5.25,0-8.67-3.56-8.67-8.89c0-5.36,3.67-9.25,9.36-9.25
		c1.87,0,3.53,0.47,4.39,0.9l-0.72,2.45c-0.76-0.43-1.94-0.83-3.67-0.83c-4,0-6.16,2.95-6.16,6.59c0,4.03,2.59,6.52,6.05,6.52
		c1.8,0,2.99-0.47,3.89-0.86L991.77,422.29z"/>
	<path class="st17" d="M999.77,400.51v5h4.54v2.41h-4.54v9.4c0,2.16,0.61,3.38,2.38,3.38c0.83,0,1.44-0.11,1.84-0.22l0.14,2.38
		c-0.61,0.25-1.58,0.43-2.81,0.43c-1.48,0-2.66-0.47-3.42-1.33c-0.9-0.94-1.22-2.48-1.22-4.54v-9.5h-2.7v-2.41h2.7v-4.18
		L999.77,400.51z"/>
	<path class="st17" d="M1011.39,400.62c0.04,1.08-0.76,1.94-2.02,1.94c-1.12,0-1.91-0.86-1.91-1.94c0-1.12,0.83-1.98,1.98-1.98
		C1010.64,398.64,1011.39,399.51,1011.39,400.62z M1007.87,422.94v-17.42h3.17v17.42H1007.87z"/>
	<path class="st17" d="M1017.51,405.52l3.42,9.79c0.58,1.58,1.04,3.02,1.4,4.46h0.11c0.4-1.44,0.9-2.88,1.48-4.46l3.38-9.79h3.31
		l-6.84,17.42h-3.02l-6.62-17.42H1017.51z"/>
	<path class="st17" d="M1035.01,414.8c0.07,4.28,2.81,6.05,5.98,6.05c2.27,0,3.64-0.4,4.82-0.9l0.54,2.27
		c-1.12,0.5-3.02,1.08-5.8,1.08c-5.36,0-8.57-3.53-8.57-8.78s3.1-9.4,8.17-9.4c5.69,0,7.2,5,7.2,8.21c0,0.65-0.07,1.15-0.11,1.48
		H1035.01z M1044.3,412.54c0.04-2.02-0.83-5.15-4.39-5.15c-3.2,0-4.61,2.95-4.86,5.15H1044.3z"/>
	<path class="st17" d="M1062.15,401.34h-7.38v-2.66h17.96v2.66h-7.42v21.6h-3.17V401.34z"/>
	<path class="st17" d="M1073.71,410.95c0-2.05-0.04-3.82-0.14-5.44h2.77l0.11,3.42h0.14c0.79-2.34,2.7-3.82,4.82-3.82
		c0.36,0,0.61,0.04,0.9,0.11v2.99c-0.32-0.07-0.65-0.11-1.08-0.11c-2.23,0-3.82,1.69-4.25,4.07c-0.07,0.43-0.14,0.94-0.14,1.48v9.29
		h-3.13V410.95z"/>
	<path class="st17" d="M1094.95,422.94l-0.25-2.2h-0.11c-0.97,1.37-2.84,2.59-5.33,2.59c-3.53,0-5.33-2.48-5.33-5
		c0-4.21,3.74-6.52,10.47-6.48v-0.36c0-1.44-0.4-4.03-3.96-4.03c-1.62,0-3.31,0.5-4.54,1.3l-0.72-2.09
		c1.44-0.94,3.53-1.55,5.72-1.55c5.33,0,6.62,3.64,6.62,7.13v6.52c0,1.51,0.07,2.99,0.29,4.18H1094.95z M1094.48,414.05
		c-3.46-0.07-7.38,0.54-7.38,3.92c0,2.05,1.37,3.02,2.99,3.02c2.27,0,3.71-1.44,4.21-2.92c0.11-0.32,0.18-0.68,0.18-1.01V414.05z"/>
	<path class="st17" d="M1102.65,410.23c0-1.8-0.04-3.28-0.14-4.72h2.81l0.18,2.88h0.07c0.86-1.66,2.88-3.28,5.76-3.28
		c2.41,0,6.16,1.44,6.16,7.42v10.4h-3.17V412.9c0-2.81-1.04-5.15-4.03-5.15c-2.09,0-3.71,1.48-4.25,3.24
		c-0.14,0.4-0.22,0.94-0.22,1.48v10.47h-3.17V410.23z"/>
	<path class="st17" d="M1122.2,419.7c0.94,0.61,2.59,1.26,4.18,1.26c2.3,0,3.38-1.15,3.38-2.59c0-1.51-0.9-2.34-3.24-3.2
		c-3.13-1.12-4.61-2.84-4.61-4.93c0-2.81,2.27-5.11,6.01-5.11c1.76,0,3.31,0.5,4.28,1.08l-0.79,2.3c-0.68-0.43-1.94-1.01-3.56-1.01
		c-1.87,0-2.92,1.08-2.92,2.38c0,1.44,1.04,2.09,3.31,2.95c3.02,1.15,4.57,2.66,4.57,5.26c0,3.06-2.38,5.22-6.52,5.22
		c-1.91,0-3.67-0.47-4.9-1.19L1122.2,419.7z"/>
	<path class="st17" d="M1137.21,422.94v-15.01h-2.45v-2.41h2.45v-0.83c0-2.45,0.54-4.68,2.02-6.08c1.19-1.15,2.77-1.62,4.25-1.62
		c1.12,0,2.09,0.25,2.7,0.5l-0.43,2.45c-0.47-0.22-1.12-0.4-2.02-0.4c-2.7,0-3.38,2.38-3.38,5.04v0.94h4.21v2.41h-4.21v15.01
		H1137.21z"/>
	<path class="st17" d="M1162.7,414.08c0,6.44-4.46,9.25-8.67,9.25c-4.71,0-8.35-3.46-8.35-8.96c0-5.83,3.82-9.25,8.64-9.25
		C1159.32,405.12,1162.7,408.76,1162.7,414.08z M1148.88,414.26c0,3.82,2.2,6.69,5.29,6.69c3.02,0,5.29-2.84,5.29-6.77
		c0-2.95-1.48-6.69-5.22-6.69C1150.5,407.5,1148.88,410.95,1148.88,414.26z"/>
	<path class="st17" d="M1166.7,410.95c0-2.05-0.04-3.82-0.14-5.44h2.77l0.11,3.42h0.14c0.79-2.34,2.7-3.82,4.82-3.82
		c0.36,0,0.61,0.04,0.9,0.11v2.99c-0.32-0.07-0.65-0.11-1.08-0.11c-2.23,0-3.82,1.69-4.25,4.07c-0.07,0.43-0.14,0.94-0.14,1.48v9.29
		h-3.13V410.95z"/>
	<path class="st17" d="M1178.61,410.23c0-1.8-0.04-3.28-0.14-4.72h2.77l0.14,2.81h0.11c0.97-1.66,2.59-3.2,5.47-3.2
		c2.38,0,4.18,1.44,4.93,3.49h0.07c0.54-0.97,1.22-1.73,1.94-2.27c1.04-0.79,2.2-1.22,3.85-1.22c2.3,0,5.72,1.51,5.72,7.56v10.26
		h-3.1v-9.86c0-3.35-1.22-5.36-3.78-5.36c-1.8,0-3.2,1.33-3.74,2.88c-0.14,0.43-0.25,1.01-0.25,1.58v10.76h-3.1V412.5
		c0-2.77-1.22-4.79-3.63-4.79c-1.98,0-3.42,1.58-3.92,3.17c-0.18,0.47-0.25,1.01-0.25,1.55v10.51h-3.1V410.23z"/>
	<path class="st17" d="M1210.4,414.8c0.07,4.28,2.81,6.05,5.97,6.05c2.27,0,3.64-0.4,4.82-0.9l0.54,2.27
		c-1.12,0.5-3.02,1.08-5.79,1.08c-5.36,0-8.57-3.53-8.57-8.78s3.1-9.4,8.17-9.4c5.69,0,7.2,5,7.2,8.21c0,0.65-0.07,1.15-0.11,1.48
		H1210.4z M1219.69,412.54c0.04-2.02-0.83-5.15-4.39-5.15c-3.2,0-4.61,2.95-4.86,5.15H1219.69z"/>
	<path class="st17" d="M1241.72,397.38v21.06c0,1.55,0.04,3.31,0.14,4.5h-2.84l-0.14-3.02h-0.07c-0.97,1.94-3.1,3.42-5.94,3.42
		c-4.21,0-7.45-3.56-7.45-8.85c-0.04-5.8,3.56-9.36,7.81-9.36c2.66,0,4.46,1.26,5.26,2.66h0.07v-10.4H1241.72z M1238.55,412.61
		c0-0.4-0.04-0.94-0.14-1.33c-0.47-2.02-2.2-3.67-4.57-3.67c-3.28,0-5.22,2.88-5.22,6.73c0,3.53,1.73,6.44,5.15,6.44
		c2.12,0,4.07-1.4,4.64-3.78c0.11-0.43,0.14-0.86,0.14-1.37V412.61z"/>
	<path class="st17" d="M1254.72,398.68h13.07v2.63h-9.94v8.06h9.18v2.59h-9.18v10.98h-3.13V398.68z"/>
	<path class="st17" d="M1271.21,410.95c0-2.05-0.04-3.82-0.14-5.44h2.77l0.11,3.42h0.14c0.79-2.34,2.7-3.82,4.82-3.82
		c0.36,0,0.61,0.04,0.9,0.11v2.99c-0.32-0.07-0.65-0.11-1.08-0.11c-2.23,0-3.82,1.69-4.25,4.07c-0.07,0.43-0.14,0.94-0.14,1.48v9.29
		h-3.13V410.95z"/>
	<path class="st17" d="M1292.44,422.94l-0.25-2.2h-0.11c-0.97,1.37-2.84,2.59-5.33,2.59c-3.53,0-5.33-2.48-5.33-5
		c0-4.21,3.74-6.52,10.47-6.48v-0.36c0-1.44-0.4-4.03-3.96-4.03c-1.62,0-3.31,0.5-4.54,1.3l-0.72-2.09
		c1.44-0.94,3.53-1.55,5.72-1.55c5.33,0,6.62,3.64,6.62,7.13v6.52c0,1.51,0.07,2.99,0.29,4.18H1292.44z M1291.98,414.05
		c-3.46-0.07-7.38,0.54-7.38,3.92c0,2.05,1.37,3.02,2.99,3.02c2.27,0,3.71-1.44,4.21-2.92c0.11-0.32,0.18-0.68,0.18-1.01V414.05z"/>
	<path class="st17" d="M1300.15,410.23c0-1.8-0.04-3.28-0.14-4.72h2.77l0.14,2.81h0.11c0.97-1.66,2.59-3.2,5.47-3.2
		c2.38,0,4.18,1.44,4.93,3.49h0.07c0.54-0.97,1.22-1.73,1.94-2.27c1.04-0.79,2.2-1.22,3.85-1.22c2.3,0,5.72,1.51,5.72,7.56v10.26
		h-3.1v-9.86c0-3.35-1.22-5.36-3.78-5.36c-1.8,0-3.2,1.33-3.74,2.88c-0.14,0.43-0.25,1.01-0.25,1.58v10.76h-3.1V412.5
		c0-2.77-1.22-4.79-3.64-4.79c-1.98,0-3.42,1.58-3.92,3.17c-0.18,0.47-0.25,1.01-0.25,1.55v10.51h-3.1V410.23z"/>
	<path class="st17" d="M1331.94,414.8c0.07,4.28,2.81,6.05,5.98,6.05c2.27,0,3.64-0.4,4.82-0.9l0.54,2.27
		c-1.12,0.5-3.02,1.08-5.8,1.08c-5.36,0-8.57-3.53-8.57-8.78s3.1-9.4,8.17-9.4c5.69,0,7.2,5,7.2,8.21c0,0.65-0.07,1.15-0.11,1.48
		H1331.94z M1341.22,412.54c0.04-2.02-0.83-5.15-4.39-5.15c-3.2,0-4.61,2.95-4.86,5.15H1341.22z"/>
</g>
</svg>
