<?xml version="1.0" encoding="utf-8"?>
<!-- Generator: Adobe Illustrator 27.2.0, SVG Export Plug-In . SVG Version: 6.00 Build 0)  -->
<svg version="1.1" id="Layer_1" xmlns="http://www.w3.org/2000/svg" xmlns:xlink="http://www.w3.org/1999/xlink" x="0px" y="0px"
	 viewBox="0 0 300.49 280.7" style="enable-background:new 0 0 300.49 280.7;" xml:space="preserve">
<style type="text/css">
	.st0{fill:#084245;}
	.st1{fill:#FFFFFF;}
	.st2{fill:#064245;}
	.st3{fill:none;stroke:#064245;stroke-width:7;stroke-miterlimit:10;}
	.st4{fill:#00A96D;}
	.st5{fill:none;stroke:#084245;stroke-width:2;stroke-miterlimit:10;}
	.st6{fill:none;stroke:#084245;stroke-width:1.55;stroke-miterlimit:10;}
	.st7{fill:#FFFFFF;stroke:#FFFFFF;stroke-miterlimit:10;}
</style>
<path class="st0" d="M150.24,303.83L150.24,303.83c-88.37,0-160-71.63-160-160v0c0-88.37,71.63-160,160-160h0
	c88.37,0,160,71.63,160,160v0C310.24,232.19,238.61,303.83,150.24,303.83z"/>
<g>
	<path class="st1" d="M-206.95,129.45c-2.52,0-4.56-2.05-4.56-4.56V75.11c0-2.52,2.05-4.56,4.56-4.56h81.17
		c2.52,0,4.56,2.05,4.56,4.56v49.79c0,2.52-2.05,4.56-4.56,4.56H-206.95z"/>
	<path class="st2" d="M-125.77,74.05c0.59,0,1.06,0.48,1.06,1.06v49.79c0,0.59-0.48,1.06-1.06,1.06h-81.17
		c-0.59,0-1.06-0.48-1.06-1.06V75.11c0-0.59,0.48-1.06,1.06-1.06H-125.77 M-125.77,67.05h-81.17c-4.45,0-8.06,3.62-8.06,8.06v49.79
		c0,4.45,3.62,8.06,8.06,8.06h81.17c4.45,0,8.06-3.62,8.06-8.06V75.11C-117.71,70.66-121.33,67.05-125.77,67.05L-125.77,67.05z"/>
</g>
<line class="st3" x1="-166.36" y1="68.67" x2="-166.36" y2="131.33"/>
<ellipse class="st2" cx="-166.36" cy="100" rx="14.08" ry="13.77"/>
<path class="st2" d="M-124.71,85.01c-4.17,2.31-7.14,8.14-7.14,14.99c0,6.85,2.97,12.68,7.14,14.99L-124.71,85.01z"/>
<path class="st2" d="M-208.01,85.01c4.17,2.31,7.14,8.14,7.14,14.99c0,6.85-2.97,12.68-7.14,14.99L-208.01,85.01z"/>
<circle class="st4" cx="-148.19" cy="90.5" r="4.27"/>
<line class="st5" x1="-119.76" y1="179.11" x2="-135.39" y2="162.84"/>
<g>
	<g>
		<line class="st6" x1="-157.2" y1="185.55" x2="-135.39" y2="162.84"/>
		<g>
			<polygon class="st0" points="-160.99,189.49 -153.38,186.11 -156.92,185.25 -157.92,181.75 			"/>
		</g>
	</g>
</g>
<path class="st4" d="M243.6,115.22c-27.07,0.43-55.67,0.43-93.35,0.43c-37.96,0-61.3,0-93.79,0H30v5.76v9.47v36.29
	c0,45.53,53.84,82.45,120.25,82.45c66.41,0,120.25-36.91,120.25-82.45v-51.95H243.6z"/>
<path class="st4" d="M270.49,108.57c0-43.28-52.29-77.94-118.7-77.94S30,65.71,30,108.99s55.39,78.36,121.8,78.36
	S270.49,151.85,270.49,108.57z"/>
<path class="st7" d="M150.24,181.96c-63.19,0-114.6-32.73-114.6-72.97s51.41-72.97,114.6-72.97s114.6,32.73,114.6,72.97
	S213.44,181.96,150.24,181.96z M150.24,42.94c-59.65,0-108.18,29.63-108.18,66.05s48.53,66.05,108.18,66.05
	s108.18-29.63,108.18-66.05S209.89,42.94,150.24,42.94z"/>
<path class="st1" d="M197.61,66.77c0.68,0,1.34,0.04,2.02,0.05c-15-6.27-33.62-9.98-53.79-9.98c-49.65,0-89.9,22.49-89.9,50.23
	c0,22.03,25.39,40.74,60.71,47.51c-10.15-8.94-16.08-19.65-16.08-31.18C100.57,92.13,144.02,66.77,197.61,66.77z"/>
</svg>
