<?xml version="1.0" encoding="utf-8"?>
<!-- Generator: Adobe Illustrator 27.2.0, SVG Export Plug-In . SVG Version: 6.00 Build 0)  -->
<svg version="1.1" id="Layer_1" xmlns="http://www.w3.org/2000/svg" xmlns:xlink="http://www.w3.org/1999/xlink" x="0px" y="0px"
	 viewBox="0 0 575.02 409.03" style="enable-background:new 0 0 575.02 409.03;" xml:space="preserve">
<style type="text/css">
	.st0{stroke:#000000;stroke-width:0.3;stroke-miterlimit:10;}
	.st1{fill:none;}
	.st2{fill:#ED1C24;}
	.st3{fill:#ED1C24;stroke:#ED1C24;stroke-width:0.3;stroke-miterlimit:10;}
</style>
<g>
	<g>
		<rect x="53.13" y="30.39" width="1" height="328.15"/>
	</g>
	<g>
		<g>
			<path d="M53.63,24.35c1.05,2.84,2.85,6.36,4.76,8.55l-4.76-1.72l-4.75,1.72C50.77,30.71,52.57,27.19,53.63,24.35z"/>
		</g>
	</g>
</g>
<g>
	<g>
		<rect x="53.73" y="358.01" width="485.88" height="1"/>
	</g>
	<g>
		<g>
			<path d="M545.64,358.39c-2.84,1.06-6.36,2.85-8.54,4.76l1.72-4.76l-1.72-4.75C539.28,355.54,542.8,357.34,545.64,358.39z"/>
		</g>
	</g>
</g>
<g>
	<path d="M362.45,359.13H185.39l-54.72-168.4l0.29-0.21L273.92,86.66l0.29,0.21l142.95,103.86l-0.11,0.35L362.45,359.13z
		 M186.12,358.13h175.61l54.27-167.01L273.92,87.9L131.85,191.12L186.12,358.13z"/>
</g>
<g>
	<path d="M230.33,374.43c0.74-0.13,1.62-0.22,2.58-0.22c1.74,0,2.98,0.46,3.8,1.34c0.84,0.88,1.32,2.13,1.32,3.87
		c0,1.76-0.47,3.2-1.35,4.19c-0.88,1.01-2.33,1.55-4.15,1.55c-0.86,0-1.59-0.05-2.2-0.13V374.43z M231.54,383.97
		c0.31,0.06,0.75,0.08,1.23,0.08c2.59,0,4-1.67,4-4.58c0.01-2.54-1.24-4.16-3.8-4.16c-0.63,0-1.1,0.06-1.42,0.14V383.97z"/>
	<path d="M240.82,374.28v10.79h-1.21v-10.79H240.82z"/>
	<path d="M242.77,383.37c0.54,0.38,1.34,0.7,2.17,0.7c1.24,0,1.96-0.75,1.96-1.84c0-1.01-0.5-1.58-1.77-2.14
		c-1.53-0.62-2.48-1.54-2.48-3.06c0-1.68,1.21-2.93,3.04-2.93c0.96,0,1.66,0.26,2.08,0.53l-0.33,1.14
		c-0.31-0.19-0.93-0.51-1.78-0.51c-1.28,0-1.77,0.88-1.77,1.62c0,1.01,0.57,1.5,1.87,2.08c1.59,0.7,2.4,1.58,2.4,3.17
		c0,1.67-1.07,3.11-3.29,3.11c-0.91,0-1.9-0.3-2.4-0.69L242.77,383.37z"/>
	<path d="M249.8,374.41c0.59-0.11,1.35-0.21,2.33-0.21c1.2,0,2.08,0.32,2.63,0.9c0.52,0.51,0.82,1.3,0.82,2.26
		c0,0.98-0.25,1.74-0.72,2.3c-0.64,0.78-1.69,1.18-2.87,1.18c-0.36,0-0.7-0.02-0.98-0.1v4.32h-1.21V374.41z M251.01,379.61
		c0.26,0.08,0.6,0.11,1,0.11c1.46,0,2.35-0.82,2.35-2.31c0-1.42-0.88-2.11-2.22-2.11c-0.53,0-0.93,0.05-1.14,0.11V379.61z"/>
	<path d="M257.21,374.28h1.21v9.62h4.01v1.17h-5.22V374.28z"/>
	<path d="M265.3,381.68l-0.98,3.39h-1.25l3.19-10.79h1.46l3.2,10.79h-1.3l-1-3.39H265.3z M268.38,380.59l-0.92-3.11
		c-0.21-0.7-0.35-1.34-0.49-1.97h-0.03c-0.14,0.64-0.29,1.3-0.47,1.95l-0.92,3.12H268.38z"/>
	<path d="M278.66,384.72c-0.45,0.26-1.34,0.51-2.48,0.51c-2.65,0-4.64-1.92-4.64-5.46c0-3.38,1.99-5.67,4.9-5.67
		c1.17,0,1.91,0.29,2.23,0.48l-0.29,1.14c-0.46-0.26-1.11-0.45-1.89-0.45c-2.2,0-3.66,1.62-3.66,4.45c0,2.64,1.32,4.34,3.61,4.34
		c0.74,0,1.49-0.18,1.98-0.45L278.66,384.72z"/>
	<path d="M285.04,380.01h-3.65v3.89h4.07v1.17h-5.28v-10.79h5.07v1.17h-3.86v3.41h3.65V380.01z"/>
	<path d="M294.94,380.33c-0.07-1.5-0.15-3.31-0.14-4.66h-0.04c-0.32,1.26-0.71,2.61-1.18,4.1l-1.66,5.23H291l-1.52-5.14
		c-0.45-1.52-0.82-2.91-1.09-4.19h-0.03c-0.03,1.34-0.1,3.15-0.18,4.77l-0.25,4.63h-1.16l0.66-10.79h1.55l1.6,5.22
		c0.39,1.33,0.71,2.51,0.95,3.63h0.04c0.24-1.09,0.57-2.27,0.99-3.63l1.67-5.22h1.55l0.58,10.79h-1.18L294.94,380.33z"/>
	<path d="M303.09,380.01h-3.65v3.89h4.07v1.17h-5.28v-10.79h5.07v1.17h-3.86v3.41h3.65V380.01z"/>
	<path d="M305.08,385.07v-10.79h1.32l3.01,5.46c0.7,1.26,1.24,2.4,1.69,3.5l0.03-0.02c-0.11-1.44-0.14-2.75-0.14-4.43v-4.51h1.14
		v10.79h-1.23l-2.98-5.47c-0.65-1.2-1.28-2.43-1.75-3.6l-0.04,0.02c0.07,1.36,0.1,2.66,0.1,4.45v4.61H305.08z"/>
	<path d="M316.03,375.47h-2.86v-1.18h6.95v1.18h-2.87v9.6h-1.23V375.47z"/>
</g>
<g>
	<g>
		<rect x="325.85" y="378.7" width="30.25" height="1"/>
	</g>
	<g>
		<g>
			<path d="M362.14,379.2c-2.84,1.05-6.36,2.85-8.55,4.76l1.72-4.76l-1.72-4.75C355.78,376.35,359.3,378.15,362.14,379.2z"/>
		</g>
	</g>
</g>
<g>
	<g>
		<rect x="191.73" y="378.7" width="32.26" height="1"/>
	</g>
	<g>
		<g>
			<path d="M185.7,379.2c2.84-1.05,6.36-2.85,8.55-4.76l-1.72,4.76l1.72,4.75C192.06,382.05,188.54,380.26,185.7,379.2z"/>
		</g>
	</g>
</g>
<g>
	<path d="M135.33,134.31l1.09,3.4l-1.17,0.85l-3.38-10.88l1.36-0.99l9.32,6.56l-1.2,0.88l-2.93-2.07L135.33,134.31z M137.55,131.35
		l-2.68-1.89c-0.61-0.43-1.11-0.85-1.61-1.26l-0.03,0.02c0.25,0.61,0.49,1.25,0.71,1.9l0.98,3.15L137.55,131.35z"/>
	<path d="M137.58,123.71c0.49-0.53,1.25-1.19,2.03-1.75c1.2-0.88,2.14-1.22,3.04-1.12c0.72,0.07,1.4,0.49,1.89,1.16
		c0.84,1.15,0.67,2.44-0.03,3.42l0.03,0.04c0.84-0.26,1.7,0.07,2.56,0.83c1.17,1.01,1.99,1.7,2.41,1.91l-1.17,0.85
		c-0.32-0.14-1.06-0.75-2.1-1.66c-1.13-1.02-1.93-1.13-2.98-0.43l-1.06,0.77l2.75,3.78l-1.13,0.82L137.58,123.71z M141.59,126.87
		l1.15-0.84c1.2-0.88,1.49-2.09,0.76-3.09c-0.82-1.13-1.99-1.03-3.19-0.17c-0.54,0.4-0.89,0.73-1.04,0.91L141.59,126.87z"/>
	<path d="M155.37,118.09c-0.95-1.17-2.09-2.58-2.87-3.67l-0.04,0.03c0.45,1.24,0.87,2.59,1.31,4.11l1.54,5.35l-0.85,0.62l-4.43-3.13
		c-1.31-0.93-2.48-1.8-3.47-2.66l-0.03,0.02c0.76,1.11,1.76,2.62,2.63,3.98l2.49,3.91l-1.08,0.78l-5.73-9.17l1.44-1.04l4.56,3.14
		c1.14,0.81,2.14,1.55,3.02,2.3l0.04-0.03c-0.42-1.04-0.8-2.22-1.22-3.61l-1.51-5.35l1.44-1.04l6.89,8.33l-1.1,0.8L155.37,118.09z"
		/>
	<path d="M167.4,116.69l0.47,0.65l-6.48,4.7l-0.47-0.65L167.4,116.69z"/>
	<path d="M161.34,106.28l1.13-0.82l5.65,7.78l3.73-2.71l0.69,0.95l-4.86,3.53L161.34,106.28z"/>
	<path d="M175.33,103.19l-3.39,2.47l2.29,3.15l3.78-2.75l0.69,0.95l-4.91,3.57l-6.34-8.73l4.71-3.42l0.69,0.95l-3.59,2.61l2,2.76
		l3.39-2.47L175.33,103.19z"/>
	<path d="M180.15,105.94l-6.34-8.73l1.23-0.89l6,2.38c1.39,0.55,2.56,1.1,3.63,1.7l0.02-0.03c-0.95-1.09-1.75-2.13-2.74-3.49
		l-2.65-3.65l1.06-0.77l6.34,8.73l-1.14,0.83l-5.99-2.42c-1.31-0.53-2.62-1.1-3.75-1.73l-0.03,0.04c0.87,1.05,1.65,2.08,2.71,3.53
		l2.71,3.73L180.15,105.94z"/>
	<path d="M195.03,94.53c-0.37,0.55-1.15,1.57-2.33,2.43c-1.32,0.96-2.65,1.41-4.1,1.22c-1.28-0.18-2.59-1.01-3.58-2.37
		c-1.88-2.61-1.47-5.81,1.45-7.94c1.01-0.73,1.96-1.09,2.47-1.18l0.4,1.12c-0.62,0.13-1.32,0.39-2.2,1.03
		c-2.12,1.54-2.55,3.87-0.96,6.06c1.61,2.21,3.89,2.55,5.93,1.08c0.74-0.54,1.17-1.01,1.33-1.32l-1.89-2.6l-1.77,1.29l-0.66-0.91
		l2.88-2.09L195.03,94.53z"/>
	<path d="M193.05,84.7l-2.65,1.93l-0.7-0.96l6.46-4.69l0.7,0.96l-2.67,1.94l5.65,7.77l-1.14,0.83L193.05,84.7z"/>
	<path d="M198.25,79.45l2.65,3.65l4.22-3.07l-2.65-3.65l1.14-0.83l6.34,8.73l-1.14,0.83l-2.97-4.09l-4.22,3.07l2.97,4.09L203.47,89
		l-6.34-8.73L198.25,79.45z"/>
	<path d="M210.56,70.12c-0.02,1.96,0.51,4.14,2.22,6.48c1.67,2.3,3.59,3.44,5.45,4.07l-0.89,0.65c-1.6-0.48-3.68-1.5-5.52-4.02
		c-1.84-2.56-2.18-4.85-2.15-6.53L210.56,70.12z"/>
	<path d="M211.99,69.48l1.13-0.82l5.65,7.78l3.73-2.71l0.69,0.95l-4.86,3.53L211.99,69.48z"/>
	<path d="M224.85,75.86c-0.01-1.95-0.52-4.15-2.22-6.48c-1.68-2.32-3.59-3.47-5.45-4.07l0.88-0.64c1.6,0.46,3.67,1.49,5.53,4.04
		c1.84,2.54,2.17,4.81,2.14,6.52L224.85,75.86z"/>
</g>
<g>
	<g>
		<rect x="230.7" y="57.54" transform="matrix(0.8034 -0.5955 0.5955 0.8034 12.0421 152.5443)" width="12.64" height="1"/>
	</g>
	<g>
		<g>
			<path d="M246.94,50.68c-1.65,2.54-3.41,6.08-4.03,8.91l-1.45-4.84l-4.21-2.8C240.13,52.18,244.03,51.53,246.94,50.68z"/>
		</g>
	</g>
</g>
<g>
	<rect x="202.68" y="132.32" transform="matrix(0.8094 -0.5873 0.5873 0.8094 -42.7826 145.7819)" width="1" height="12.95"/>
</g>
<g>
	<rect x="338.44" y="138.3" transform="matrix(0.5874 -0.8093 0.8093 0.5874 29.9814 336.4027)" width="12.95" height="1"/>
</g>
<g>
	<rect x="390.03" y="266.99" transform="matrix(0.309 -0.9511 0.9511 0.309 10.4153 559.9404)" width="1" height="11.63"/>
</g>
<g>
	<rect x="152.02" y="272.3" transform="matrix(0.9512 -0.3086 0.3086 0.9512 -76.4834 62.0232)" width="11.63" height="1"/>
</g>
<g>
	<path class="st0" d="M148.35,338.23c-1.17,1.57-2.02,3.65-2.02,6.55c0,2.85,0.88,4.9,2.02,6.5h-1.1c-1.01-1.33-2.1-3.38-2.1-6.5
		c0.02-3.15,1.09-5.2,2.1-6.55H148.35z"/>
	<path class="st0" d="M156.31,344.03c0,3.54-1.31,5.49-3.62,5.49c-2.03,0-3.41-1.9-3.44-5.35c0-3.49,1.5-5.41,3.62-5.41
		C155.06,338.76,156.31,340.71,156.31,344.03z M150.66,344.19c0,2.71,0.83,4.24,2.11,4.24c1.44,0,2.13-1.68,2.13-4.34
		c0-2.56-0.66-4.24-2.11-4.24C151.55,339.85,150.66,341.35,150.66,344.19z"/>
	<path class="st0" d="M157.14,351.31c0.35-0.94,0.78-2.66,0.96-3.83l1.57-0.16c-0.37,1.36-1.07,3.14-1.52,3.89L157.14,351.31z"/>
	<path class="st0" d="M171.22,344.03c0,3.54-1.31,5.49-3.62,5.49c-2.03,0-3.41-1.9-3.44-5.35c0-3.49,1.5-5.41,3.62-5.41
		C169.97,338.76,171.22,340.71,171.22,344.03z M165.57,344.19c0,2.71,0.83,4.24,2.11,4.24c1.44,0,2.13-1.68,2.13-4.34
		c0-2.56-0.66-4.24-2.11-4.24C166.46,339.85,165.57,341.35,165.57,344.19z"/>
	<path class="st0" d="M172.11,351.28c1.14-1.58,2.02-3.67,2.02-6.55c0-2.86-0.86-4.91-2.02-6.5h1.09c1.02,1.31,2.1,3.36,2.1,6.51
		c0,3.14-1.07,5.17-2.1,6.53H172.11z"/>
</g>
<g>
	<path class="st1" d="M215.13,358.53c0-16.93-17.61-30.64-39.37-30.64"/>
</g>
<g>
	<path class="st1" d="M398.1,358.46c0-14.15-12.36-25.6-27.63-25.6"/>
</g>
<g>
	<path d="M398.6,358.46h-1c0-13.84-12.17-25.1-27.13-25.1v-1C385.97,332.36,398.6,344.07,398.6,358.46z"/>
</g>
<g>
	<path d="M209.42,358.46h-1c0-13.84-13.9-25.1-31-25.1v-1C195.07,332.36,209.42,344.07,209.42,358.46z"/>
</g>
<g>
	<g>
		<rect x="274.35" y="87.14" transform="matrix(0.9511 -0.309 0.309 0.9511 -14.4013 89.3363)" width="1" height="6"/>
	</g>
	<g>
		<path d="M356.09,341.78l-3.67-11.3l0.95-0.31l3.67,11.3L356.09,341.78z M348.74,319.18l-3.67-11.3l0.95-0.31l3.67,11.3
			L348.74,319.18z M341.4,296.57l-3.67-11.3l0.95-0.31l3.67,11.3L341.4,296.57z M334.05,273.97l-3.67-11.3l0.95-0.31l3.67,11.3
			L334.05,273.97z M326.71,251.37l-3.67-11.3l0.95-0.31l3.67,11.3L326.71,251.37z M319.36,228.76l-3.67-11.3l0.95-0.31l3.67,11.3
			L319.36,228.76z M312.02,206.16l-3.67-11.3l0.95-0.31l3.67,11.3L312.02,206.16z M304.68,183.56l-3.67-11.3l0.95-0.31l3.67,11.3
			L304.68,183.56z M297.33,160.95l-3.67-11.3l0.95-0.31l3.67,11.3L297.33,160.95z M289.99,138.35l-3.67-11.3l0.95-0.31l3.67,11.3
			L289.99,138.35z M282.64,115.75l-3.67-11.3l0.95-0.31l3.67,11.3L282.64,115.75z"/>
	</g>
	<g>
		<rect x="360.66" y="352.78" transform="matrix(0.9511 -0.3089 0.3089 0.9511 -92.2369 128.9596)" width="1" height="6"/>
	</g>
</g>
<g>
	<path d="M186.23,358.79l-0.95-0.31l3.71-11.41l0.95,0.31L186.23,358.79z M193.64,335.96l-0.95-0.31l3.71-11.41l0.95,0.31
		L193.64,335.96z M201.06,313.14l-0.95-0.31l3.71-11.41l0.95,0.31L201.06,313.14z M208.48,290.31l-0.95-0.31l3.71-11.41l0.95,0.31
		L208.48,290.31z M215.89,267.49l-0.95-0.31l3.71-11.41l0.95,0.31L215.89,267.49z M223.31,244.66l-0.95-0.31l3.71-11.41l0.95,0.31
		L223.31,244.66z M230.73,221.84l-0.95-0.31l3.71-11.41l0.95,0.31L230.73,221.84z M238.14,199.01l-0.95-0.31l3.71-11.41l0.95,0.31
		L238.14,199.01z M245.56,176.19l-0.95-0.31l3.71-11.41l0.95,0.31L245.56,176.19z M252.97,153.36l-0.95-0.31l3.71-11.41l0.95,0.31
		L252.97,153.36z M260.39,130.54l-0.95-0.31l3.71-11.41l0.95,0.31L260.39,130.54z M267.81,107.71l-0.95-0.31l3.71-11.41l0.95,0.31
		L267.81,107.71z"/>
</g>
<g>
	<path d="M274.94,80.22c0.62,0.38,1.54,0.7,2.5,0.7c1.42,0,2.26-0.75,2.26-1.84c0-1.01-0.58-1.58-2.03-2.14
		c-1.76-0.62-2.85-1.54-2.85-3.06c0-1.68,1.39-2.93,3.49-2.93c1.1,0,1.9,0.26,2.38,0.53l-0.38,1.14c-0.35-0.19-1.07-0.51-2.05-0.51
		c-1.47,0-2.03,0.88-2.03,1.62c0,1.01,0.66,1.5,2.15,2.08c1.82,0.7,2.75,1.58,2.75,3.17c0,1.67-1.23,3.11-3.78,3.11
		c-1.04,0-2.18-0.3-2.75-0.69L274.94,80.22z"/>
	<path d="M289.43,70.8c-1.17,1.57-2.02,3.65-2.02,6.55c0,2.85,0.88,4.9,2.02,6.5h-1.1c-1.01-1.33-2.1-3.38-2.1-6.5
		c0.02-3.15,1.09-5.2,2.1-6.55H289.43z"/>
	<path d="M291.57,74.17l1.1,1.67c0.29,0.43,0.53,0.83,0.78,1.26h0.05c0.26-0.46,0.51-0.86,0.77-1.28l1.09-1.65h1.52l-2.64,3.75
		l2.72,4h-1.6l-1.14-1.75c-0.3-0.45-0.56-0.88-0.83-1.34h-0.03c-0.26,0.46-0.53,0.88-0.82,1.34l-1.12,1.75h-1.55l2.75-3.95
		L290,74.17H291.57z"/>
	<path d="M297.41,83.88c0.35-0.94,0.78-2.66,0.96-3.83l1.57-0.16c-0.37,1.36-1.07,3.14-1.52,3.89L297.41,83.88z"/>
	<path d="M305.54,74.17l1.7,4.58c0.18,0.51,0.37,1.12,0.5,1.58h0.03c0.14-0.46,0.3-1.06,0.5-1.62l1.54-4.55h1.49l-2.11,5.52
		c-1.01,2.66-1.7,4.02-2.66,4.85c-0.69,0.61-1.38,0.85-1.73,0.91l-0.35-1.18c0.35-0.11,0.82-0.34,1.23-0.69
		c0.38-0.3,0.86-0.85,1.18-1.57c0.06-0.14,0.11-0.26,0.11-0.34s-0.03-0.19-0.1-0.37L304,74.17H305.54z"/>
	<path d="M311.71,83.85c1.14-1.58,2.02-3.67,2.02-6.55c0-2.86-0.86-4.91-2.02-6.5h1.09c1.02,1.31,2.1,3.36,2.1,6.51
		c0,3.14-1.07,5.17-2.1,6.53H311.71z"/>
</g>
<g>
	<path d="M273.82,87.36l-1.18-1.61l0.2-0.15l1.18,1.61L273.82,87.36z M271.46,84.13l-1.18-1.61l0.2-0.15l1.18,1.61L271.46,84.13z
		 M269.09,80.9l-1.18-1.61l0.2-0.15l1.18,1.61L269.09,80.9z M266.73,77.67l-1.18-1.61l0.2-0.15l1.18,1.61L266.73,77.67z
		 M264.37,74.45l-1.18-1.61l0.2-0.15l1.18,1.61L264.37,74.45z M262,71.22l-1.18-1.61l0.2-0.15l1.18,1.61L262,71.22z M259.64,67.99
		l-1.18-1.61l0.2-0.15l1.18,1.61L259.64,67.99z M257.28,64.76l-1.18-1.61l0.2-0.15l1.18,1.61L257.28,64.76z M254.91,61.54
		l-1.18-1.61l0.2-0.15l1.18,1.61L254.91,61.54z M252.55,58.31l-1.18-1.61l0.2-0.15l1.18,1.61L252.55,58.31z M250.19,55.08
		l-1.18-1.61l0.2-0.15l1.18,1.61L250.19,55.08z M247.82,51.85l-1.18-1.61l0.2-0.15l1.18,1.61L247.82,51.85z M245.46,48.63
		l-1.18-1.61l0.2-0.15l1.18,1.61L245.46,48.63z"/>
</g>
<g>
	<path d="M131.16,191l-1.11-1.66l0.21-0.14l1.11,1.66L131.16,191z M128.94,187.67l-1.11-1.66l0.21-0.14l1.11,1.66L128.94,187.67z
		 M126.72,184.34l-1.11-1.66l0.21-0.14l1.11,1.66L126.72,184.34z M124.5,181.01l-1.11-1.66l0.21-0.14l1.11,1.66L124.5,181.01z
		 M122.28,177.69l-1.11-1.66l0.21-0.14l1.11,1.66L122.28,177.69z M120.06,174.36l-1.11-1.66l0.21-0.14l1.11,1.66L120.06,174.36z
		 M117.85,171.03l-1.11-1.66l0.21-0.14l1.11,1.66L117.85,171.03z M115.63,167.7l-1.11-1.66l0.21-0.14l1.11,1.66L115.63,167.7z
		 M113.41,164.37l-1.11-1.66l0.21-0.14l1.11,1.66L113.41,164.37z M111.19,161.04l-1.11-1.66l0.21-0.14l1.11,1.66L111.19,161.04z
		 M108.97,157.72l-1.11-1.66l0.21-0.14l1.11,1.66L108.97,157.72z M106.75,154.39l-1.11-1.66l0.21-0.14l1.11,1.66L106.75,154.39z
		 M104.53,151.06l-1.11-1.66l0.21-0.14l1.11,1.66L104.53,151.06z"/>
</g>
<g>
	<path d="M516.53,370.04l1.1,1.67c0.29,0.43,0.53,0.83,0.78,1.26h0.05c0.26-0.46,0.51-0.86,0.77-1.28l1.09-1.65h1.52l-2.64,3.75
		l2.72,4h-1.6l-1.14-1.75c-0.3-0.45-0.56-0.88-0.83-1.34h-0.03c-0.26,0.46-0.53,0.88-0.82,1.34l-1.12,1.75h-1.55l2.75-3.95
		l-2.63-3.79H516.53z"/>
</g>
<g>
	<path d="M38.91,40.1l1.7,4.58c0.18,0.51,0.37,1.12,0.5,1.58h0.03c0.14-0.46,0.3-1.06,0.5-1.62l1.54-4.55h1.49l-2.11,5.52
		c-1.01,2.66-1.7,4.02-2.66,4.85c-0.69,0.61-1.38,0.85-1.73,0.91l-0.35-1.18c0.35-0.11,0.82-0.34,1.23-0.69
		c0.38-0.3,0.86-0.85,1.18-1.57c0.06-0.14,0.11-0.26,0.11-0.34s-0.03-0.19-0.1-0.37l-2.87-7.14H38.91z"/>
</g>
<g>
</g>
<g>
	<path d="M200.89,328c0-2.75,1.29-4.84,3.65-4.84c2.4,0,3.51,1.95,3.51,4.84c0,3.03-1.14,5.01-3.56,5.01
		C202.26,333.01,200.89,331.33,200.89,328z M206.69,327.49c-0.02-1.91-0.72-3.46-2.23-3.46c-1.39,0-2.21,1.63-2.21,3.46H206.69z
		 M202.24,328.38c0,2.4,0.94,3.75,2.28,3.75c1.47,0,2.17-1.56,2.17-3.75H202.24z"/>
</g>
<g>
	<path d="M393.98,326.09c-0.74,0.45-1.64,1.35-1.64,2.81c0,1.35,0.75,2.47,2.27,2.7v-4.13c0-1.46,0.83-2.05,1.78-2.05
		c1.38,0,2.87,1.28,2.87,3.35c0,2.33-1.71,3.55-3.47,3.72v2.64h-1.17v-2.64c-1.74-0.13-3.53-1.18-3.53-3.57
		c0-1.95,1.45-3.13,2.4-3.52L393.98,326.09z M395.79,331.59c1.38-0.18,2.26-1.22,2.26-2.79c0-1.39-0.84-2.48-1.65-2.48
		c-0.36,0-0.61,0.31-0.61,0.95V331.59z"/>
</g>
<g>
	<path d="M193.54,208.98v9.36c0,0.69,0.02,1.47,0.06,2h-1.26l-0.06-1.34h-0.03c-0.43,0.86-1.38,1.52-2.64,1.52
		c-1.87,0-3.31-1.58-3.31-3.94c-0.02-2.58,1.58-4.16,3.47-4.16c1.18,0,1.98,0.56,2.34,1.18h0.03v-4.63H193.54z M192.14,215.75
		c0-0.18-0.02-0.42-0.06-0.59c-0.21-0.9-0.98-1.63-2.03-1.63c-1.46,0-2.32,1.28-2.32,2.99c0,1.57,0.77,2.87,2.29,2.87
		c0.94,0,1.81-0.62,2.06-1.68c0.05-0.19,0.06-0.38,0.06-0.61V215.75z"/>
	<path d="M197.45,210.42c0.02,0.48-0.34,0.86-0.9,0.86c-0.5,0-0.85-0.38-0.85-0.86c0-0.5,0.37-0.88,0.88-0.88
		C197.11,209.54,197.45,209.92,197.45,210.42z M195.88,220.34v-7.75h1.41v7.75H195.88z"/>
	<path d="M203.91,220.34l-0.11-0.98h-0.05c-0.43,0.61-1.26,1.15-2.37,1.15c-1.57,0-2.37-1.1-2.37-2.22c0-1.87,1.67-2.9,4.66-2.88
		v-0.16c0-0.64-0.18-1.79-1.76-1.79c-0.72,0-1.47,0.22-2.02,0.58l-0.32-0.93c0.64-0.42,1.57-0.69,2.54-0.69
		c2.37,0,2.95,1.62,2.95,3.17v2.9c0,0.67,0.03,1.33,0.13,1.86H203.91z M203.7,216.39c-1.54-0.03-3.28,0.24-3.28,1.74
		c0,0.91,0.61,1.34,1.33,1.34c1.01,0,1.65-0.64,1.87-1.3c0.05-0.14,0.08-0.3,0.08-0.45V216.39z"/>
	<path d="M214.01,212.6c-0.03,0.56-0.06,1.18-0.06,2.13v4.5c0,1.78-0.35,2.87-1.1,3.54c-0.75,0.7-1.84,0.93-2.82,0.93
		c-0.93,0-1.95-0.22-2.58-0.64l0.35-1.07c0.51,0.32,1.31,0.61,2.27,0.61c1.44,0,2.5-0.75,2.5-2.71v-0.86h-0.03
		c-0.43,0.72-1.26,1.3-2.46,1.3c-1.92,0-3.3-1.63-3.3-3.78c0-2.62,1.71-4.11,3.49-4.11c1.34,0,2.08,0.7,2.42,1.34h0.03l0.06-1.17
		H214.01z M212.55,215.65c0-0.24-0.02-0.45-0.08-0.64c-0.26-0.82-0.94-1.49-1.97-1.49c-1.34,0-2.31,1.14-2.31,2.93
		c0,1.52,0.77,2.79,2.29,2.79c0.86,0,1.65-0.54,1.95-1.44c0.08-0.24,0.11-0.51,0.11-0.75V215.65z"/>
	<path d="M218.89,211.25h-0.03l-1.81,0.98l-0.27-1.07l2.27-1.22h1.2v10.4h-1.36V211.25z"/>
</g>
<g>
	<path d="M185.76,385.91l-0.25,0l0.01-2l0.25,0L185.76,385.91z M185.77,381.91l-0.25,0l0.01-2l0.25,0L185.77,381.91z M185.79,377.91
		h-0.25l0.01-2h0.25L185.79,377.91z M185.81,373.91l-0.25,0l0.01-2l0.25,0L185.81,373.91z M185.82,369.91l-0.25,0l0.01-2l0.25,0
		L185.82,369.91z M185.84,365.91l-0.25,0l0.01-2l0.25,0L185.84,365.91z M185.86,361.91l-0.25,0l0.01-2l0.25,0L185.86,361.91z
		 M185.87,357.91l-0.25,0l0-0.78l0.25,0L185.87,357.91z"/>
</g>
<g>
	<path d="M362.08,385.23l-0.01-2l0.25,0l0.01,2L362.08,385.23z M362.06,381.23l-0.01-2l0.25,0l0.01,2L362.06,381.23z M362.05,377.23
		l-0.01-2l0.25,0l0.01,2L362.05,377.23z M362.03,373.23l-0.01-2l0.25,0l0.01,2L362.03,373.23z M362.01,369.23l-0.01-2l0.25,0l0.01,2
		L362.01,369.23z M361.99,365.23l-0.01-2l0.25,0l0.01,2L361.99,365.23z M361.97,361.23l-0.01-2l0.25,0l0.01,2L361.97,361.23z"/>
</g>
<g>
	<path d="M333.8,208.98v9.36c0,0.69,0.02,1.47,0.06,2h-1.26l-0.06-1.34h-0.03c-0.43,0.86-1.38,1.52-2.64,1.52
		c-1.87,0-3.31-1.58-3.31-3.94c-0.02-2.58,1.58-4.16,3.47-4.16c1.18,0,1.98,0.56,2.34,1.18h0.03v-4.63H333.8z M332.39,215.75
		c0-0.18-0.02-0.42-0.06-0.59c-0.21-0.9-0.98-1.63-2.03-1.63c-1.46,0-2.32,1.28-2.32,2.99c0,1.57,0.77,2.87,2.29,2.87
		c0.94,0,1.81-0.62,2.06-1.68c0.05-0.19,0.06-0.38,0.06-0.61V215.75z"/>
	<path d="M337.7,210.42c0.02,0.48-0.34,0.86-0.9,0.86c-0.5,0-0.85-0.38-0.85-0.86c0-0.5,0.37-0.88,0.88-0.88
		C337.36,209.54,337.7,209.92,337.7,210.42z M336.13,220.34v-7.75h1.41v7.75H336.13z"/>
	<path d="M344.16,220.34l-0.11-0.98H344c-0.43,0.61-1.26,1.15-2.37,1.15c-1.57,0-2.37-1.1-2.37-2.22c0-1.87,1.67-2.9,4.66-2.88
		v-0.16c0-0.64-0.18-1.79-1.76-1.79c-0.72,0-1.47,0.22-2.02,0.58l-0.32-0.93c0.64-0.42,1.57-0.69,2.54-0.69
		c2.37,0,2.95,1.62,2.95,3.17v2.9c0,0.67,0.03,1.33,0.13,1.86H344.16z M343.96,216.39c-1.54-0.03-3.28,0.24-3.28,1.74
		c0,0.91,0.61,1.34,1.33,1.34c1.01,0,1.65-0.64,1.87-1.3c0.05-0.14,0.08-0.3,0.08-0.45V216.39z"/>
	<path d="M354.26,212.6c-0.03,0.56-0.06,1.18-0.06,2.13v4.5c0,1.78-0.35,2.87-1.1,3.54c-0.75,0.7-1.84,0.93-2.82,0.93
		c-0.93,0-1.95-0.22-2.58-0.64l0.35-1.07c0.51,0.32,1.31,0.61,2.27,0.61c1.44,0,2.5-0.75,2.5-2.71v-0.86h-0.03
		c-0.43,0.72-1.26,1.3-2.46,1.3c-1.92,0-3.3-1.63-3.3-3.78c0-2.62,1.71-4.11,3.49-4.11c1.34,0,2.08,0.7,2.42,1.34h0.03l0.06-1.17
		H354.26z M352.8,215.65c0-0.24-0.02-0.45-0.08-0.64c-0.26-0.82-0.94-1.49-1.97-1.49c-1.34,0-2.3,1.14-2.3,2.93
		c0,1.52,0.77,2.79,2.29,2.79c0.86,0,1.65-0.54,1.95-1.44c0.08-0.24,0.11-0.51,0.11-0.75V215.65z"/>
	<path d="M356.08,220.34v-0.86l1.1-1.07c2.66-2.53,3.86-3.87,3.87-5.44c0-1.06-0.51-2.03-2.06-2.03c-0.94,0-1.73,0.48-2.21,0.88
		l-0.45-0.99c0.72-0.61,1.75-1.06,2.95-1.06c2.24,0,3.19,1.54,3.19,3.03c0,1.92-1.39,3.47-3.59,5.59l-0.83,0.77v0.03h4.67v1.17
		H356.08z"/>
</g>
<g>
	<path d="M139.45,278.54l-1.12,3.39h-1.44l3.67-10.79h1.68l3.68,10.79h-1.49l-1.15-3.39H139.45z M142.99,277.45l-1.06-3.11
		c-0.24-0.7-0.4-1.34-0.56-1.97h-0.03c-0.16,0.64-0.34,1.3-0.54,1.95l-1.06,3.12H142.99z"/>
</g>
<g>
	<path d="M360.01,126.9c-0.51,0.26-1.54,0.51-2.85,0.51c-3.04,0-5.33-1.92-5.33-5.46c0-3.38,2.29-5.67,5.63-5.67
		c1.34,0,2.19,0.29,2.56,0.48l-0.34,1.14c-0.53-0.26-1.28-0.45-2.18-0.45c-2.53,0-4.21,1.62-4.21,4.45c0,2.64,1.52,4.34,4.15,4.34
		c0.85,0,1.71-0.18,2.27-0.45L360.01,126.9z"/>
</g>
<g>
	<path d="M189.48,117.64c0.61-0.13,1.57-0.22,2.55-0.22c1.39,0,2.29,0.24,2.96,0.78c0.56,0.42,0.9,1.06,0.9,1.9
		c0,1.04-0.69,1.95-1.82,2.37v0.03c1.02,0.26,2.22,1.1,2.22,2.71c0,0.93-0.37,1.63-0.91,2.16c-0.75,0.69-1.97,1.01-3.73,1.01
		c-0.96,0-1.7-0.06-2.16-0.13V117.64z M190.87,122.06h1.26c1.47,0,2.34-0.77,2.34-1.81c0-1.26-0.96-1.76-2.37-1.76
		c-0.64,0-1.01,0.05-1.23,0.1V122.06z M190.87,127.23c0.27,0.05,0.67,0.06,1.17,0.06c1.44,0,2.77-0.53,2.77-2.1
		c0-1.47-1.26-2.08-2.79-2.08h-1.15V127.23z"/>
</g>
<g>
	<path d="M403.12,271.29c0.85-0.13,1.86-0.22,2.96-0.22c2,0,3.42,0.46,4.37,1.34c0.96,0.88,1.52,2.13,1.52,3.87
		c0,1.76-0.54,3.2-1.55,4.19c-1.01,1.01-2.67,1.55-4.77,1.55c-0.99,0-1.82-0.05-2.53-0.13V271.29z M404.52,280.83
		c0.35,0.06,0.87,0.08,1.41,0.08c2.98,0,4.59-1.67,4.59-4.58c0.02-2.54-1.42-4.16-4.37-4.16c-0.72,0-1.26,0.06-1.63,0.14V280.83z"/>
</g>
<g>
	<g>
		<rect x="53.13" y="196.29" class="st2" width="1" height="53.97"/>
	</g>
	<g>
		<g>
			<path class="st2" d="M53.63,190.26c1.05,2.84,2.85,6.36,4.76,8.55l-4.76-1.72l-4.75,1.72C50.77,196.62,52.57,193.1,53.63,190.26z
				"/>
		</g>
	</g>
</g>
<g>
	<g>
		<rect x="53.63" y="249.93" class="st2" width="53.96" height="1"/>
	</g>
	<g>
		<g>
			<path class="st2" d="M113.63,250.42c-2.84,1.05-6.36,2.85-8.55,4.76l1.72-4.76l-1.72-4.75
				C107.26,247.57,110.79,249.37,113.63,250.42z"/>
		</g>
	</g>
</g>
<g>
	<path class="st3" d="M19.2,229.27c-1.17,1.57-2.02,3.65-2.02,6.55c0,2.85,0.88,4.9,2.02,6.5h-1.1c-1.01-1.33-2.1-3.38-2.1-6.5
		c0.02-3.15,1.09-5.2,2.1-6.55H19.2z"/>
	<path class="st3" d="M27.15,235.06c0,3.54-1.31,5.49-3.62,5.49c-2.03,0-3.41-1.9-3.44-5.35c0-3.49,1.5-5.41,3.62-5.41
		C25.9,229.8,27.15,231.75,27.15,235.06z M21.5,235.22c0,2.71,0.83,4.24,2.11,4.24c1.44,0,2.13-1.68,2.13-4.34
		c0-2.56-0.66-4.24-2.11-4.24C22.4,230.89,21.5,232.39,21.5,235.22z"/>
	<path class="st3" d="M27.98,242.35c0.35-0.94,0.78-2.66,0.96-3.83l1.57-0.16c-0.37,1.36-1.07,3.14-1.52,3.89L27.98,242.35z"/>
	<path class="st3" d="M42.06,235.06c0,3.54-1.31,5.49-3.62,5.49c-2.03,0-3.41-1.9-3.44-5.35c0-3.49,1.5-5.41,3.62-5.41
		C40.82,229.8,42.06,231.75,42.06,235.06z M36.41,235.22c0,2.71,0.83,4.24,2.11,4.24c1.44,0,2.13-1.68,2.13-4.34
		c0-2.56-0.66-4.24-2.11-4.24C37.31,230.89,36.41,232.39,36.41,235.22z"/>
	<path class="st3" d="M42.96,242.31c1.14-1.58,2.02-3.67,2.02-6.55c0-2.87-0.86-4.91-2.02-6.5h1.09c1.02,1.31,2.1,3.36,2.1,6.51
		c0,3.14-1.07,5.17-2.1,6.53H42.96z"/>
</g>
<g>
	<path class="st2" d="M41.93,201.24l1.1,1.67c0.29,0.43,0.53,0.83,0.78,1.26h0.05c0.26-0.46,0.51-0.86,0.77-1.28l1.09-1.65h1.52
		l-2.64,3.75l2.72,4h-1.6l-1.14-1.75c-0.3-0.45-0.56-0.88-0.83-1.34h-0.03c-0.26,0.46-0.53,0.88-0.82,1.34l-1.12,1.75h-1.55
		l2.75-3.95l-2.63-3.79H41.93z"/>
</g>
<g>
	<path class="st2" d="M97.11,257.62l1.9,4.5c0.2,0.5,0.42,1.1,0.57,1.56l0.03,0c0.12-0.47,0.26-1.07,0.42-1.64l1.33-4.61l1.49-0.07
		l-1.86,5.61c-0.89,2.7-1.52,4.09-2.44,4.96c-0.66,0.64-1.34,0.91-1.69,0.99l-0.4-1.17c0.35-0.13,0.8-0.37,1.2-0.74
		c0.37-0.32,0.83-0.89,1.11-1.62c0.06-0.15,0.1-0.26,0.1-0.34s-0.04-0.19-0.11-0.36l-3.18-7L97.11,257.62z"/>
</g>
<g>
	<rect x="374.12" y="51.8" class="st2" width="10" height="10"/>
	<path class="st2" d="M384.62,62.3h-11v-11h11V62.3z M374.62,61.3h9v-9h-9V61.3z"/>
</g>
<g>
	<rect x="374.12" y="71.91" width="10" height="10"/>
	<path d="M384.62,82.41h-11v-11h11V82.41z M374.62,81.41h9v-9h-9V81.41z"/>
</g>
<g>
	<path d="M402.01,57.67c0,2.78-1.69,4.26-3.75,4.26c-2.13,0-3.63-1.66-3.63-4.1c0-2.57,1.59-4.25,3.75-4.25
		C400.58,53.58,402.01,55.28,402.01,57.67z M395.74,57.81c0,1.73,0.94,3.27,2.58,3.27c1.65,0,2.59-1.52,2.59-3.36
		c0-1.61-0.84-3.29-2.58-3.29C396.6,54.44,395.74,56.03,395.74,57.81z"/>
	<path d="M403.34,57.89c0-0.74-0.02-1.34-0.05-1.89h0.95l0.05,1h0.02c0.43-0.71,1.12-1.13,2.06-1.13c1.4,0,2.46,1.19,2.46,2.95
		c0,2.09-1.27,3.12-2.64,3.12c-0.77,0-1.44-0.34-1.79-0.91h-0.02v3.15h-1.04V57.89z M404.38,59.44c0,0.16,0.02,0.3,0.05,0.43
		c0.19,0.73,0.83,1.24,1.58,1.24c1.12,0,1.76-0.91,1.76-2.24c0-1.16-0.61-2.16-1.73-2.16c-0.72,0-1.39,0.52-1.59,1.31
		c-0.04,0.13-0.07,0.29-0.07,0.43V59.44z"/>
	<path d="M410.75,59.09c0.02,1.43,0.94,2.02,1.99,2.02c0.75,0,1.21-0.13,1.61-0.3l0.18,0.75c-0.37,0.17-1.01,0.36-1.93,0.36
		c-1.79,0-2.85-1.18-2.85-2.93s1.03-3.13,2.72-3.13c1.9,0,2.4,1.67,2.4,2.73c0,0.22-0.02,0.38-0.04,0.49H410.75z M413.85,58.33
		c0.01-0.67-0.28-1.71-1.46-1.71c-1.07,0-1.54,0.98-1.62,1.71H413.85z"/>
	<path d="M416.17,57.57c0-0.6-0.01-1.09-0.05-1.57h0.94l0.06,0.96h0.02c0.29-0.55,0.96-1.09,1.92-1.09c0.8,0,2.05,0.48,2.05,2.47
		v3.47h-1.06v-3.35c0-0.94-0.35-1.72-1.34-1.72c-0.7,0-1.24,0.49-1.42,1.08c-0.05,0.13-0.07,0.31-0.07,0.49v3.49h-1.06V57.57z"/>
	<path d="M428.52,61.54c-0.38,0.19-1.15,0.38-2.13,0.38c-2.28,0-3.99-1.44-3.99-4.09c0-2.53,1.71-4.25,4.22-4.25
		c1.01,0,1.64,0.22,1.92,0.36l-0.25,0.85c-0.4-0.19-0.96-0.34-1.63-0.34c-1.9,0-3.15,1.21-3.15,3.33c0,1.98,1.14,3.25,3.11,3.25
		c0.64,0,1.28-0.13,1.7-0.34L428.52,61.54z"/>
	<path d="M431.75,61.8l-2.64-8.08h1.13l1.26,3.98c0.35,1.09,0.65,2.07,0.86,3.02h0.02c0.23-0.94,0.56-1.96,0.92-3.01l1.37-3.99h1.12
		l-2.89,8.08H431.75z"/>
	<path d="M444.86,61.54c-0.38,0.19-1.15,0.38-2.13,0.38c-2.28,0-3.99-1.44-3.99-4.09c0-2.53,1.71-4.25,4.22-4.25
		c1.01,0,1.64,0.22,1.92,0.36l-0.25,0.85c-0.4-0.19-0.96-0.34-1.63-0.34c-1.9,0-3.15,1.21-3.15,3.33c0,1.98,1.14,3.25,3.11,3.25
		c0.64,0,1.28-0.13,1.7-0.34L444.86,61.54z"/>
	<path d="M451.26,58.85c0,2.15-1.49,3.08-2.89,3.08c-1.57,0-2.78-1.15-2.78-2.99c0-1.94,1.27-3.08,2.88-3.08
		C450.13,55.86,451.26,57.07,451.26,58.85z M446.65,58.91c0,1.27,0.73,2.23,1.76,2.23c1.01,0,1.76-0.95,1.76-2.25
		c0-0.98-0.49-2.23-1.74-2.23C447.19,56.65,446.65,57.81,446.65,58.91z"/>
	<path d="M457.85,58.85c0,2.15-1.49,3.08-2.89,3.08c-1.57,0-2.78-1.15-2.78-2.99c0-1.94,1.27-3.08,2.88-3.08
		C456.72,55.86,457.85,57.07,457.85,58.85z M453.24,58.91c0,1.27,0.73,2.23,1.76,2.23c1.01,0,1.76-0.95,1.76-2.25
		c0-0.98-0.49-2.23-1.74-2.23C453.78,56.65,453.24,57.81,453.24,58.91z"/>
	<path d="M459.18,57.81c0-0.68-0.01-1.27-0.05-1.81h0.92l0.04,1.14h0.05c0.26-0.78,0.9-1.27,1.61-1.27c0.12,0,0.2,0.01,0.3,0.04v1
		c-0.11-0.02-0.22-0.04-0.36-0.04c-0.74,0-1.27,0.56-1.42,1.36c-0.02,0.14-0.05,0.31-0.05,0.49v3.09h-1.04V57.81z"/>
	<path d="M468,53.28v7.02c0,0.52,0.01,1.1,0.05,1.5h-0.95l-0.05-1.01h-0.02c-0.32,0.65-1.03,1.14-1.98,1.14
		c-1.4,0-2.48-1.19-2.48-2.95c-0.01-1.93,1.19-3.12,2.6-3.12c0.89,0,1.49,0.42,1.75,0.89h0.02v-3.47H468z M466.94,58.36
		c0-0.13-0.01-0.31-0.05-0.44c-0.16-0.67-0.73-1.22-1.52-1.22c-1.09,0-1.74,0.96-1.74,2.24c0,1.17,0.58,2.15,1.72,2.15
		c0.71,0,1.35-0.47,1.55-1.26c0.04-0.14,0.05-0.29,0.05-0.46V58.36z"/>
	<path d="M470.93,54.36c0.01,0.36-0.25,0.65-0.67,0.65c-0.37,0-0.64-0.29-0.64-0.65c0-0.37,0.28-0.66,0.66-0.66
		C470.68,53.7,470.93,53.99,470.93,54.36z M469.75,61.8V56h1.06v5.8H469.75z"/>
	<path d="M472.56,57.57c0-0.6-0.01-1.09-0.05-1.57h0.94l0.06,0.96h0.02c0.29-0.55,0.96-1.09,1.92-1.09c0.8,0,2.05,0.48,2.05,2.47
		v3.47h-1.06v-3.35c0-0.94-0.35-1.72-1.34-1.72c-0.7,0-1.24,0.49-1.42,1.08c-0.05,0.13-0.07,0.31-0.07,0.49v3.49h-1.06V57.57z"/>
	<path d="M482.44,61.8l-0.08-0.73h-0.04c-0.32,0.46-0.95,0.86-1.77,0.86c-1.18,0-1.78-0.83-1.78-1.67c0-1.4,1.25-2.17,3.49-2.16
		v-0.12c0-0.48-0.13-1.34-1.32-1.34c-0.54,0-1.1,0.17-1.51,0.43l-0.24-0.7c0.48-0.31,1.18-0.52,1.91-0.52
		c1.77,0,2.21,1.21,2.21,2.37v2.17c0,0.5,0.02,1,0.1,1.39H482.44z M482.28,58.84c-1.15-0.02-2.46,0.18-2.46,1.31
		c0,0.68,0.46,1.01,1,1.01c0.76,0,1.24-0.48,1.4-0.97c0.04-0.11,0.06-0.23,0.06-0.34V58.84z"/>
	<path d="M486.23,54.33V56h1.51v0.8h-1.51v3.13c0,0.72,0.2,1.13,0.79,1.13c0.28,0,0.48-0.04,0.61-0.07l0.05,0.79
		c-0.2,0.08-0.53,0.14-0.94,0.14c-0.49,0-0.89-0.16-1.14-0.44c-0.3-0.31-0.41-0.83-0.41-1.51V56.8h-0.9V56h0.9V54.6L486.23,54.33z"
		/>
	<path d="M489.45,59.09c0.02,1.43,0.94,2.02,1.99,2.02c0.75,0,1.21-0.13,1.61-0.3l0.18,0.75c-0.37,0.17-1.01,0.36-1.93,0.36
		c-1.79,0-2.85-1.18-2.85-2.93s1.03-3.13,2.72-3.13c1.9,0,2.4,1.67,2.4,2.73c0,0.22-0.02,0.38-0.04,0.49H489.45z M492.54,58.33
		c0.01-0.67-0.28-1.71-1.46-1.71c-1.07,0-1.54,0.98-1.62,1.71H492.54z"/>
	<path d="M497.45,53.72h4.35v0.88h-3.31v2.69h3.06v0.86h-3.06v3.66h-1.04V53.72z"/>
	<path d="M502.95,57.81c0-0.68-0.01-1.27-0.05-1.81h0.92l0.04,1.14h0.05c0.26-0.78,0.9-1.27,1.61-1.27c0.12,0,0.2,0.01,0.3,0.04v1
		c-0.11-0.02-0.22-0.04-0.36-0.04c-0.74,0-1.27,0.56-1.42,1.36c-0.02,0.14-0.05,0.31-0.05,0.49v3.09h-1.04V57.81z"/>
	<path d="M510.02,61.8l-0.08-0.73h-0.04c-0.32,0.46-0.95,0.86-1.77,0.86c-1.18,0-1.78-0.83-1.78-1.67c0-1.4,1.25-2.17,3.49-2.16
		v-0.12c0-0.48-0.13-1.34-1.32-1.34c-0.54,0-1.1,0.17-1.51,0.43l-0.24-0.7c0.48-0.31,1.18-0.52,1.91-0.52
		c1.77,0,2.21,1.21,2.21,2.37v2.17c0,0.5,0.02,1,0.1,1.39H510.02z M509.87,58.84c-1.15-0.02-2.46,0.18-2.46,1.31
		c0,0.68,0.46,1.01,1,1.01c0.76,0,1.24-0.48,1.4-0.97c0.04-0.11,0.06-0.23,0.06-0.34V58.84z"/>
	<path d="M512.59,57.57c0-0.6-0.01-1.09-0.05-1.57h0.92l0.05,0.94h0.04c0.32-0.55,0.86-1.07,1.82-1.07c0.79,0,1.39,0.48,1.64,1.16
		h0.02c0.18-0.32,0.41-0.58,0.65-0.76c0.35-0.26,0.73-0.41,1.28-0.41c0.77,0,1.91,0.5,1.91,2.52v3.42h-1.03v-3.29
		c0-1.12-0.41-1.79-1.26-1.79c-0.6,0-1.07,0.44-1.25,0.96c-0.05,0.14-0.08,0.33-0.08,0.53v3.59h-1.03v-3.48
		c0-0.92-0.41-1.59-1.21-1.59c-0.66,0-1.14,0.53-1.31,1.06c-0.06,0.16-0.08,0.34-0.08,0.52v3.5h-1.03V57.57z"/>
	<path d="M523.19,59.09c0.02,1.43,0.94,2.02,1.99,2.02c0.76,0,1.21-0.13,1.61-0.3l0.18,0.75c-0.37,0.17-1.01,0.36-1.93,0.36
		c-1.79,0-2.85-1.18-2.85-2.93s1.03-3.13,2.72-3.13c1.89,0,2.4,1.67,2.4,2.73c0,0.22-0.02,0.38-0.04,0.49H523.19z M526.28,58.33
		c0.01-0.67-0.28-1.71-1.46-1.71c-1.07,0-1.54,0.98-1.62,1.71H526.28z"/>
</g>
<g>
	<path d="M396.58,73.83v8.08h-1.04v-8.08H396.58z"/>
	<path d="M398.49,77.68c0-0.6-0.01-1.09-0.05-1.57h0.94l0.06,0.96h0.02c0.29-0.55,0.96-1.09,1.92-1.09c0.8,0,2.05,0.48,2.05,2.47
		v3.47h-1.05v-3.35c0-0.94-0.35-1.71-1.34-1.71c-0.7,0-1.24,0.49-1.42,1.08c-0.05,0.13-0.07,0.31-0.07,0.49v3.49h-1.05V77.68z"/>
	<path d="M405.4,76.11l1.14,3.26c0.19,0.53,0.35,1.01,0.47,1.49h0.04c0.13-0.48,0.3-0.96,0.49-1.49l1.13-3.26h1.1l-2.28,5.8h-1.01
		l-2.21-5.8H405.4z"/>
	<path d="M411.23,79.2c0.02,1.43,0.94,2.01,1.99,2.01c0.76,0,1.21-0.13,1.61-0.3l0.18,0.76c-0.37,0.17-1.01,0.36-1.93,0.36
		c-1.79,0-2.85-1.18-2.85-2.93s1.03-3.13,2.72-3.13c1.89,0,2.4,1.67,2.4,2.73c0,0.22-0.02,0.38-0.04,0.49H411.23z M414.32,78.45
		c0.01-0.67-0.28-1.71-1.46-1.71c-1.07,0-1.54,0.98-1.62,1.71H414.32z"/>
	<path d="M416.66,77.92c0-0.68-0.01-1.27-0.05-1.81h0.92l0.04,1.14h0.05c0.26-0.78,0.9-1.27,1.61-1.27c0.12,0,0.2,0.01,0.3,0.04v1
		c-0.11-0.02-0.22-0.04-0.36-0.04c-0.74,0-1.27,0.56-1.42,1.36c-0.02,0.14-0.05,0.31-0.05,0.49v3.09h-1.04V77.92z"/>
	<path d="M420.43,80.83c0.31,0.2,0.86,0.42,1.39,0.42c0.77,0,1.13-0.38,1.13-0.86c0-0.5-0.3-0.78-1.08-1.07
		c-1.04-0.37-1.54-0.95-1.54-1.64c0-0.94,0.76-1.7,2-1.7c0.59,0,1.1,0.17,1.43,0.36l-0.26,0.77c-0.23-0.14-0.65-0.34-1.19-0.34
		c-0.62,0-0.97,0.36-0.97,0.79c0,0.48,0.35,0.7,1.1,0.98c1.01,0.38,1.52,0.89,1.52,1.75c0,1.02-0.79,1.74-2.17,1.74
		c-0.64,0-1.22-0.16-1.63-0.4L420.43,80.83z"/>
	<path d="M425.92,79.2c0.02,1.43,0.94,2.01,1.99,2.01c0.76,0,1.21-0.13,1.61-0.3l0.18,0.76c-0.37,0.17-1.01,0.36-1.93,0.36
		c-1.79,0-2.85-1.18-2.85-2.93s1.03-3.13,2.72-3.13c1.89,0,2.4,1.67,2.4,2.73c0,0.22-0.02,0.38-0.04,0.49H425.92z M429.01,78.45
		c0.01-0.67-0.28-1.71-1.46-1.71c-1.07,0-1.54,0.98-1.62,1.71H429.01z"/>
	<path d="M433.92,73.83h1.04v3.9H435c0.22-0.31,0.43-0.6,0.64-0.86l2.47-3.03h1.29l-2.93,3.43l3.15,4.65h-1.24l-2.66-3.97
		l-0.77,0.89v3.08h-1.04V73.83z"/>
	<path d="M441.69,74.48c0.01,0.36-0.25,0.65-0.67,0.65c-0.37,0-0.64-0.29-0.64-0.65c0-0.37,0.28-0.66,0.66-0.66
		C441.43,73.82,441.69,74.11,441.69,74.48z M440.51,81.91v-5.8h1.05v5.8H440.51z"/>
	<path d="M443.32,77.68c0-0.6-0.01-1.09-0.05-1.57h0.94l0.06,0.96h0.02c0.29-0.55,0.96-1.09,1.92-1.09c0.8,0,2.05,0.48,2.05,2.47
		v3.47h-1.05v-3.35c0-0.94-0.35-1.71-1.34-1.71c-0.7,0-1.24,0.49-1.42,1.08c-0.05,0.13-0.07,0.31-0.07,0.49v3.49h-1.05V77.68z"/>
	<path d="M450.57,79.2c0.02,1.43,0.94,2.01,1.99,2.01c0.76,0,1.21-0.13,1.61-0.3l0.18,0.76c-0.37,0.17-1.01,0.36-1.93,0.36
		c-1.79,0-2.85-1.18-2.85-2.93s1.03-3.13,2.72-3.13c1.89,0,2.4,1.67,2.4,2.73c0,0.22-0.02,0.38-0.04,0.49H450.57z M453.66,78.45
		c0.01-0.67-0.28-1.71-1.46-1.71c-1.07,0-1.54,0.98-1.62,1.71H453.66z"/>
	<path d="M455.99,77.68c0-0.6-0.01-1.09-0.05-1.57h0.92l0.05,0.94h0.04c0.32-0.55,0.86-1.07,1.82-1.07c0.79,0,1.39,0.48,1.64,1.16
		h0.02c0.18-0.32,0.41-0.58,0.65-0.76c0.35-0.26,0.73-0.41,1.28-0.41c0.77,0,1.91,0.5,1.91,2.52v3.42h-1.03v-3.29
		c0-1.12-0.41-1.79-1.26-1.79c-0.6,0-1.07,0.44-1.25,0.96c-0.05,0.14-0.08,0.34-0.08,0.53v3.59h-1.03v-3.48
		c0-0.92-0.41-1.6-1.21-1.6c-0.66,0-1.14,0.53-1.31,1.06c-0.06,0.16-0.08,0.34-0.08,0.52v3.5h-1.03V77.68z"/>
	<path d="M469.21,81.91l-0.08-0.73h-0.04c-0.32,0.46-0.95,0.86-1.78,0.86c-1.17,0-1.77-0.83-1.77-1.67c0-1.4,1.25-2.17,3.49-2.16
		V78.1c0-0.48-0.13-1.34-1.32-1.34c-0.54,0-1.1,0.17-1.51,0.43l-0.24-0.7c0.48-0.31,1.17-0.52,1.91-0.52c1.78,0,2.21,1.21,2.21,2.37
		v2.17c0,0.5,0.02,1,0.1,1.39H469.21z M469.06,78.95c-1.15-0.02-2.46,0.18-2.46,1.31c0,0.68,0.46,1.01,1,1.01
		c0.76,0,1.24-0.48,1.4-0.97c0.04-0.11,0.06-0.23,0.06-0.34V78.95z"/>
	<path d="M473.01,74.44v1.67h1.51v0.8h-1.51v3.13c0,0.72,0.2,1.13,0.79,1.13c0.28,0,0.48-0.04,0.61-0.07l0.05,0.79
		c-0.2,0.08-0.53,0.14-0.94,0.14c-0.49,0-0.89-0.16-1.14-0.44c-0.3-0.31-0.41-0.83-0.41-1.51v-3.17h-0.9v-0.8h0.9v-1.39
		L473.01,74.44z"/>
	<path d="M476.88,74.48c0.01,0.36-0.25,0.65-0.67,0.65c-0.37,0-0.64-0.29-0.64-0.65c0-0.37,0.28-0.66,0.66-0.66
		C476.63,73.82,476.88,74.11,476.88,74.48z M475.71,81.91v-5.8h1.05v5.8H475.71z"/>
	<path d="M482.65,81.7c-0.28,0.14-0.89,0.34-1.67,0.34c-1.75,0-2.89-1.19-2.89-2.96c0-1.79,1.22-3.08,3.12-3.08
		c0.62,0,1.17,0.16,1.46,0.3l-0.24,0.82c-0.25-0.14-0.65-0.28-1.22-0.28c-1.33,0-2.05,0.98-2.05,2.19c0,1.34,0.86,2.17,2.01,2.17
		c0.6,0,1-0.16,1.29-0.29L482.65,81.7z"/>
	<path d="M483.75,80.83c0.31,0.2,0.86,0.42,1.39,0.42c0.77,0,1.13-0.38,1.13-0.86c0-0.5-0.3-0.78-1.08-1.07
		c-1.04-0.37-1.54-0.95-1.54-1.64c0-0.94,0.76-1.7,2-1.7c0.59,0,1.1,0.17,1.43,0.36l-0.26,0.77c-0.23-0.14-0.65-0.34-1.19-0.34
		c-0.62,0-0.97,0.36-0.97,0.79c0,0.48,0.35,0.7,1.1,0.98c1.01,0.38,1.52,0.89,1.52,1.75c0,1.02-0.79,1.74-2.17,1.74
		c-0.64,0-1.22-0.16-1.63-0.4L483.75,80.83z"/>
	<path d="M401.18,96.05c-0.38,0.19-1.15,0.38-2.13,0.38c-2.28,0-3.99-1.44-3.99-4.09c0-2.53,1.71-4.25,4.22-4.25
		c1.01,0,1.64,0.22,1.92,0.36l-0.25,0.85c-0.4-0.19-0.96-0.34-1.63-0.34c-1.89,0-3.15,1.21-3.15,3.33c0,1.98,1.14,3.25,3.11,3.25
		c0.64,0,1.28-0.13,1.7-0.34L401.18,96.05z"/>
	<path d="M407.58,93.36c0,2.15-1.49,3.08-2.89,3.08c-1.57,0-2.78-1.15-2.78-2.99c0-1.94,1.27-3.08,2.88-3.08
		C406.45,90.38,407.58,91.59,407.58,93.36z M402.97,93.42c0,1.27,0.73,2.23,1.76,2.23c1.01,0,1.76-0.95,1.76-2.25
		c0-0.98-0.49-2.23-1.74-2.23C403.51,91.17,402.97,92.32,402.97,93.42z"/>
	<path d="M414.17,93.36c0,2.15-1.49,3.08-2.89,3.08c-1.57,0-2.78-1.15-2.78-2.99c0-1.94,1.27-3.08,2.88-3.08
		C413.04,90.38,414.17,91.59,414.17,93.36z M409.56,93.42c0,1.27,0.73,2.23,1.76,2.23c1.01,0,1.76-0.95,1.76-2.25
		c0-0.98-0.49-2.23-1.74-2.23C410.1,91.17,409.56,92.32,409.56,93.42z"/>
	<path d="M415.5,92.32c0-0.68-0.01-1.27-0.05-1.81h0.92l0.04,1.14h0.05c0.26-0.78,0.9-1.27,1.61-1.27c0.12,0,0.2,0.01,0.3,0.04v1
		c-0.11-0.02-0.22-0.04-0.36-0.04c-0.74,0-1.27,0.56-1.42,1.36c-0.02,0.14-0.05,0.31-0.05,0.49v3.09h-1.04V92.32z"/>
	<path d="M424.32,87.8v7.02c0,0.52,0.01,1.1,0.05,1.5h-0.95l-0.05-1.01h-0.02c-0.32,0.65-1.03,1.14-1.98,1.14
		c-1.4,0-2.48-1.19-2.48-2.95c-0.01-1.93,1.19-3.12,2.6-3.12c0.89,0,1.49,0.42,1.75,0.89h0.02V87.8H424.32z M423.26,92.87
		c0-0.13-0.01-0.31-0.05-0.44c-0.16-0.67-0.73-1.22-1.52-1.22c-1.09,0-1.74,0.96-1.74,2.24c0,1.18,0.58,2.15,1.71,2.15
		c0.71,0,1.36-0.47,1.55-1.26c0.04-0.14,0.05-0.29,0.05-0.46V92.87z"/>
	<path d="M427.25,88.88c0.01,0.36-0.25,0.65-0.67,0.65c-0.37,0-0.64-0.29-0.64-0.65c0-0.37,0.28-0.66,0.66-0.66
		C427,88.22,427.25,88.51,427.25,88.88z M426.08,96.31v-5.8h1.05v5.8H426.08z"/>
	<path d="M428.88,92.08c0-0.6-0.01-1.09-0.05-1.57h0.94l0.06,0.96h0.02c0.29-0.55,0.96-1.09,1.92-1.09c0.8,0,2.05,0.48,2.05,2.47
		v3.47h-1.05v-3.35c0-0.94-0.35-1.71-1.34-1.71c-0.7,0-1.24,0.49-1.42,1.08c-0.05,0.13-0.07,0.31-0.07,0.49v3.49h-1.05V92.08z"/>
	<path d="M438.76,96.31l-0.08-0.73h-0.04c-0.32,0.46-0.95,0.86-1.78,0.86c-1.17,0-1.77-0.83-1.77-1.67c0-1.4,1.25-2.17,3.49-2.16
		V92.5c0-0.48-0.13-1.34-1.32-1.34c-0.54,0-1.1,0.17-1.51,0.43l-0.24-0.7c0.48-0.31,1.17-0.52,1.91-0.52c1.78,0,2.21,1.21,2.21,2.37
		v2.17c0,0.5,0.02,1,0.1,1.39H438.76z M438.6,93.35c-1.15-0.02-2.46,0.18-2.46,1.31c0,0.68,0.46,1.01,1,1.01
		c0.76,0,1.24-0.48,1.4-0.97c0.04-0.11,0.06-0.23,0.06-0.34V93.35z"/>
	<path d="M442.55,88.84v1.67h1.51v0.8h-1.51v3.13c0,0.72,0.2,1.13,0.79,1.13c0.28,0,0.48-0.04,0.61-0.07l0.05,0.79
		c-0.2,0.08-0.53,0.14-0.94,0.14c-0.49,0-0.89-0.16-1.14-0.44c-0.3-0.31-0.41-0.83-0.41-1.51v-3.17h-0.9v-0.8h0.9v-1.39
		L442.55,88.84z"/>
	<path d="M445.77,93.6c0.02,1.43,0.94,2.01,1.99,2.01c0.76,0,1.21-0.13,1.61-0.3l0.18,0.76c-0.37,0.17-1.01,0.36-1.93,0.36
		c-1.79,0-2.85-1.18-2.85-2.93c0-1.75,1.03-3.13,2.72-3.13c1.89,0,2.4,1.67,2.4,2.73c0,0.22-0.02,0.38-0.04,0.49H445.77z
		 M448.86,92.85c0.01-0.67-0.28-1.71-1.46-1.71c-1.07,0-1.54,0.98-1.62,1.71H448.86z"/>
	<path d="M453.77,88.23h4.35v0.88h-3.31v2.69h3.06v0.86h-3.06v3.66h-1.04V88.23z"/>
	<path d="M459.27,92.32c0-0.68-0.01-1.27-0.05-1.81h0.92l0.04,1.14h0.05c0.26-0.78,0.9-1.27,1.61-1.27c0.12,0,0.2,0.01,0.3,0.04v1
		c-0.11-0.02-0.22-0.04-0.36-0.04c-0.74,0-1.27,0.56-1.42,1.36c-0.02,0.14-0.05,0.31-0.05,0.49v3.09h-1.04V92.32z"/>
	<path d="M466.35,96.31l-0.08-0.73h-0.04c-0.32,0.46-0.95,0.86-1.78,0.86c-1.17,0-1.77-0.83-1.77-1.67c0-1.4,1.25-2.17,3.49-2.16
		V92.5c0-0.48-0.13-1.34-1.32-1.34c-0.54,0-1.1,0.17-1.51,0.43l-0.24-0.7c0.48-0.31,1.17-0.52,1.91-0.52c1.78,0,2.21,1.21,2.21,2.37
		v2.17c0,0.5,0.02,1,0.1,1.39H466.35z M466.19,93.35c-1.15-0.02-2.46,0.18-2.46,1.31c0,0.68,0.46,1.01,1,1.01
		c0.76,0,1.24-0.48,1.4-0.97c0.04-0.11,0.06-0.23,0.06-0.34V93.35z"/>
	<path d="M468.92,92.08c0-0.6-0.01-1.09-0.05-1.57h0.92l0.05,0.94h0.04c0.32-0.55,0.86-1.07,1.82-1.07c0.79,0,1.39,0.48,1.64,1.16
		h0.02c0.18-0.32,0.41-0.58,0.65-0.76c0.35-0.26,0.73-0.41,1.28-0.41c0.77,0,1.91,0.5,1.91,2.52v3.42h-1.03v-3.29
		c0-1.12-0.41-1.79-1.26-1.79c-0.6,0-1.07,0.44-1.25,0.96c-0.05,0.14-0.08,0.34-0.08,0.53v3.59h-1.03v-3.48
		c0-0.92-0.41-1.6-1.21-1.6c-0.66,0-1.14,0.53-1.31,1.06c-0.06,0.16-0.08,0.34-0.08,0.52v3.5h-1.03V92.08z"/>
	<path d="M479.51,93.6c0.02,1.43,0.94,2.01,1.99,2.01c0.76,0,1.21-0.13,1.61-0.3l0.18,0.76c-0.37,0.17-1.01,0.36-1.93,0.36
		c-1.79,0-2.85-1.18-2.85-2.93c0-1.75,1.03-3.13,2.72-3.13c1.89,0,2.4,1.67,2.4,2.73c0,0.22-0.02,0.38-0.04,0.49H479.51z
		 M482.6,92.85c0.01-0.67-0.28-1.71-1.46-1.71c-1.07,0-1.54,0.98-1.62,1.71H482.6z"/>
</g>
<g>
	<g>
		<line class="st2" x1="53.58" y1="385.07" x2="53.69" y2="356.81"/>
	</g>
	<g>
		<path d="M53.7,385.07l-0.25,0l0.01-2l0.25,0L53.7,385.07z M53.72,381.07l-0.25,0l0.01-2l0.25,0L53.72,381.07z M53.73,377.07
			l-0.25,0l0.01-2l0.25,0L53.73,377.07z M53.75,373.07l-0.25,0l0.01-2l0.25,0L53.75,373.07z M53.77,369.07l-0.25,0l0.01-2l0.25,0
			L53.77,369.07z M53.78,365.07l-0.25,0l0.01-2l0.25,0L53.78,365.07z M53.8,361.07l-0.25,0l0.01-2l0.25,0L53.8,361.07z
			 M53.82,357.07h-0.25l0-0.26h0.25L53.82,357.07z"/>
	</g>
</g>
<g>
	<path class="st2" d="M91.9,383.91v-4.58l-2.97-6.21h1.38l1.32,2.98c0.36,0.82,0.64,1.47,0.93,2.23h0.03
		c0.26-0.71,0.58-1.41,0.95-2.23l1.35-2.98h1.38l-3.15,6.19v4.59H91.9z"/>
	<path class="st2" d="M103.25,385.11v0.8h-6.97v-0.8H103.25z"/>
	<path class="st2" d="M112.33,378.41c0,3.71-1.96,5.68-4.36,5.68c-2.48,0-4.22-2.21-4.22-5.47c0-3.43,1.85-5.67,4.36-5.67
		C110.68,372.95,112.33,375.21,112.33,378.41z M105.05,378.58c0,2.3,1.09,4.37,3,4.37c1.92,0,3.01-2.03,3.01-4.48
		c0-2.14-0.98-4.39-3-4.39C106.05,374.08,105.05,376.21,105.05,378.58z"/>
	<path class="st2" d="M113.91,373.12h5.06v1.17h-3.84v3.59h3.55v1.15h-3.55v4.88h-1.21V373.12z"/>
	<path class="st2" d="M120.69,373.12h5.06v1.17h-3.84v3.59h3.55v1.15h-3.55v4.88h-1.21V373.12z"/>
	<path class="st2" d="M127.3,382.22c0.54,0.38,1.34,0.7,2.17,0.7c1.24,0,1.96-0.75,1.96-1.84c0-1.01-0.5-1.58-1.77-2.14
		c-1.53-0.62-2.48-1.54-2.48-3.06c0-1.68,1.21-2.93,3.04-2.93c0.96,0,1.66,0.26,2.08,0.53l-0.33,1.14
		c-0.31-0.19-0.93-0.51-1.78-0.51c-1.28,0-1.77,0.88-1.77,1.62c0,1.01,0.57,1.5,1.87,2.08c1.59,0.7,2.4,1.58,2.4,3.17
		c0,1.67-1.07,3.11-3.29,3.11c-0.91,0-1.9-0.3-2.4-0.69L127.3,382.22z"/>
	<path class="st2" d="M139.2,378.85h-3.65v3.89h4.07v1.17h-5.28v-10.79h5.07v1.17h-3.86v3.41h3.65V378.85z"/>
	<path class="st2" d="M143.2,374.31h-2.86v-1.18h6.95v1.18h-2.87v9.6h-1.23V374.31z"/>
</g>
<g>
	<g>
		<line class="st2" x1="157.37" y1="379.2" x2="184.87" y2="379.2"/>
	</g>
	<g>
		<g>
			<rect x="157.37" y="378.7" width="21.46" height="1"/>
		</g>
		<g>
			<g>
				<path d="M184.87,379.2c-2.84,1.05-6.36,2.85-8.55,4.76l1.72-4.76l-1.72-4.75C178.51,376.35,182.03,378.15,184.87,379.2z"/>
			</g>
		</g>
	</g>
</g>
<g>
	<g>
		<line class="st2" x1="79.62" y1="379.2" x2="53.09" y2="379.2"/>
	</g>
	<g>
		<g>
			<rect x="59.13" y="378.7" width="20.49" height="1"/>
		</g>
		<g>
			<g>
				<path d="M53.09,379.2c2.84-1.05,6.36-2.85,8.55-4.76l-1.72,4.76l1.72,4.75C59.46,382.05,55.93,380.26,53.09,379.2z"/>
			</g>
		</g>
	</g>
</g>
<g>
	<path d="M52.05,358.86l-0.94,0l0-0.25l0.94,0L52.05,358.86z M49.12,358.85l-2-0.01l0-0.25l2,0.01L49.12,358.85z M45.12,358.84
		l-2-0.01l0-0.25l2,0.01L45.12,358.84z M41.12,358.82l-2-0.01l0-0.25l2,0.01L41.12,358.82z M37.12,358.8l-2-0.01l0-0.25l2,0.01
		L37.12,358.8z M33.12,358.79l-2-0.01l0-0.25l2,0.01L33.12,358.79z"/>
</g>
<g>
	<path d="M52.05,250.62l-0.94,0l0-0.25l0.94,0L52.05,250.62z M49.12,250.6l-2-0.01l0-0.25l2,0.01L49.12,250.6z M45.12,250.59
		l-2-0.01l0-0.25l2,0.01L45.12,250.59z M41.12,250.57l-2-0.01l0-0.25l2,0.01L41.12,250.57z M37.12,250.55l-2-0.01l0-0.25l2,0.01
		L37.12,250.55z M33.12,250.54l-2-0.01l0-0.25l2,0.01L33.12,250.54z"/>
</g>
<g>
	<path class="st2" d="M42.04,326.15l-2.38,1.2c-0.91,0.49-1.5,0.79-2.13,1.09v0.03c0.62,0.26,1.2,0.53,2.14,1.02l2.37,1.13v1.39
		l-5.46-2.87l-5.33,2.76v-1.41l2.53-1.24c0.71-0.35,1.25-0.61,1.83-0.86v-0.04c-0.64-0.27-1.14-0.5-1.83-0.85l-2.53-1.28v-1.39
		l5.25,2.86l5.54-2.93V326.15z"/>
	<path class="st2" d="M43.24,317.43h0.8v6.96h-0.8V317.43z"/>
	<path class="st2" d="M36.53,308.35c3.71,0,5.68,1.96,5.68,4.36c0,2.48-2.21,4.22-5.47,4.22c-3.43,0-5.67-1.85-5.67-4.36
		C31.07,310.01,33.33,308.35,36.53,308.35z M36.71,315.64c2.3,0,4.37-1.09,4.37-3c0-1.92-2.03-3.01-4.48-3.01
		c-2.14,0-4.39,0.98-4.39,3C32.21,314.64,34.34,315.64,36.71,315.64z"/>
	<path class="st2" d="M31.25,306.78v-5.06h1.17v3.85H36v-3.55h1.15v3.55h4.88v1.21H31.25z"/>
	<path class="st2" d="M31.25,300v-5.06h1.17v3.84H36v-3.55h1.15v3.55h4.88V300H31.25z"/>
	<path class="st2" d="M40.34,293.38c0.38-0.54,0.7-1.34,0.7-2.17c0-1.24-0.75-1.96-1.84-1.96c-1.01,0-1.58,0.5-2.14,1.77
		c-0.62,1.53-1.54,2.48-3.06,2.48c-1.68,0-2.93-1.21-2.93-3.04c0-0.96,0.26-1.66,0.53-2.08l1.14,0.33
		c-0.19,0.31-0.51,0.93-0.51,1.78c0,1.28,0.88,1.77,1.62,1.77c1.01,0,1.5-0.57,2.08-1.87c0.7-1.59,1.58-2.4,3.17-2.4
		c1.67,0,3.11,1.07,3.11,3.29c0,0.91-0.3,1.9-0.69,2.4L40.34,293.38z"/>
	<path class="st2" d="M36.98,281.49v3.65h3.89v-4.07h1.17v5.28H31.25v-5.07h1.17v3.86h3.41v-3.65H36.98z"/>
	<path class="st2" d="M32.43,277.49v2.86h-1.18v-6.95h1.18v2.87h9.6v1.23H32.43z"/>
</g>
<g>
	<g>
		<rect x="37.93" y="257.72" width="1" height="10.82"/>
	</g>
	<g>
		<g>
			<path d="M38.43,251.68c1.05,2.84,2.85,6.36,4.76,8.55l-4.76-1.72l-4.75,1.72C35.58,258.05,37.38,254.52,38.43,251.68z"/>
		</g>
	</g>
</g>
<g>
	<g>
		<rect x="37.93" y="339.99" width="1" height="12.67"/>
	</g>
	<g>
		<g>
			<path d="M38.43,358.7c-1.05-2.84-2.85-6.36-4.76-8.55l4.76,1.72l4.75-1.72C41.29,352.33,39.49,355.86,38.43,358.7z"/>
		</g>
	</g>
</g>
<g>
	<g>
		<rect x="110.59" y="146.58" transform="matrix(0.8034 -0.5955 0.5955 0.8034 -64.5918 98.534)" width="12.64" height="1"/>
	</g>
	<g>
		<g>
			<path d="M106.99,154.43c1.65-2.54,3.41-6.08,4.03-8.91l1.45,4.84l4.21,2.8C113.8,152.93,109.9,153.59,106.99,154.43z"/>
		</g>
	</g>
</g>
</svg>
